  0
SECTION
  2
HEADER
  9
$ACADVER
  1
AC1027
  9
$ACADMAINTVER
 70
   125
  9
$DWGCODEPAGE
  3
ANSI_1252
  9
$REQUIREDVERSIONS
160
                 0
  9
$INSBASE
 10
0.0
 20
0.0
 30
0.0
  9
$EXTMIN
 10
1.000000000000000E+20
 20
1.000000000000000E+20
 30
1.000000000000000E+20
  9
$EXTMAX
 10
-1.000000000000000E+20
 20
-1.000000000000000E+20
 30
-1.000000000000000E+20
  9
$LIMMIN
 10
0.0
 20
0.0
  9
$LIMMAX
 10
12.0
 20
9.0
  9
$ORTHOMODE
 70
     0
  9
$REGENMODE
 70
     1
  9
$FILLMODE
 70
     1
  9
$QTEXTMODE
 70
     0
  9
$MIRRTEXT
 70
     0
  9
$LTSCALE
 40
1.0
  9
$ATTMODE
 70
     1
  9
$TEXTSIZE
 40
0.2
  9
$TRACEWID
 40
0.05
  9
$TEXTSTYLE
  7
Standard
  9
$CLAYER
  8
0
  9
$CELTYPE
  6
ByLayer
  9
$CECOLOR
 62
   256
  9
$CELTSCALE
 40
1.0
  9
$DISPSILH
 70
     0
  9
$DIMSCALE
 40
1.0
  9
$DIMASZ
 40
0.18
  9
$DIMEXO
 40
0.0625
  9
$DIMDLI
 40
0.38
  9
$DIMRND
 40
0.0
  9
$DIMDLE
 40
0.0
  9
$DIMEXE
 40
0.18
  9
$DIMTP
 40
0.0
  9
$DIMTM
 40
0.0
  9
$DIMTXT
 40
0.18
  9
$DIMCEN
 40
0.09
  9
$DIMTSZ
 40
0.0
  9
$DIMTOL
 70
     0
  9
$DIMLIM
 70
     0
  9
$DIMTIH
 70
     1
  9
$DIMTOH
 70
     1
  9
$DIMSE1
 70
     0
  9
$DIMSE2
 70
     0
  9
$DIMTAD
 70
     0
  9
$DIMZIN
 70
     0
  9
$DIMBLK
  1

  9
$DIMASO
 70
     1
  9
$DIMSHO
 70
     1
  9
$DIMPOST
  1

  9
$DIMAPOST
  1

  9
$DIMALT
 70
     0
  9
$DIMALTD
 70
     2
  9
$DIMALTF
 40
25.4
  9
$DIMLFAC
 40
1.0
  9
$DIMTOFL
 70
     0
  9
$DIMTVP
 40
0.0
  9
$DIMTIX
 70
     0
  9
$DIMSOXD
 70
     0
  9
$DIMSAH
 70
     0
  9
$DIMBLK1
  1

  9
$DIMBLK2
  1

  9
$DIMSTYLE
  2
Standard
  9
$DIMCLRD
 70
     0
  9
$DIMCLRE
 70
     0
  9
$DIMCLRT
 70
     0
  9
$DIMTFAC
 40
1.0
  9
$DIMGAP
 40
0.09
  9
$DIMJUST
 70
     0
  9
$DIMSD1
 70
     0
  9
$DIMSD2
 70
     0
  9
$DIMTOLJ
 70
     1
  9
$DIMTZIN
 70
     0
  9
$DIMALTZ
 70
     0
  9
$DIMALTTZ
 70
     0
  9
$DIMUPT
 70
     0
  9
$DIMDEC
 70
     4
  9
$DIMTDEC
 70
     4
  9
$DIMALTU
 70
     2
  9
$DIMALTTD
 70
     2
  9
$DIMTXSTY
  7
Standard
  9
$DIMAUNIT
 70
     0
  9
$DIMADEC
 70
     0
  9
$DIMALTRND
 40
0.0
  9
$DIMAZIN
 70
     0
  9
$DIMDSEP
 70
    46
  9
$DIMATFIT
 70
     3
  9
$DIMFRAC
 70
     0
  9
$DIMLDRBLK
  1

  9
$DIMLUNIT
 70
     2
  9
$DIMLWD
 70
    -2
  9
$DIMLWE
 70
    -2
  9
$DIMTMOVE
 70
     0
  9
$DIMFXL
 40
1.0
  9
$DIMFXLON
 70
     0
  9
$DIMJOGANG
 40
0.7853981633974483
  9
$DIMTFILL
 70
     0
  9
$DIMTFILLCLR
 70
     0
  9
$DIMARCSYM
 70
     0
  9
$DIMLTYPE
  6

  9
$DIMLTEX1
  6

  9
$DIMLTEX2
  6

  9
$DIMTXTDIRECTION
 70
     0
  9
$LUNITS
 70
     2
  9
$LUPREC
 70
     4
  9
$SKETCHINC
 40
0.1
  9
$FILLETRAD
 40
0.0
  9
$AUNITS
 70
     0
  9
$AUPREC
 70
     0
  9
$MENU
  1
.
  9
$ELEVATION
 40
0.0
  9
$PELEVATION
 40
0.0
  9
$THICKNESS
 40
0.0
  9
$LIMCHECK
 70
     0
  9
$CHAMFERA
 40
0.0
  9
$CHAMFERB
 40
0.0
  9
$CHAMFERC
 40
0.0
  9
$CHAMFERD
 40
0.0
  9
$SKPOLY
 70
     0
  9
$TDCREATE
 40
2459105.768310185
  9
$TDUCREATE
 40
2459105.768310185
  9
$TDUPDATE
 40
2459105.768310185
  9
$TDUUPDATE
 40
2459105.768310185
  9
$TDINDWG
 40
0.0000000000
  9
$TDUSRTIMER
 40
0.0000000000
  9
$USRTIMER
 70
     1
  9
$ANGBASE
 50
0.0
  9
$ANGDIR
 70
     0
  9
$PDMODE
 70
     0
  9
$PDSIZE
 40
0.0
  9
$PLINEWID
 40
0.0
  9
$SPLFRAME
 70
     0
  9
$SPLINETYPE
 70
     6
  9
$SPLINESEGS
 70
     8
  9
$HANDSEED
  5
1F4
  9
$SURFTAB1
 70
     6
  9
$SURFTAB2
 70
     6
  9
$SURFTYPE
 70
     6
  9
$SURFU
 70
     6
  9
$SURFV
 70
     6
  9
$UCSBASE
  2

  9
$UCSNAME
  2

  9
$UCSORG
 10
0.0
 20
0.0
 30
0.0
  9
$UCSXDIR
 10
1.0
 20
0.0
 30
0.0
  9
$UCSYDIR
 10
0.0
 20
1.0
 30
0.0
  9
$UCSORTHOREF
  2

  9
$UCSORTHOVIEW
 70
     0
  9
$UCSORGTOP
 10
0.0
 20
0.0
 30
0.0
  9
$UCSORGBOTTOM
 10
0.0
 20
0.0
 30
0.0
  9
$UCSORGLEFT
 10
0.0
 20
0.0
 30
0.0
  9
$UCSORGRIGHT
 10
0.0
 20
0.0
 30
0.0
  9
$UCSORGFRONT
 10
0.0
 20
0.0
 30
0.0
  9
$UCSORGBACK
 10
0.0
 20
0.0
 30
0.0
  9
$PUCSBASE
  2

  9
$PUCSNAME
  2

  9
$PUCSORG
 10
0.0
 20
0.0
 30
0.0
  9
$PUCSXDIR
 10
1.0
 20
0.0
 30
0.0
  9
$PUCSYDIR
 10
0.0
 20
1.0
 30
0.0
  9
$PUCSORTHOREF
  2

  9
$PUCSORTHOVIEW
 70
     0
  9
$PUCSORGTOP
 10
0.0
 20
0.0
 30
0.0
  9
$PUCSORGBOTTOM
 10
0.0
 20
0.0
 30
0.0
  9
$PUCSORGLEFT
 10
0.0
 20
0.0
 30
0.0
  9
$PUCSORGRIGHT
 10
0.0
 20
0.0
 30
0.0
  9
$PUCSORGFRONT
 10
0.0
 20
0.0
 30
0.0
  9
$PUCSORGBACK
 10
0.0
 20
0.0
 30
0.0
  9
$USERI1
 70
     0
  9
$USERI2
 70
     0
  9
$USERI3
 70
     0
  9
$USERI4
 70
     0
  9
$USERI5
 70
     0
  9
$USERR1
 40
0.0
  9
$USERR2
 40
0.0
  9
$USERR3
 40
0.0
  9
$USERR4
 40
0.0
  9
$USERR5
 40
0.0
  9
$WORLDVIEW
 70
     1
  9
$SHADEDGE
 70
     3
  9
$SHADEDIF
 70
    70
  9
$TILEMODE
 70
     1
  9
$MAXACTVP
 70
    64
  9
$PINSBASE
 10
0.0
 20
0.0
 30
0.0
  9
$PLIMCHECK
 70
     0
  9
$PEXTMIN
 10
1.000000000000000E+20
 20
1.000000000000000E+20
 30
1.000000000000000E+20
  9
$PEXTMAX
 10
-1.000000000000000E+20
 20
-1.000000000000000E+20
 30
-1.000000000000000E+20
  9
$PLIMMIN
 10
0.0
 20
0.0
  9
$PLIMMAX
 10
12.0
 20
9.0
  9
$UNITMODE
 70
     0
  9
$VISRETAIN
 70
     1
  9
$PLINEGEN
 70
     0
  9
$PSLTSCALE
 70
     1
  9
$TREEDEPTH
 70
  3020
  9
$CMLSTYLE
  2
Standard
  9
$CMLJUST
 70
     0
  9
$CMLSCALE
 40
1.0
  9
$PROXYGRAPHICS
 70
     1
  9
$MEASUREMENT
 70
     0
  9
$CELWEIGHT
370
    -1
  9
$ENDCAPS
280
     0
  9
$JOINSTYLE
280
     0
  9
$LWDISPLAY
290
     0
  9
$INSUNITS
 70
     5
  9
$HYPERLINKBASE
  1

  9
$STYLESHEET
  1

  9
$XEDIT
290
     1
  9
$CEPSNTYPE
380
     0
  9
$PSTYLEMODE
290
     1
  9
$FINGERPRINTGUID
  2
{545AB709-A996-C945-93F0-9B06C88C7293}
  9
$VERSIONGUID
  2
{A5D45464-3ABB-1444-8AB5-AE90AA86D557}
  9
$EXTNAMES
290
     1
  9
$PSVPSCALE
 40
0.0
  9
$OLESTARTUP
290
     0
  9
$SORTENTS
280
   127
  9
$INDEXCTL
280
     0
  9
$HIDETEXT
280
     1
  9
$XCLIPFRAME
280
     2
  9
$HALOGAP
280
     0
  9
$OBSCOLOR
 70
   257
  9
$OBSLTYPE
280
     0
  9
$INTERSECTIONDISPLAY
280
     0
  9
$INTERSECTIONCOLOR
 70
   257
  9
$DIMASSOC
280
     2
  9
$PROJECTNAME
  1

  9
$CAMERADISPLAY
290
     0
  9
$LENSLENGTH
 40
50.0
  9
$CAMERAHEIGHT
 40
0.0
  9
$STEPSPERSEC
 40
2.0
  9
$STEPSIZE
 40
6.0
  9
$3DDWFPREC
 40
2.0
  9
$PSOLWIDTH
 40
0.25
  9
$PSOLHEIGHT
 40
4.0
  9
$LOFTANG1
 40
1.570796326794896
  9
$LOFTANG2
 40
1.570796326794896
  9
$LOFTMAG1
 40
0.0
  9
$LOFTMAG2
 40
0.0
  9
$LOFTPARAM
 70
     7
  9
$LOFTNORMALS
280
     1
  9
$LATITUDE
 40
37.795
  9
$LONGITUDE
 40
-122.394
  9
$NORTHDIRECTION
 40
0.0
  9
$TIMEZONE
 70
 -8000
  9
$LIGHTGLYPHDISPLAY
280
     1
  9
$TILEMODELIGHTSYNCH
280
     1
  9
$CMATERIAL
347
11
  9
$SOLIDHIST
280
     0
  9
$SHOWHIST
280
     1
  9
$DWFFRAME
280
     2
  9
$DGNFRAME
280
     0
  9
$REALWORLDSCALE
290
     1
  9
$INTERFERECOLOR
 62
     1
  9
$INTERFEREOBJVS
345
33
  9
$INTERFEREVPVS
346
30
  9
$CSHADOW
280
     0
  9
$SHADOWPLANELOCATION
 40
0.0
  0
ENDSEC
  0
SECTION
  2
CLASSES
  0
CLASS
  1
ACDBDICTIONARYWDFLT
  2
AcDbDictionaryWithDefault
  3
ObjectDBX Classes
 90
        0
 91
        1
280
     0
281
     0
  0
CLASS
  1
MATERIAL
  2
AcDbMaterial
  3
ObjectDBX Classes
 90
     1153
 91
        3
280
     0
281
     0
  0
CLASS
  1
VISUALSTYLE
  2
AcDbVisualStyle
  3
ObjectDBX Classes
 90
     4095
 91
       24
280
     0
281
     0
  0
CLASS
  1
SCALE
  2
AcDbScale
  3
ObjectDBX Classes
 90
     1153
 91
       17
280
     0
281
     0
  0
CLASS
  1
TABLESTYLE
  2
AcDbTableStyle
  3
ObjectDBX Classes
 90
     4095
 91
        1
280
     0
281
     0
  0
CLASS
  1
MLEADERSTYLE
  2
AcDbMLeaderStyle
  3
ACDB_MLEADERSTYLE_CLASS
 90
     4095
 91
        1
280
     0
281
     0
  0
CLASS
  1
ACDBSECTIONVIEWSTYLE
  2
AcDbSectionViewStyle
  3
ObjectDBX Classes
 90
     1025
 91
        1
280
     0
281
     0
  0
CLASS
  1
ACDBDETAILVIEWSTYLE
  2
AcDbDetailViewStyle
  3
ObjectDBX Classes
 90
     1025
 91
        1
280
     0
281
     0
  0
CLASS
  1
DICTIONARYVAR
  2
AcDbDictionaryVar
  3
ObjectDBX Classes
 90
        0
 91
        5
280
     0
281
     0
  0
CLASS
  1
CELLSTYLEMAP
  2
AcDbCellStyleMap
  3
ObjectDBX Classes
 90
     1152
 91
        1
280
     0
281
     0
  0
ENDSEC
  0
SECTION
  2
TABLES
  0
TABLE
  2
VPORT
  5
8
330
0
100
AcDbSymbolTable
 70
     1
1001
ACAD
1000
DbSaveVer
1071
      224
  0
VPORT
  5
57
330
8
100
AcDbSymbolTableRecord
100
AcDbViewportTableRecord
  2
*Active
 70
     0
 10
0.0
 20
0.0
 11
1.0
 21
1.0
 12
500.0
 22
500.0
 13
0.0
 23
0.0
 14
1.0
 24
1.0
 15
0.0
 25
0.0
 16
0.0
 26
0.0
 36
1.0
 17
0.0
 27
0.0
 37
0.0
 40
12.0
 41
1.0
 42
50.0
 43
0.0
 44
0.0
 50
0.0
 51
0.0
 71
     0
 72
   100
 73
     1
 74
     1
 75
     0
 76
     0
 77
     0
 78
     0
281
     0
 65
     1
110
0.0
120
0.0
130
0.0
111
1.0
121
0.0
131
0.0
112
0.0
122
1.0
132
0.0
 79
     0
146
0.0
 60
     3
 61
     5
292
     1
282
     1
141
0.0
142
0.0
 63
   250
421
  3355443
  0
ENDTAB
  0
TABLE
  2
LTYPE
  5
5
330
0
100
AcDbSymbolTable
 70
     1
  0
LTYPE
  5
5B
330
5
100
AcDbSymbolTableRecord
100
AcDbLinetypeTableRecord
  2
ByBlock
 70
     0
  3

 72
    65
 73
     0
 40
0.0
  0
LTYPE
  5
5C
330
5
100
AcDbSymbolTableRecord
100
AcDbLinetypeTableRecord
  2
ByLayer
 70
     0
  3

 72
    65
 73
     0
 40
0.0
  0
LTYPE
  5
5D
330
5
100
AcDbSymbolTableRecord
100
AcDbLinetypeTableRecord
  2
Continuous
 70
     0
  3
Solid line
 72
    65
 73
     0
 40
0.0
  0
ENDTAB
  0
TABLE
  2
LAYER
  5
2
330
0
100
AcDbSymbolTable
 70
     2
  0
LAYER
  5
54
330
2
100
AcDbSymbolTableRecord
100
AcDbLayerTableRecord
  2
0
 70
     0
 62
     7
  6
Continuous
370
    -3
390
F
347
21
348
0
  0
LAYER
  5
7A
330
2
100
AcDbSymbolTableRecord
100
AcDbLayerTableRecord
  2
Untitled v1_Sketch1
 70
     0
 62
     7
  6
Continuous
370
    -3
390
F
347
21
348
0
1001
NFusion_SketchTransform
1000
1.000000;0.000000;0.000000;0.000000;0.000000;1.000000;0.000000;0.000000;0.000000;0.000000;1.000000;0.000000;0.000000;0.000000;0.000000;1.000000
  0
ENDTAB
  0
TABLE
  2
STYLE
  5
3
330
0
100
AcDbSymbolTable
 70
     2
  0
STYLE
  5
55
330
3
100
AcDbSymbolTableRecord
100
AcDbTextStyleTableRecord
  2
Standard
 70
     0
 40
0.0
 41
1.0
 50
0.0
 71
     0
 42
0.2
  3
txt
  4

  0
STYLE
  5
5A
330
3
100
AcDbSymbolTableRecord
100
AcDbTextStyleTableRecord
  2
Annotative
 70
     0
 40
0.0
 41
1.0
 50
0.0
 71
     0
 42
0.2
  3
txt
  4

1001
AcadAnnotative
1000
AnnotativeData
1002
{
1070
     1
1070
     1
1002
}
  0
ENDTAB
  0
TABLE
  2
VIEW
  5
6
330
0
100
AcDbSymbolTable
 70
     0
  0
ENDTAB
  0
TABLE
  2
UCS
  5
7
330
0
100
AcDbSymbolTable
 70
     0
  0
ENDTAB
  0
TABLE
  2
APPID
  5
9
330
0
100
AcDbSymbolTable
 70
     4
  0
APPID
  5
56
330
9
100
AcDbSymbolTableRecord
100
AcDbRegAppTableRecord
  2
ACAD
 70
     0
  0
APPID
  5
5E
330
9
100
AcDbSymbolTableRecord
100
AcDbRegAppTableRecord
  2
AcadAnnotative
 70
     0
  0
APPID
  5
78
330
9
100
AcDbSymbolTableRecord
100
AcDbRegAppTableRecord
  2
EDIT_IN_FUSION_ACAD_ADDIN
 70
     0
  0
APPID
  5
79
330
9
100
AcDbSymbolTableRecord
100
AcDbRegAppTableRecord
  2
NFusion_SketchTransform
 70
     0
  0
ENDTAB
  0
TABLE
  2
DIMSTYLE
  5
A
330
0
100
AcDbSymbolTable
 70
     2
100
AcDbDimStyleTable
 71
     0
  0
DIMSTYLE
105
58
330
A
100
AcDbSymbolTableRecord
100
AcDbDimStyleTableRecord
  2
Standard
 70
     0
340
55
  0
DIMSTYLE
105
59
330
A
100
AcDbSymbolTableRecord
100
AcDbDimStyleTableRecord
  2
Annotative
 70
     0
340
55
1001
AcadAnnotative
1000
AnnotativeData
1002
{
1070
     1
1070
     1
1002
}
  0
ENDTAB
  0
TABLE
  2
BLOCK_RECORD
  5
1
330
0
100
AcDbSymbolTable
 70
     1
  0
BLOCK_RECORD
  5
70
330
1
100
AcDbSymbolTableRecord
100
AcDbBlockTableRecord
  2
*Model_Space
340
73
 70
     0
280
     1
281
     0
  0
BLOCK_RECORD
  5
6C
330
1
100
AcDbSymbolTableRecord
100
AcDbBlockTableRecord
  2
*Paper_Space
340
6F
 70
     0
280
     1
281
     0
  0
BLOCK_RECORD
  5
74
330
1
100
AcDbSymbolTableRecord
100
AcDbBlockTableRecord
  2
*Paper_Space0
340
77
 70
     0
280
     1
281
     0
  0
ENDTAB
  0
ENDSEC
  0
SECTION
  2
BLOCKS
  0
BLOCK
  5
71
330
70
100
AcDbEntity
  8
0
100
AcDbBlockBegin
  2
*Model_Space
 70
     0
 10
0.0
 20
0.0
 30
0.0
  3
*Model_Space
  1

  0
ENDBLK
  5
72
330
70
100
AcDbEntity
  8
0
100
AcDbBlockEnd
  0
BLOCK
  5
6D
330
6C
100
AcDbEntity
 67
     1
  8
0
100
AcDbBlockBegin
  2
*Paper_Space
 70
     0
 10
0.0
 20
0.0
 30
0.0
  3
*Paper_Space
  1

  0
ENDBLK
  5
6E
330
6C
100
AcDbEntity
 67
     1
  8
0
100
AcDbBlockEnd
  0
BLOCK
  5
75
330
74
100
AcDbEntity
 67
     1
  8
0
100
AcDbBlockBegin
  2
*Paper_Space0
 70
     0
 10
0.0
 20
0.0
 30
0.0
  3
*Paper_Space0
  1

  0
ENDBLK
  5
76
330
74
100
AcDbEntity
 67
     1
  8
0
100
AcDbBlockEnd
  0
ENDSEC
  0
SECTION
  2
ENTITIES
  0
POINT
  5
7B
330
70
100
AcDbEntity
  8
Untitled v1_Sketch1
100
AcDbPoint
 10
0.0
 20
0.0
 30
0.0
  0
LINE
  5
7C
330
70
100
AcDbEntity
  8
Untitled v1_Sketch1
100
AcDbLine
 10
17.77077872167796
 20
-23.79990185342979
 30
0.0
 11
17.93894789113824
 21
-24.08603990398508
 31
0.0
  0
LINE
  5
7D
330
70
100
AcDbEntity
  8
Untitled v1_Sketch1
100
AcDbLine
 10
19.04839867574176
 20
-25.43453293874741
 30
0.0
 11
19.21596811599697
 21
-25.33751905228387
 31
0.0
  0
SPLINE
  5
7E
330
70
100
AcDbEntity
  8
Untitled v1_Sketch1
100
AcDbSpline
210
0.0
220
0.0
230
1.0
 70
     8
 71
     2
 72
     6
 73
     3
 74
     0
 42
0.000000001
 43
0.0000000001
 40
0.0
 40
0.0
 40
0.0
 40
1.0
 40
1.0
 40
1.0
 10
11.07710648854574
 20
-12.31271178563436
 30
0.0
 10
11.14392815272013
 20
-12.42685291290283
 30
0.0
 10
11.28974531809489
 20
-12.43547883987427
 30
0.0
  0
SPLINE
  5
7F
330
70
100
AcDbEntity
  8
Untitled v1_Sketch1
100
AcDbSpline
210
0.0
220
0.0
230
1.0
 70
    12
 71
     3
 72
     8
 73
     4
 74
     0
 42
0.000000001
 43
0.0000000001
 40
0.0
 40
0.0
 40
0.0
 40
0.0
 40
1.0
 40
1.0
 40
1.0
 40
1.0
 10
30.98114198853429
 20
-23.133331801833
 30
0.0
 41
1.0
 10
30.98114198853429
 20
-23.21626985780472
 30
0.0
 41
1.0
 10
30.91407893384786
 20
-23.28333290408027
 30
0.0
 41
1.0
 10
30.83114088628701
 20
-23.28333290408027
 30
0.0
 41
1.0
  0
LINE
  5
80
330
70
100
AcDbEntity
  8
Untitled v1_Sketch1
100
AcDbLine
 10
17.60260955221767
 20
-23.51372854447626
 30
0.0
 11
17.77077872167796
 21
-23.79990185342979
 31
0.0
  0
LINE
  5
81
330
70
100
AcDbEntity
  8
Untitled v1_Sketch1
100
AcDbLine
 10
30.98114198853429
 20
-15.54804179702081
 30
0.0
 11
30.98114198853429
 21
-23.13332850229288
 31
0.0
  0
LINE
  5
82
330
70
100
AcDbEntity
  8
Untitled v1_Sketch1
100
AcDbLine
 10
19.21596811599697
 20
-25.33751905228387
 30
0.0
 11
19.38353755625217
 21
-25.24050516582033
 31
0.0
  0
LINE
  5
83
330
70
100
AcDbEntity
  8
Untitled v1_Sketch1
100
AcDbLine
 10
19.8862458770178
 20
-24.94946350642971
 30
0.0
 11
20.05381531727301
 21
-24.85244961996616
 31
0.0
  0
LINE
  5
84
330
70
100
AcDbEntity
  8
Untitled v1_Sketch1
100
AcDbLine
 10
20.05381531727301
 20
-24.85244961996616
 30
0.0
 11
20.22138475752822
 21
-24.75543573350262
 31
0.0
  0
LINE
  5
85
330
70
100
AcDbEntity
  8
Untitled v1_Sketch1
100
AcDbLine
 10
18.81548774008072
 20
-25.54324493438108
 30
0.0
 11
18.82624746438899
 21
-25.54659632419549
 31
0.0
  0
LINE
  5
86
330
70
100
AcDbEntity
  8
Untitled v1_Sketch1
100
AcDbLine
 10
26.61708343096908
 20
-23.28333290919408
 30
0.0
 11
30.83115507625816
 21
-23.28333290919408
 31
0.0
  0
LINE
  5
87
330
70
100
AcDbEntity
  8
Untitled v1_Sketch1
100
AcDbLine
 10
24.17495365142823
 20
-9.288452746073406
 30
0.0
 11
24.17495365142823
 21
-10.0822027460734
 31
0.0
  0
LINE
  5
88
330
70
100
AcDbEntity
  8
Untitled v1_Sketch1
100
AcDbLine
 10
10.95246374130249
 20
-12.10104511896769
 30
0.0
 11
11.07710648854573
 21
-12.31271178563436
 31
0.0
  0
SPLINE
  5
89
330
70
100
AcDbEntity
  8
Untitled v1_Sketch1
100
AcDbSpline
210
0.0
220
0.0
230
1.0
 70
    12
 71
     3
 72
     8
 73
     4
 74
     0
 42
0.000000001
 43
0.0000000001
 40
0.0
 40
0.0
 40
0.0
 40
0.0
 40
1.0
 40
1.0
 40
1.0
 40
1.0
 10
30.98114198853429
 20
-15.54804179702081
 30
0.0
 41
1.0
 10
30.98114198853429
 20
-15.1970631820342
 30
0.0
 41
1.0
 10
28.37764194596255
 20
-14.91304181289581
 30
0.0
 41
1.0
 10
25.16023828392532
 20
-14.91304181289581
 30
0.0
 41
1.0
  0
LINE
  5
8A
330
70
100
AcDbEntity
  8
Untitled v1_Sketch1
100
AcDbLine
 10
18.44345533223209
 20
-24.94448931404918
 30
0.0
 11
18.61162450169237
 21
-25.2306626230027
 31
0.0
  0
LINE
  5
8B
330
70
100
AcDbEntity
  8
Untitled v1_Sketch1
100
AcDbLine
 10
18.88082923548655
 20
-25.53154682521096
 30
0.0
 11
19.04839867574176
 21
-25.43453293874741
 31
0.0
  0
LINE
  5
8C
330
70
100
AcDbEntity
  8
Untitled v1_Sketch1
100
AcDbLine
 10
19.55110699650738
 20
-25.14349127935679
 30
0.0
 11
19.71867643676259
 21
-25.04647739289325
 31
0.0
  0
SPLINE
  5
8D
330
70
100
AcDbEntity
  8
Untitled v1_Sketch1
100
AcDbSpline
210
0.0
220
0.0
230
1.0
 70
    12
 71
     3
 72
     8
 73
     4
 74
     0
 42
0.000000001
 43
0.0000000001
 40
0.0
 40
0.0
 40
0.0
 40
0.0
 40
1.0
 40
1.0
 40
1.0
 40
1.0
 10
31.58057139021522
 20
-26.44563635791428
 30
0.0
 41
1.0
 10
31.58057139021522
 20
-26.3876044155935
 30
0.0
 41
1.0
 10
31.62756138964605
 20
-26.34061441616267
 30
0.0
 41
1.0
 10
31.68559333196683
 20
-26.34061441616267
 30
0.0
 41
1.0
  0
LINE
  5
8E
330
70
100
AcDbEntity
  8
Untitled v1_Sketch1
100
AcDbLine
 10
26.26707849527476
 20
-23.63333431711071
 30
0.0
 11
26.26707849527476
 21
-24.60777706137639
 31
0.0
  0
LINE
  5
8F
330
70
100
AcDbEntity
  8
Untitled v1_Sketch1
100
AcDbLine
 10
19.71867643676259
 20
-25.04647739289325
 30
0.0
 11
19.8862458770178
 21
-24.94946350642971
 31
0.0
  0
LINE
  5
90
330
70
100
AcDbEntity
  8
Untitled v1_Sketch1
100
AcDbLine
 10
20.22147295197046
 20
-24.75552392794486
 30
0.0
 11
26.11709485454735
 21
-24.75552392794486
 31
0.0
  0
LINE
  5
91
330
70
100
AcDbEntity
  8
Untitled v1_Sketch1
100
AcDbLine
 10
17.43444038275739
 20
-23.22759049392097
 30
0.0
 11
17.60260955221767
 21
-23.51372854447626
 31
0.0
  0
LINE
  5
92
330
70
100
AcDbEntity
  8
Untitled v1_Sketch1
100
AcDbLine
 10
17.93894789113824
 20
-24.08603990398508
 30
0.0
 11
18.10711706059853
 21
-24.3722132129386
 31
0.0
  0
LINE
  5
93
330
70
100
AcDbEntity
  8
Untitled v1_Sketch1
100
AcDbLine
 10
18.78934690436458
 20
-25.52863993668912
 30
0.0
 11
18.80437523833992
 21
-25.53812965740406
 31
0.0
  0
LINE
  5
94
330
70
100
AcDbEntity
  8
Untitled v1_Sketch1
100
AcDbLine
 10
10.72549923578898
 20
-11.71604520161946
 30
0.0
 11
10.85014198303222
 21
-11.92771186828613
 31
0.0
  0
LINE
  5
95
330
70
100
AcDbEntity
  8
Untitled v1_Sketch1
100
AcDbLine
 10
18.27525090437357
 20
-24.65835126349389
 30
0.0
 11
18.44345533223209
 21
-24.94448931404918
 31
0.0
  0
LINE
  5
96
330
70
100
AcDbEntity
  8
Untitled v1_Sketch1
100
AcDbLine
 10
18.77978662690151
 20
-25.51682188113464
 30
0.0
 11
18.78934690436458
 21
-25.52863993668912
 31
0.0
  0
LINE
  5
97
330
70
100
AcDbEntity
  8
Untitled v1_Sketch1
100
AcDbLine
 10
18.82624746438899
 20
-25.54659632419549
 30
0.0
 11
18.83764218471146
 21
-25.54670215826634
 31
0.0
  0
SPLINE
  5
98
330
70
100
AcDbEntity
  8
Untitled v1_Sketch1
100
AcDbSpline
210
0.0
220
0.0
230
1.0
 70
    12
 71
     3
 72
     8
 73
     4
 74
     0
 42
0.000000001
 43
0.0000000001
 40
0.0
 40
0.0
 40
0.0
 40
0.0
 40
1.0
 40
1.0
 40
1.0
 40
1.0
 10
26.26707849527476
 20
-24.60552282058378
 30
0.0
 41
1.0
 10
26.26707849527476
 20
-24.6884608765555
 30
0.0
 41
1.0
 10
26.19998016536835
 20
-24.75552392283105
 30
0.0
 41
1.0
 10
26.1170773930275
 20
-24.75552392283105
 30
0.0
 41
1.0
  0
LINE
  5
99
330
70
100
AcDbEntity
  8
Untitled v1_Sketch1
100
AcDbLine
 10
19.38353755625217
 20
-25.24050516582033
 30
0.0
 11
19.55110699650738
 21
-25.14349127935679
 31
0.0
  0
SPLINE
  5
9A
330
70
100
AcDbEntity
  8
Untitled v1_Sketch1
100
AcDbSpline
210
0.0
220
0.0
230
1.0
 70
    12
 71
     3
 72
     8
 73
     4
 74
     0
 42
0.000000001
 43
0.0000000001
 40
0.0
 40
0.0
 40
0.0
 40
0.0
 40
1.0
 40
1.0
 40
1.0
 40
1.0
 10
11.28974531809489
 20
-12.43547883987427
 30
0.0
 41
1.0
 10
11.8189111773173
 20
-12.43547803243001
 30
0.0
 41
1.0
 10
24.17495203653972
 20
-12.06657774607341
 30
0.0
 41
1.0
 10
24.17495365142823
 20
-10.0822027460734
 30
0.0
 41
1.0
  0
LINE
  5
9B
330
70
100
AcDbEntity
  8
Untitled v1_Sketch1
100
AcDbLine
 10
18.83764218471146
 20
-25.54670215826634
 30
0.0
 11
18.85002468689152
 21
-25.54564382596876
 31
0.0
  0
LINE
  5
9C
330
70
100
AcDbEntity
  8
Untitled v1_Sketch1
100
AcDbLine
 10
18.80437523833992
 20
-25.53812965740406
 30
0.0
 11
18.81548774008072
 21
-25.54324493438108
 31
0.0
  0
LINE
  5
9D
330
70
100
AcDbEntity
  8
Untitled v1_Sketch1
100
AcDbLine
 10
18.85002468689152
 20
-25.54564382596876
 30
0.0
 11
18.8627599665041
 21
-25.54151632664389
 31
0.0
  0
SPLINE
  5
9E
330
70
100
AcDbEntity
  8
Untitled v1_Sketch1
100
AcDbSpline
210
0.0
220
0.0
230
1.0
 70
    12
 71
     3
 72
     8
 73
     4
 74
     0
 42
0.000000001
 43
0.0000000001
 40
0.0
 40
0.0
 40
0.0
 40
0.0
 40
1.0
 40
1.0
 40
1.0
 40
1.0
 10
26.26707849527476
 20
-23.63333431711071
 30
0.0
 41
1.0
 10
26.26707849527476
 20
-23.43987098134697
 30
0.0
 41
1.0
 10
26.42360598422915
 20
-23.28334350921433
 30
0.0
 41
1.0
 10
26.61706930317115
 20
-23.28334350921433
 30
0.0
 41
1.0
  0
LINE
  5
9F
330
70
100
AcDbEntity
  8
Untitled v1_Sketch1
100
AcDbLine
 10
18.8627599665041
 20
-25.54151632664389
 30
0.0
 11
18.88082219123539
 21
-25.53153271605152
 31
0.0
  0
LINE
  5
A0
330
70
100
AcDbEntity
  8
Untitled v1_Sketch1
100
AcDbLine
 10
18.10711706059853
 20
-24.3722132129386
 30
0.0
 11
18.27525090437357
 21
-24.65835126349389
 31
0.0
  0
LINE
  5
A1
330
70
100
AcDbEntity
  8
Untitled v1_Sketch1
100
AcDbLine
 10
10.63593590418498
 20
-11.56387022018432
 30
0.0
 11
10.76057865142822
 21
-11.77553688685099
 31
0.0
  0
SPLINE
  5
A2
330
70
100
AcDbEntity
  8
Untitled v1_Sketch1
100
AcDbSpline
210
0.0
220
0.0
230
1.0
 70
    12
 71
     3
 72
     8
 73
     4
 74
     0
 42
0.000000001
 43
0.0000000001
 40
0.0
 40
0.0
 40
0.0
 40
0.0
 40
1.0
 40
1.0
 40
1.0
 40
1.0
 10
24.17495365142823
 20
-2.012411483128865
 30
0.0
 41
1.0
 10
24.17495365142823
 20
-0.6894948164621991
 30
0.0
 41
1.0
 10
19.62412031809489
 20
-0.8217864831288657
 30
0.0
 41
1.0
 10
14.59703698476156
 20
-0.8217864831288657
 30
0.0
 41
1.0
  0
LINE
  5
A3
330
70
100
AcDbEntity
  8
Untitled v1_Sketch1
100
AcDbLine
 10
24.17495365142823
 20
-2.435744816462199
 30
0.0
 11
24.17495365142823
 21
-2.012411483128865
 31
0.0
  0
LINE
  5
A4
330
70
100
AcDbEntity
  8
Untitled v1_Sketch1
100
AcDbLine
 10
10.82782099405924
 20
-11.88937845230102
 30
0.0
 11
10.95246374130249
 21
-12.10104511896769
 31
0.0
  0
LINE
  5
A5
330
70
100
AcDbEntity
  8
Untitled v1_Sketch1
100
AcDbLine
 10
18.61162450169237
 20
-25.2306626230027
 30
0.0
 11
18.77979373843968
 21
-25.51683593195623
 31
0.0
  0
LINE
  5
A6
330
70
100
AcDbEntity
  8
Untitled v1_Sketch1
100
AcDbLine
 10
24.17495365142823
 20
-2.435744816462199
 30
0.0
 11
24.17495365142823
 21
-9.288452746073406
 31
0.0
  0
LINE
  5
A7
330
70
100
AcDbEntity
  8
Untitled v1_Sketch1
100
AcDbLine
 10
16.72898715039371
 20
-20.1590589039676
 30
0.0
 11
16.76006687121654
 21
-20.71359027414855
 31
0.0
  0
LINE
  5
A8
330
70
100
AcDbEntity
  8
Untitled v1_Sketch1
100
AcDbLine
 10
21.48924714023224
 20
-2.168347941362049
 30
0.0
 11
21.48924714023224
 21
-3.568346431345808
 31
0.0
  0
SPLINE
  5
A9
330
70
100
AcDbEntity
  8
Untitled v1_Sketch1
100
AcDbSpline
210
0.0
220
0.0
230
1.0
 70
    12
 71
     3
 72
     8
 73
     4
 74
     0
 42
0.000000001
 43
0.0000000001
 40
0.0
 40
0.0
 40
0.0
 40
0.0
 40
1.0
 40
1.0
 40
1.0
 40
1.0
 10
18.66517529805501
 20
-25.62729555765788
 30
0.0
 41
1.0
 10
18.60040534973145
 20
-25.62729555765788
 30
0.0
 41
1.0
 10
18.54784234364828
 20
-25.67989409128825
 30
0.0
 41
1.0
 10
18.54784234364828
 20
-25.74469956715902
 30
0.0
 41
1.0
  0
SPLINE
  5
AA
330
70
100
AcDbEntity
  8
Untitled v1_Sketch1
100
AcDbSpline
210
0.0
220
0.0
230
1.0
 70
    12
 71
     3
 72
     8
 73
     4
 74
     0
 42
0.000000001
 43
0.0000000001
 40
0.0
 40
0.0
 40
0.0
 40
0.0
 40
1.0
 40
1.0
 40
1.0
 40
1.0
 10
31.29416219075521
 20
-23.67948163350424
 30
0.0
 41
1.0
 10
31.29416219075521
 20
-23.61467615763347
 30
0.0
 41
1.0
 10
31.24159756978353
 20
-23.56207762400309
 30
0.0
 41
1.0
 10
31.17675979614258
 20
-23.56207762400309
 30
0.0
 41
1.0
  0
LINE
  5
AB
330
70
100
AcDbEntity
  8
Untitled v1_Sketch1
100
AcDbLine
 10
20.08910654006323
 20
-5.458353759177006
 30
0.0
 11
20.08910654006323
 21
-4.058355269193244
 31
0.0
  0
LINE
  5
AC
330
70
100
AcDbEntity
  8
Untitled v1_Sketch1
100
AcDbLine
 10
17.3747821256361
 20
-23.11501912076549
 30
0.0
 11
17.43447210422689
 21
-23.22759057358881
 31
0.0
  0
LINE
  5
AD
330
70
100
AcDbEntity
  8
Untitled v1_Sketch1
100
AcDbLine
 10
17.05241381678001
 20
-22.25914505408691
 30
0.0
 11
17.17211130140676
 21
-22.62659825657898
 31
0.0
  0
SPLINE
  5
AE
330
70
100
AcDbEntity
  8
Untitled v1_Sketch1
100
AcDbSpline
210
0.0
220
0.0
230
1.0
 70
    12
 71
     3
 72
     8
 73
     4
 74
     0
 42
0.000000001
 43
0.0000000001
 40
0.0
 40
0.0
 40
0.0
 40
0.0
 40
1.0
 40
1.0
 40
1.0
 40
1.0
 10
31.49107200622559
 20
-15.58850747426351
 30
0.0
 41
1.0
 10
31.49107200622559
 20
-14.26559080759684
 30
0.0
 41
1.0
 10
26.94023867289226
 20
-14.39788247426351
 30
0.0
 41
1.0
 10
21.91315533955892
 20
-14.39788247426351
 30
0.0
 41
1.0
  0
LINE
  5
AF
330
70
100
AcDbEntity
  8
Untitled v1_Sketch1
100
AcDbLine
 10
20.08910654006323
 20
-4.058355269193244
 30
0.0
 11
21.4891405575933
 21
-4.058355269193244
 31
0.0
  0
LINE
  5
B0
330
70
100
AcDbEntity
  8
Untitled v1_Sketch1
100
AcDbLine
 10
18.26858451843262
 20
-25.67714070638021
 30
0.0
 11
18.39322645823161
 21
-25.88880737304688
 31
0.0
  0
SPLINE
  5
B1
330
70
100
AcDbEntity
  8
Untitled v1_Sketch1
100
AcDbSpline
210
0.0
220
0.0
230
1.0
 70
    12
 71
     3
 72
     8
 73
     4
 74
     0
 42
0.000000001
 43
0.0000000001
 40
0.0
 40
0.0
 40
0.0
 40
0.0
 40
1.0
 40
1.0
 40
1.0
 40
1.0
 10
31.17675979614258
 20
-23.79692117055258
 30
0.0
 41
1.0
 10
31.24159756978353
 20
-23.79692117055258
 30
0.0
 41
1.0
 10
31.29416219075521
 20
-23.7443226369222
 30
0.0
 41
1.0
 10
31.29416219075521
 20
-23.67948163350424
 30
0.0
 41
1.0
  0
LINE
  5
B2
330
70
100
AcDbEntity
  8
Untitled v1_Sketch1
100
AcDbLine
 10
31.49107200622559
 20
-16.01184080759684
 30
0.0
 11
31.49107200622559
 21
-15.58850747426351
 31
0.0
  0
LINE
  5
B3
330
70
100
AcDbEntity
  8
Untitled v1_Sketch1
100
AcDbLine
 10
21.4891405575933
 20
-4.058355269193244
 30
0.0
 11
21.4891405575933
 21
-5.458353759177006
 31
0.0
  0
LINE
  5
B4
330
70
100
AcDbEntity
  8
Untitled v1_Sketch1
100
AcDbLine
 10
19.57916674873457
 20
-7.408331585183418
 30
0.0
 11
19.57916674873457
 21
-8.80833007516718
 31
0.0
  0
LINE
  5
B5
330
70
100
AcDbEntity
  8
Untitled v1_Sketch1
100
AcDbLine
 10
19.5792722547812
 20
-6.898216309307827
 30
0.0
 11
18.17923823725113
 21
-6.898216309307827
 31
0.0
  0
LINE
  5
B6
330
70
100
AcDbEntity
  8
Untitled v1_Sketch1
100
AcDbLine
 10
16.93610298877678
 20
-21.81503309598364
 30
0.0
 11
17.05241381678001
 21
-22.25914505408691
 31
0.0
  0
LINE
  5
B7
330
70
100
AcDbEntity
  8
Untitled v1_Sketch1
100
AcDbLine
 10
16.22461528778076
 20
-19.55725747426351
 30
0.0
 11
16.22461528778076
 21
-19.95413247426351
 31
0.0
  0
LINE
  5
B8
330
70
100
AcDbEntity
  8
Untitled v1_Sketch1
100
AcDbLine
 10
31.49107200622559
 20
-16.01184080759684
 30
0.0
 11
31.49107200622559
 21
-22.86454914093018
 31
0.0
  0
LINE
  5
B9
330
70
100
AcDbEntity
  8
Untitled v1_Sketch1
100
AcDbLine
 10
20.08769620413386
 20
-5.978311241973425
 30
0.0
 11
21.48773022166393
 21
-5.978311241973425
 31
0.0
  0
LINE
  5
BA
330
70
100
AcDbEntity
  8
Untitled v1_Sketch1
100
AcDbLine
 10
20.08921312270217
 20
-7.878231831818071
 30
0.0
 11
21.48924714023224
 21
-7.878231831818071
 31
0.0
  0
LINE
  5
BB
330
70
100
AcDbEntity
  8
Untitled v1_Sketch1
100
AcDbLine
 10
19.57916674873457
 20
-8.80833007516718
 30
0.0
 11
18.1791327312045
 21
-8.80833007516718
 31
0.0
  0
LINE
  5
BC
330
70
100
AcDbEntity
  8
Untitled v1_Sketch1
100
AcDbLine
 10
21.4891405575933
 20
-5.458353759177006
 30
0.0
 11
20.08910654006323
 21
-5.458353759177006
 31
0.0
  0
LINE
  5
BD
330
70
100
AcDbEntity
  8
Untitled v1_Sketch1
100
AcDbLine
 10
20.08921312270217
 20
-2.168347941362049
 30
0.0
 11
21.48924714023224
 21
-2.168347941362049
 31
0.0
  0
LINE
  5
BE
330
70
100
AcDbEntity
  8
Untitled v1_Sketch1
100
AcDbLine
 10
20.08921312270217
 20
-3.568346431345808
 30
0.0
 11
20.08921312270217
 21
-2.168347941362049
 31
0.0
  0
LINE
  5
BF
330
70
100
AcDbEntity
  8
Untitled v1_Sketch1
100
AcDbLine
 10
18.17923823725113
 20
-5.498217819324065
 30
0.0
 11
19.5792722547812
 21
-5.498217819324065
 31
0.0
  0
SPLINE
  5
C0
330
70
100
AcDbEntity
  8
Untitled v1_Sketch1
100
AcDbSpline
210
0.0
220
0.0
230
1.0
 70
    12
 71
     3
 72
     8
 73
     4
 74
     0
 42
0.000000001
 43
0.0000000001
 40
0.0
 40
0.0
 40
0.0
 40
0.0
 40
1.0
 40
1.0
 40
1.0
 40
1.0
 10
31.17675979614258
 20
-15.48900450388591
 30
0.0
 41
1.0
 10
31.24159756978353
 20
-15.48900450388591
 30
0.0
 41
1.0
 10
31.29416219075521
 20
-15.43640597025554
 30
0.0
 41
1.0
 10
31.29416219075521
 20
-15.37156496683756
 30
0.0
 41
1.0
  0
LINE
  5
C1
330
70
100
AcDbEntity
  8
Untitled v1_Sketch1
100
AcDbLine
 10
16.76006687121654
 20
-20.71359027414855
 30
0.0
 11
16.83474993064123
 21
-21.29846055399175
 31
0.0
  0
LINE
  5
C2
330
70
100
AcDbEntity
  8
Untitled v1_Sketch1
100
AcDbLine
 10
21.48924714023224
 20
-9.278230321801833
 30
0.0
 11
20.08921312270217
 21
-9.278230321801833
 31
0.0
  0
LINE
  5
C3
330
70
100
AcDbEntity
  8
Untitled v1_Sketch1
100
AcDbLine
 10
19.57906124268795
 20
-4.9883114023571
 30
0.0
 11
18.17902722515787
 21
-4.9883114023571
 31
0.0
  0
LINE
  5
C4
330
70
100
AcDbEntity
  8
Untitled v1_Sketch1
100
AcDbLine
 10
18.17902722515787
 20
-4.9883114023571
 30
0.0
 11
18.17902722515787
 21
-3.588312912373338
 31
0.0
  0
LINE
  5
C5
330
70
100
AcDbEntity
  8
Untitled v1_Sketch1
100
AcDbLine
 10
18.17902722515787
 20
-3.588312912373338
 30
0.0
 11
19.57906124268795
 21
-3.588312912373338
 31
0.0
  0
LINE
  5
C6
330
70
100
AcDbEntity
  8
Untitled v1_Sketch1
100
AcDbLine
 10
17.17211130140676
 20
-22.62659825657898
 30
0.0
 11
17.28344797013467
 21
-22.91330071065409
 31
0.0
  0
SPLINE
  5
C7
330
70
100
AcDbEntity
  8
Untitled v1_Sketch1
100
AcDbSpline
210
0.0
220
0.0
230
1.0
 70
    12
 71
     3
 72
     8
 73
     4
 74
     0
 42
0.000000001
 43
0.0000000001
 40
0.0
 40
0.0
 40
0.0
 40
0.0
 40
1.0
 40
1.0
 40
1.0
 40
1.0
 10
31.17675979614258
 20
-23.56207762400309
 30
0.0
 41
1.0
 10
31.11198984781902
 20
-23.56207762400309
 30
0.0
 41
1.0
 10
31.05942522684733
 20
-23.61467615763347
 30
0.0
 41
1.0
 10
31.05942522684733
 20
-23.67948163350424
 30
0.0
 41
1.0
  0
LINE
  5
C8
330
70
100
AcDbEntity
  8
Untitled v1_Sketch1
100
AcDbLine
 10
21.48773022166393
 20
-5.978311241973425
 30
0.0
 11
21.48773022166394
 21
-7.378309731957184
 31
0.0
  0
LINE
  5
C9
330
70
100
AcDbEntity
  8
Untitled v1_Sketch1
100
AcDbLine
 10
17.28344797013467
 20
-22.91330071065409
 30
0.0
 11
17.3747821256361
 21
-23.11501912076549
 31
0.0
  0
LINE
  5
CA
330
70
100
AcDbEntity
  8
Untitled v1_Sketch1
100
AcDbLine
 10
16.22461528778076
 20
-19.55725747426351
 30
0.0
 11
16.22779500325521
 21
-14.55135663350423
 31
0.0
  0
LINE
  5
CB
330
70
100
AcDbEntity
  8
Untitled v1_Sketch1
100
AcDbLine
 10
21.48924714023224
 20
-7.878231831818071
 30
0.0
 11
21.48924714023224
 21
-9.278230321801833
 31
0.0
  0
LINE
  5
CC
330
70
100
AcDbEntity
  8
Untitled v1_Sketch1
100
AcDbLine
 10
18.1791327312045
 20
-8.80833007516718
 30
0.0
 11
18.1791327312045
 21
-7.408331585183418
 31
0.0
  0
LINE
  5
CD
330
70
100
AcDbEntity
  8
Untitled v1_Sketch1
100
AcDbLine
 10
18.04162001291911
 20
-25.29214159647624
 30
0.0
 11
18.1662619527181
 21
-25.50380826314291
 31
0.0
  0
LINE
  5
CE
330
70
100
AcDbEntity
  8
Untitled v1_Sketch1
100
AcDbLine
 10
20.08769620413386
 20
-7.378309731957184
 30
0.0
 11
20.08769620413386
 21
-5.978311241973425
 31
0.0
  0
LINE
  5
CF
330
70
100
AcDbEntity
  8
Untitled v1_Sketch1
100
AcDbLine
 10
18.1791327312045
 20
-7.408331585183418
 30
0.0
 11
19.57916674873457
 21
-7.408331585183418
 31
0.0
  0
LINE
  5
D0
330
70
100
AcDbEntity
  8
Untitled v1_Sketch1
100
AcDbLine
 10
18.17923823725113
 20
-6.898216309307827
 30
0.0
 11
18.17923823725113
 21
-5.498217819324065
 31
0.0
  0
LINE
  5
D1
330
70
100
AcDbEntity
  8
Untitled v1_Sketch1
100
AcDbLine
 10
16.83474993064123
 20
-21.29846055399175
 30
0.0
 11
16.93610298877678
 21
-21.81503309598364
 31
0.0
  0
LINE
  5
D2
330
70
100
AcDbEntity
  8
Untitled v1_Sketch1
100
AcDbLine
 10
19.5792722547812
 20
-5.498217819324065
 30
0.0
 11
19.5792722547812
 21
-6.898216309307827
 31
0.0
  0
LINE
  5
D3
330
70
100
AcDbEntity
  8
Untitled v1_Sketch1
100
AcDbLine
 10
19.57906124268795
 20
-3.588312912373338
 30
0.0
 11
19.57906124268795
 21
-4.9883114023571
 31
0.0
  0
LINE
  5
D4
330
70
100
AcDbEntity
  8
Untitled v1_Sketch1
100
AcDbLine
 10
19.57966090460601
 20
-3.088285306465825
 30
0.0
 11
18.17962688707594
 21
-3.088285306465825
 31
0.0
  0
LINE
  5
D5
330
70
100
AcDbEntity
  8
Untitled v1_Sketch1
100
AcDbLine
 10
18.17962688707594
 20
-3.088285306465825
 30
0.0
 11
18.17962688707594
 21
-1.688286816482066
 31
0.0
  0
SPLINE
  5
D6
330
70
100
AcDbEntity
  8
Untitled v1_Sketch1
100
AcDbSpline
210
0.0
220
0.0
230
1.0
 70
     8
 71
     2
 72
     6
 73
     3
 74
     0
 42
0.000000001
 43
0.0000000001
 40
0.0
 40
0.0
 40
0.0
 40
1.0
 40
1.0
 40
1.0
 10
18.39322645823161
 20
-25.88880737304688
 30
0.0
 10
18.46004892985026
 20
-26.00294930775961
 30
0.0
 10
18.60586528778076
 20
-26.01157442728679
 30
0.0
  0
LINE
  5
D7
330
70
100
AcDbEntity
  8
Untitled v1_Sketch1
100
AcDbLine
 10
25.16023828392531
 20
-14.91304181289581
 30
0.0
 11
19.72336847582986
 21
-14.91304181289581
 31
0.0
  0
SPLINE
  5
D8
330
70
100
AcDbEntity
  8
Untitled v1_Sketch1
100
AcDbSpline
210
0.0
220
0.0
230
1.0
 70
    12
 71
     3
 72
     8
 73
     4
 74
     0
 42
0.000000001
 43
0.0000000001
 40
0.0
 40
0.0
 40
0.0
 40
0.0
 40
1.0
 40
1.0
 40
1.0
 40
1.0
 10
18.78257930755615
 20
-25.74469956715902
 30
0.0
 41
1.0
 10
18.78257930755615
 20
-25.67989409128825
 30
0.0
 41
1.0
 10
18.73001630147298
 20
-25.62729555765788
 30
0.0
 41
1.0
 10
18.66517529805501
 20
-25.62729555765788
 30
0.0
 41
1.0
  0
LINE
  5
D9
330
70
100
AcDbEntity
  8
Untitled v1_Sketch1
100
AcDbLine
 10
17.9520566813151
 20
-25.13996580759684
 30
0.0
 11
18.0766986211141
 21
-25.35163247426351
 31
0.0
  0
SPLINE
  5
DA
330
70
100
AcDbEntity
  8
Untitled v1_Sketch1
100
AcDbSpline
210
0.0
220
0.0
230
1.0
 70
    12
 71
     3
 72
     8
 73
     4
 74
     0
 42
0.000000001
 43
0.0000000001
 40
0.0
 40
0.0
 40
0.0
 40
0.0
 40
1.0
 40
1.0
 40
1.0
 40
1.0
 10
31.29416219075521
 20
-15.37156496683756
 30
0.0
 41
1.0
 10
31.29416219075521
 20
-15.3067594909668
 30
0.0
 41
1.0
 10
31.24159756978353
 20
-15.25416095733643
 30
0.0
 41
1.0
 10
31.17675979614258
 20
-15.25416095733643
 30
0.0
 41
1.0
  0
LINE
  5
DB
330
70
100
AcDbEntity
  8
Untitled v1_Sketch1
100
AcDbLine
 10
18.14394257863362
 20
-25.46547403971354
 30
0.0
 11
18.26858451843262
 21
-25.67714070638021
 31
0.0
  0
LINE
  5
DC
330
70
100
AcDbEntity
  8
Untitled v1_Sketch1
100
AcDbLine
 10
21.48773022166394
 20
-7.378309731957184
 30
0.0
 11
20.08769620413386
 21
-7.378309731957184
 31
0.0
  0
SPLINE
  5
DD
330
70
100
AcDbEntity
  8
Untitled v1_Sketch1
100
AcDbSpline
210
0.0
220
0.0
230
1.0
 70
    12
 71
     3
 72
     8
 73
     4
 74
     0
 42
0.000000001
 43
0.0000000001
 40
0.0
 40
0.0
 40
0.0
 40
0.0
 40
1.0
 40
1.0
 40
1.0
 40
1.0
 10
31.17675979614258
 20
-15.25416095733643
 30
0.0
 41
1.0
 10
31.11198984781902
 20
-15.25416095733643
 30
0.0
 41
1.0
 10
31.05942522684733
 20
-15.3067594909668
 30
0.0
 41
1.0
 10
31.05942522684733
 20
-15.37156496683756
 30
0.0
 41
1.0
  0
LINE
  5
DE
330
70
100
AcDbEntity
  8
Untitled v1_Sketch1
100
AcDbLine
 10
31.49107200622559
 20
-22.86454914093018
 30
0.0
 11
31.49107200622559
 21
-23.65829914093018
 31
0.0
  0
SPLINE
  5
DF
330
70
100
AcDbEntity
  8
Untitled v1_Sketch1
100
AcDbSpline
210
0.0
220
0.0
230
1.0
 70
    12
 71
     3
 72
     8
 73
     4
 74
     0
 42
0.000000001
 43
0.0000000001
 40
0.0
 40
0.0
 40
0.0
 40
0.0
 40
1.0
 40
1.0
 40
1.0
 40
1.0
 10
31.05942522684733
 20
-23.67948163350424
 30
0.0
 41
1.0
 10
31.05942522684733
 20
-23.7443226369222
 30
0.0
 41
1.0
 10
31.11198984781902
 20
-23.79692117055258
 30
0.0
 41
1.0
 10
31.17675979614258
 20
-23.79692117055258
 30
0.0
 41
1.0
  0
SPLINE
  5
E0
330
70
100
AcDbEntity
  8
Untitled v1_Sketch1
100
AcDbSpline
210
0.0
220
0.0
230
1.0
 70
    12
 71
     3
 72
     8
 73
     4
 74
     0
 42
0.000000001
 43
0.0000000001
 40
0.0
 40
0.0
 40
0.0
 40
0.0
 40
1.0
 40
1.0
 40
1.0
 40
1.0
 10
18.60586528778076
 20
-26.01157442728679
 30
0.0
 41
1.0
 10
19.13503195444743
 20
-26.01157442728679
 30
0.0
 41
1.0
 10
31.49107200622559
 20
-25.64267414093018
 30
0.0
 41
1.0
 10
31.49107200622559
 20
-23.65829914093018
 30
0.0
 41
1.0
  0
SPLINE
  5
E1
330
70
100
AcDbEntity
  8
Untitled v1_Sketch1
100
AcDbSpline
210
0.0
220
0.0
230
1.0
 70
    12
 71
     3
 72
     8
 73
     4
 74
     0
 42
0.000000001
 43
0.0000000001
 40
0.0
 40
0.0
 40
0.0
 40
0.0
 40
1.0
 40
1.0
 40
1.0
 40
1.0
 10
16.22461528778076
 20
-19.95413247426351
 30
0.0
 41
1.0
 10
16.22461528778076
 20
-22.59996580759684
 30
0.0
 41
1.0
 10
16.86747979482015
 20
-23.26142414093018
 30
0.0
 41
1.0
 10
17.9520566813151
 20
-25.13996580759684
 30
0.0
 41
1.0
  0
SPLINE
  5
E2
330
70
100
AcDbEntity
  8
Untitled v1_Sketch1
100
AcDbSpline
210
0.0
220
0.0
230
1.0
 70
    12
 71
     3
 72
     8
 73
     4
 74
     0
 42
0.000000001
 43
0.0000000001
 40
0.0
 40
0.0
 40
0.0
 40
0.0
 40
1.0
 40
1.0
 40
1.0
 40
1.0
 10
31.05942522684733
 20
-15.37156496683756
 30
0.0
 41
1.0
 10
31.05942522684733
 20
-15.43640597025554
 30
0.0
 41
1.0
 10
31.11198984781902
 20
-15.48900450388591
 30
0.0
 41
1.0
 10
31.17675979614258
 20
-15.48900450388591
 30
0.0
 41
1.0
  0
SPLINE
  5
E3
330
70
100
AcDbEntity
  8
Untitled v1_Sketch1
100
AcDbSpline
210
0.0
220
0.0
230
1.0
 70
    12
 71
     3
 72
     8
 73
     4
 74
     0
 42
0.000000001
 43
0.0000000001
 40
0.0
 40
0.0
 40
0.0
 40
0.0
 40
1.0
 40
1.0
 40
1.0
 40
1.0
 10
18.54784234364828
 20
-25.74469956715902
 30
0.0
 41
1.0
 10
18.54784234364828
 20
-25.80954057057699
 30
0.0
 41
1.0
 10
18.60040534973145
 20
-25.86213910420736
 30
0.0
 41
1.0
 10
18.66517529805501
 20
-25.86213910420736
 30
0.0
 41
1.0
  0
LINE
  5
E4
330
70
100
AcDbEntity
  8
Untitled v1_Sketch1
100
AcDbLine
 10
21.48924714023224
 20
-3.568346431345808
 30
0.0
 11
20.08921312270217
 21
-3.568346431345808
 31
0.0
  0
LINE
  5
E5
330
70
100
AcDbEntity
  8
Untitled v1_Sketch1
100
AcDbLine
 10
20.08921312270217
 20
-9.278230321801833
 30
0.0
 11
20.08921312270217
 21
-7.878231831818071
 31
0.0
  0
SPLINE
  5
E6
330
70
100
AcDbEntity
  8
Untitled v1_Sketch1
100
AcDbSpline
210
0.0
220
0.0
230
1.0
 70
    12
 71
     3
 72
     8
 73
     4
 74
     0
 42
0.000000001
 43
0.0000000001
 40
0.0
 40
0.0
 40
0.0
 40
0.0
 40
1.0
 40
1.0
 40
1.0
 40
1.0
 10
18.66517529805501
 20
-25.86213910420736
 30
0.0
 41
1.0
 10
18.73001630147298
 20
-25.86213910420736
 30
0.0
 41
1.0
 10
18.78257930755615
 20
-25.80954057057699
 30
0.0
 41
1.0
 10
18.78257930755615
 20
-25.74469956715902
 30
0.0
 41
1.0
  0
LINE
  5
E7
330
70
100
AcDbEntity
  8
Untitled v1_Sketch1
100
AcDbLine
 10
14.81910104301563
 20
-10.92831366983197
 30
0.0
 11
13.41906702548555
 21
-10.92831366983197
 31
0.0
  0
LINE
  5
E8
330
70
100
AcDbEntity
  8
Untitled v1_Sketch1
100
AcDbLine
 10
13.86914128638946
 20
-3.328281417951816
 30
0.0
 11
12.46910726885938
 21
-3.328281417951816
 31
0.0
  0
LINE
  5
E9
330
70
100
AcDbEntity
  8
Untitled v1_Sketch1
100
AcDbLine
 10
15.31912811062698
 20
-9.303278318544341
 30
0.0
 11
16.71916212815706
 21
-9.303278318544341
 31
0.0
  0
LINE
  5
EA
330
70
100
AcDbEntity
  8
Untitled v1_Sketch1
100
AcDbLine
 10
17.67924669718608
 20
-6.768217787574068
 30
0.0
 11
16.27921267965601
 21
-6.768217787574068
 31
0.0
  0
LINE
  5
EB
330
70
100
AcDbEntity
  8
Untitled v1_Sketch1
100
AcDbLine
 10
16.27921267965601
 20
-6.768217787574068
 30
0.0
 11
16.27921267965601
 21
-5.368219297590306
 31
0.0
  0
LINE
  5
EC
330
70
100
AcDbEntity
  8
Untitled v1_Sketch1
100
AcDbLine
 10
16.27910717360938
 20
-7.268243240296955
 30
0.0
 11
17.67914119113946
 21
-7.268243240296955
 31
0.0
  0
LINE
  5
ED
330
70
100
AcDbEntity
  8
Untitled v1_Sketch1
100
AcDbLine
 10
14.36923887079728
 20
-8.808295624213178
 30
0.0
 11
14.36923887079728
 21
-7.408297134229419
 31
0.0
  0
LINE
  5
EE
330
70
100
AcDbEntity
  8
Untitled v1_Sketch1
100
AcDbLine
 10
15.76927288832736
 20
-6.898461772355076
 30
0.0
 11
14.36923887079728
 21
-6.898461772355076
 31
0.0
  0
LINE
  5
EF
330
70
100
AcDbEntity
  8
Untitled v1_Sketch1
100
AcDbLine
 10
14.81910104301563
 20
-9.528279652301902
 30
0.0
 11
14.81910104301563
 21
-10.92831366983197
 31
0.0
  0
LINE
  5
F0
330
70
100
AcDbEntity
  8
Untitled v1_Sketch1
100
AcDbLine
 10
18.17962688707594
 20
-1.688286816482066
 30
0.0
 11
19.57966090460601
 21
-1.688286816482066
 31
0.0
  0
LINE
  5
F1
330
70
100
AcDbEntity
  8
Untitled v1_Sketch1
100
AcDbLine
 10
16.27215723193607
 20
-2.949327383507482
 30
0.0
 11
16.27215723193607
 21
-1.54932889352372
 31
0.0
  0
LINE
  5
F2
330
70
100
AcDbEntity
  8
Untitled v1_Sketch1
100
AcDbLine
 10
16.71916212815706
 20
-9.303278318544341
 30
0.0
 11
16.71916212815706
 21
-10.7032768085281
 31
0.0
  0
LINE
  5
F3
330
70
100
AcDbEntity
  8
Untitled v1_Sketch1
100
AcDbLine
 10
14.3691328264545
 20
-4.998330170417177
 30
0.0
 11
14.3691328264545
 21
-3.598331680433418
 31
0.0
  0
LINE
  5
F4
330
70
100
AcDbEntity
  8
Untitled v1_Sketch1
100
AcDbLine
 10
14.3691328264545
 20
-3.598331680433418
 30
0.0
 11
15.76916684398457
 21
-3.598331680433418
 31
0.0
  0
LINE
  5
F5
330
70
100
AcDbEntity
  8
Untitled v1_Sketch1
100
AcDbLine
 10
15.76916684398457
 20
-1.688286816482066
 30
0.0
 11
15.76916684398457
 21
-3.088285306465825
 31
0.0
  0
LINE
  5
F6
330
70
100
AcDbEntity
  8
Untitled v1_Sketch1
100
AcDbLine
 10
15.76927288832736
 20
-5.498463282371314
 30
0.0
 11
15.76927288832736
 21
-6.898461772355076
 31
0.0
  0
LINE
  5
F7
330
70
100
AcDbEntity
  8
Untitled v1_Sketch1
100
AcDbLine
 10
13.86914128638946
 20
-1.928282927968057
 30
0.0
 11
13.86914128638946
 21
-3.328281417951816
 31
0.0
  0
LINE
  5
F8
330
70
100
AcDbEntity
  8
Untitled v1_Sketch1
100
AcDbLine
 10
12.46921304405409
 20
-3.838433297966034
 30
0.0
 11
13.86924679243608
 21
-3.838433297966034
 31
0.0
  0
LINE
  5
F9
330
70
100
AcDbEntity
  8
Untitled v1_Sketch1
100
AcDbLine
 10
13.86914128638946
 20
-7.13813921251657
 30
0.0
 11
12.46910726885938
 21
-7.13813921251657
 31
0.0
  0
LINE
  5
FA
330
70
100
AcDbEntity
  8
Untitled v1_Sketch1
100
AcDbLine
 10
14.36923887079728
 20
-6.898461772355076
 30
0.0
 11
14.36923887079728
 21
-5.498463282371314
 31
0.0
  0
LINE
  5
FB
330
70
100
AcDbEntity
  8
Untitled v1_Sketch1
100
AcDbLine
 10
12.46910726885938
 20
-5.738140722532808
 30
0.0
 11
13.86914128638946
 21
-5.738140722532808
 31
0.0
  0
LINE
  5
FC
330
70
100
AcDbEntity
  8
Untitled v1_Sketch1
100
AcDbLine
 10
13.86914128638946
 20
-5.738140722532808
 30
0.0
 11
13.86914128638946
 21
-7.13813921251657
 31
0.0
  0
LINE
  5
FD
330
70
100
AcDbEntity
  8
Untitled v1_Sketch1
100
AcDbLine
 10
13.86914128638946
 20
-9.038447375593715
 30
0.0
 11
12.46910726885938
 21
-9.038447375593715
 31
0.0
  0
LINE
  5
FE
330
70
100
AcDbEntity
  8
Untitled v1_Sketch1
100
AcDbLine
 10
13.86914128638946
 20
-7.638448885609956
 30
0.0
 11
13.86914128638946
 21
-9.038447375593715
 31
0.0
  0
LINE
  5
FF
330
70
100
AcDbEntity
  8
Untitled v1_Sketch1
100
AcDbLine
 10
16.71916212815706
 20
-10.7032768085281
 30
0.0
 11
15.31912811062698
 21
-10.7032768085281
 31
0.0
  0
LINE
  5
100
330
70
100
AcDbEntity
  8
Untitled v1_Sketch1
100
AcDbLine
 10
12.57541326577449
 20
-10.58447500531867
 30
0.0
 11
11.36295136994366
 21
-11.28449194679669
 31
0.0
  0
LINE
  5
101
330
70
100
AcDbEntity
  8
Untitled v1_Sketch1
100
AcDbLine
 10
15.76916684398457
 20
-3.088285306465825
 30
0.0
 11
14.3691328264545
 21
-3.088285306465825
 31
0.0
  0
LINE
  5
102
330
70
100
AcDbEntity
  8
Untitled v1_Sketch1
100
AcDbLine
 10
16.27921267965601
 20
-3.458350994778203
 30
0.0
 11
17.67924669718608
 21
-3.458350994778203
 31
0.0
  0
LINE
  5
103
330
70
100
AcDbEntity
  8
Untitled v1_Sketch1
100
AcDbLine
 10
14.3691328264545
 20
-3.088285306465825
 30
0.0
 11
14.3691328264545
 21
-1.688286816482066
 31
0.0
  0
LINE
  5
104
330
70
100
AcDbEntity
  8
Untitled v1_Sketch1
100
AcDbLine
 10
14.3691328264545
 20
-1.688286816482066
 30
0.0
 11
15.76916684398457
 21
-1.688286816482066
 31
0.0
  0
LINE
  5
105
330
70
100
AcDbEntity
  8
Untitled v1_Sketch1
100
AcDbLine
 10
12.46910726885938
 20
-3.328281417951816
 30
0.0
 11
12.46910726885938
 21
-1.928282927968057
 31
0.0
  0
LINE
  5
106
330
70
100
AcDbEntity
  8
Untitled v1_Sketch1
100
AcDbLine
 10
11.36295136994366
 20
-11.28449194679669
 30
0.0
 11
10.6629697541509
 21
-10.0720653093641
 31
0.0
  0
LINE
  5
107
330
70
100
AcDbEntity
  8
Untitled v1_Sketch1
100
AcDbLine
 10
10.6629697541509
 20
-10.0720653093641
 30
0.0
 11
11.87539639158349
 21
-9.372048367886085
 31
0.0
  0
LINE
  5
108
330
70
100
AcDbEntity
  8
Untitled v1_Sketch1
100
AcDbLine
 10
11.87539639158349
 20
-9.372048367886085
 30
0.0
 11
12.57541326577449
 21
-10.58447500531867
 31
0.0
  0
LINE
  5
109
330
70
100
AcDbEntity
  8
Untitled v1_Sketch1
100
AcDbLine
 10
17.67914119113946
 20
-8.668241730280717
 30
0.0
 11
16.27910717360938
 21
-8.668241730280717
 31
0.0
  0
LINE
  5
10A
330
70
100
AcDbEntity
  8
Untitled v1_Sketch1
100
AcDbLine
 10
12.46910726885938
 20
-7.638448885609957
 30
0.0
 11
13.86914128638946
 21
-7.638448885609956
 31
0.0
  0
LINE
  5
10B
330
70
100
AcDbEntity
  8
Untitled v1_Sketch1
100
AcDbLine
 10
11.95436910559394
 20
-8.078327279018377
 30
0.0
 11
10.55916831467677
 21
-8.078327279018377
 31
0.0
  0
LINE
  5
10C
330
70
100
AcDbEntity
  8
Untitled v1_Sketch1
100
AcDbLine
 10
14.36923887079728
 20
-7.408297134229419
 30
0.0
 11
15.76927288832736
 21
-7.408297134229419
 31
0.0
  0
LINE
  5
10D
330
70
100
AcDbEntity
  8
Untitled v1_Sketch1
100
AcDbLine
 10
17.67219124946615
 20
-2.949327383507482
 30
0.0
 11
16.27215723193607
 21
-2.949327383507482
 31
0.0
  0
LINE
  5
10E
330
70
100
AcDbEntity
  8
Untitled v1_Sketch1
100
AcDbLine
 10
17.67219124946614
 20
-1.54932889352372
 30
0.0
 11
17.67219124946615
 21
-2.949327383507482
 31
0.0
  0
LINE
  5
10F
330
70
100
AcDbEntity
  8
Untitled v1_Sketch1
100
AcDbLine
 10
15.76927288832736
 20
-8.808295624213178
 30
0.0
 11
14.36923887079728
 21
-8.808295624213178
 31
0.0
  0
LINE
  5
110
330
70
100
AcDbEntity
  8
Untitled v1_Sketch1
100
AcDbLine
 10
14.36923887079728
 20
-5.498463282371314
 30
0.0
 11
15.76927288832736
 21
-5.498463282371314
 31
0.0
  0
LINE
  5
111
330
70
100
AcDbEntity
  8
Untitled v1_Sketch1
100
AcDbLine
 10
15.76916684398457
 20
-4.998330170417177
 30
0.0
 11
14.3691328264545
 21
-4.998330170417177
 31
0.0
  0
LINE
  5
112
330
70
100
AcDbEntity
  8
Untitled v1_Sketch1
100
AcDbLine
 10
16.27921267965601
 20
-5.368219297590306
 30
0.0
 11
17.67924669718608
 21
-5.368219297590306
 31
0.0
  0
LINE
  5
113
330
70
100
AcDbEntity
  8
Untitled v1_Sketch1
100
AcDbLine
 10
13.86924679243608
 20
-5.238431787949793
 30
0.0
 11
12.46921304405409
 21
-5.238431787949793
 31
0.0
  0
LINE
  5
114
330
70
100
AcDbEntity
  8
Untitled v1_Sketch1
100
AcDbLine
 10
12.46910726885938
 20
-7.13813921251657
 30
0.0
 11
12.46910726885938
 21
-5.738140722532808
 31
0.0
  0
LINE
  5
115
330
70
100
AcDbEntity
  8
Untitled v1_Sketch1
100
AcDbLine
 10
16.27910717360938
 20
-8.668241730280717
 30
0.0
 11
16.27910717360938
 21
-7.268243240296955
 31
0.0
  0
LINE
  5
116
330
70
100
AcDbEntity
  8
Untitled v1_Sketch1
100
AcDbLine
 10
10.55916831467677
 20
-8.078327279018377
 30
0.0
 11
10.55916831467677
 21
-6.678328789034615
 31
0.0
  0
LINE
  5
117
330
70
100
AcDbEntity
  8
Untitled v1_Sketch1
100
AcDbLine
 10
17.67924669718608
 20
-3.458350994778203
 30
0.0
 11
17.67924669718608
 21
-4.858383935715964
 31
0.0
  0
LINE
  5
118
330
70
100
AcDbEntity
  8
Untitled v1_Sketch1
100
AcDbLine
 10
17.67924669718608
 20
-5.368219297590306
 30
0.0
 11
17.67924669718608
 21
-6.768217787574068
 31
0.0
  0
LINE
  5
119
330
70
100
AcDbEntity
  8
Untitled v1_Sketch1
100
AcDbLine
 10
15.76916684398457
 20
-3.598331680433418
 30
0.0
 11
15.76916684398457
 21
-4.998330170417177
 31
0.0
  0
LINE
  5
11A
330
70
100
AcDbEntity
  8
Untitled v1_Sketch1
100
AcDbLine
 10
17.67914119113946
 20
-7.268243240296955
 30
0.0
 11
17.67914119113946
 21
-8.668241730280717
 31
0.0
  0
LINE
  5
11B
330
70
100
AcDbEntity
  8
Untitled v1_Sketch1
100
AcDbLine
 10
19.57966090460601
 20
-1.688286816482066
 30
0.0
 11
19.57966090460601
 21
-3.088285306465825
 31
0.0
  0
LINE
  5
11C
330
70
100
AcDbEntity
  8
Untitled v1_Sketch1
100
AcDbLine
 10
16.27215723193607
 20
-1.54932889352372
 30
0.0
 11
17.67219124946614
 21
-1.54932889352372
 31
0.0
  0
LINE
  5
11D
330
70
100
AcDbEntity
  8
Untitled v1_Sketch1
100
AcDbLine
 10
15.76927288832736
 20
-7.408297134229419
 30
0.0
 11
15.76927288832736
 21
-8.808295624213178
 31
0.0
  0
LINE
  5
11E
330
70
100
AcDbEntity
  8
Untitled v1_Sketch1
100
AcDbLine
 10
12.46910726885938
 20
-1.928282927968057
 30
0.0
 11
13.86914128638946
 21
-1.928282927968057
 31
0.0
  0
LINE
  5
11F
330
70
100
AcDbEntity
  8
Untitled v1_Sketch1
100
AcDbLine
 10
12.46921304405409
 20
-5.238431787949793
 30
0.0
 11
12.46921304405409
 21
-3.838433297966034
 31
0.0
  0
LINE
  5
120
330
70
100
AcDbEntity
  8
Untitled v1_Sketch1
100
AcDbLine
 10
16.27921267965601
 20
-4.858383935715964
 30
0.0
 11
16.27921267965601
 21
-3.458350994778203
 31
0.0
  0
LINE
  5
121
330
70
100
AcDbEntity
  8
Untitled v1_Sketch1
100
AcDbLine
 10
13.86924679243608
 20
-3.838433297966034
 30
0.0
 11
13.86924679243608
 21
-5.238431787949793
 31
0.0
  0
LINE
  5
122
330
70
100
AcDbEntity
  8
Untitled v1_Sketch1
100
AcDbLine
 10
17.67924669718608
 20
-4.858383935715964
 30
0.0
 11
16.27921267965601
 21
-4.858383935715964
 31
0.0
  0
LINE
  5
123
330
70
100
AcDbEntity
  8
Untitled v1_Sketch1
100
AcDbLine
 10
15.31912811062698
 20
-10.7032768085281
 30
0.0
 11
15.31912811062698
 21
-9.303278318544341
 31
0.0
  0
LINE
  5
124
330
70
100
AcDbEntity
  8
Untitled v1_Sketch1
100
AcDbLine
 10
13.41906702548555
 20
-9.528279652301904
 30
0.0
 11
14.81910104301563
 21
-9.528279652301902
 31
0.0
  0
LINE
  5
125
330
70
100
AcDbEntity
  8
Untitled v1_Sketch1
100
AcDbLine
 10
12.46910726885938
 20
-9.038447375593715
 30
0.0
 11
12.46910726885938
 21
-7.638448885609957
 31
0.0
  0
LINE
  5
126
330
70
100
AcDbEntity
  8
Untitled v1_Sketch1
100
AcDbLine
 10
13.41906702548555
 20
-10.92831366983197
 30
0.0
 11
13.41906702548555
 21
-9.528279652301904
 31
0.0
  0
LINE
  5
127
330
70
100
AcDbEntity
  8
Untitled v1_Sketch1
100
AcDbLine
 10
10.55916831467677
 20
-6.678328789034615
 30
0.0
 11
11.95436910559394
 21
-6.678328789034616
 31
0.0
  0
LINE
  5
128
330
70
100
AcDbEntity
  8
Untitled v1_Sketch1
100
AcDbLine
 10
23.3892377085772
 20
-7.528453449042351
 30
0.0
 11
21.98920369104713
 21
-7.528453449042351
 31
0.0
  0
SPLINE
  5
129
330
70
100
AcDbEntity
  8
Untitled v1_Sketch1
100
AcDbSpline
210
0.0
220
0.0
230
1.0
 70
    12
 71
     3
 72
     8
 73
     4
 74
     0
 42
0.000000001
 43
0.0000000001
 40
0.0
 40
0.0
 40
0.0
 40
0.0
 40
1.0
 40
1.0
 40
1.0
 40
1.0
 10
11.34905532836914
 20
-12.28604351679484
 30
0.0
 41
1.0
 10
11.41389633178711
 20
-12.28604351679484
 30
0.0
 41
1.0
 10
11.46645933787028
 20
-12.23344498316447
 30
0.0
 41
1.0
 10
11.46645933787028
 20
-12.1686039797465
 30
0.0
 41
1.0
  0
SPLINE
  5
12A
330
70
100
AcDbEntity
  8
Untitled v1_Sketch1
100
AcDbSpline
210
0.0
220
0.0
230
1.0
 70
    12
 71
     3
 72
     8
 73
     4
 74
     0
 42
0.000000001
 43
0.0000000001
 40
0.0
 40
0.0
 40
0.0
 40
0.0
 40
1.0
 40
1.0
 40
1.0
 40
1.0
 10
23.86063659667969
 20
-10.22082639058431
 30
0.0
 41
1.0
 10
23.92547598520915
 20
-10.22082639058431
 30
0.0
 41
1.0
 10
23.97804060618083
 20
-10.16822785695394
 30
0.0
 41
1.0
 10
23.97804060618083
 20
-10.10338685353597
 30
0.0
 41
1.0
  0
SPLINE
  5
12B
330
70
100
AcDbEntity
  8
Untitled v1_Sketch1
100
AcDbSpline
210
0.0
220
0.0
230
1.0
 70
    12
 71
     3
 72
     8
 73
     4
 74
     0
 42
0.000000001
 43
0.0000000001
 40
0.0
 40
0.0
 40
0.0
 40
0.0
 40
1.0
 40
1.0
 40
1.0
 40
1.0
 10
8.908494510650635
 20
-6.510328149795532
 30
0.0
 41
1.0
 10
8.934952843983969
 20
-9.023869412740072
 30
0.0
 41
1.0
 10
9.551359017690023
 20
-9.685327746073406
 30
0.0
 41
1.0
 10
10.63593590418498
 20
-11.56387022018432
 30
0.0
 41
1.0
  0
SPLINE
  5
12C
330
70
100
AcDbEntity
  8
Untitled v1_Sketch1
100
AcDbSpline
210
0.0
220
0.0
230
1.0
 70
    12
 71
     3
 72
     8
 73
     4
 74
     0
 42
0.000000001
 43
0.0000000001
 40
0.0
 40
0.0
 40
0.0
 40
0.0
 40
1.0
 40
1.0
 40
1.0
 40
1.0
 10
23.86063659667969
 20
-1.912909118334452
 30
0.0
 41
1.0
 10
23.92547598520915
 20
-1.912909118334452
 30
0.0
 41
1.0
 10
23.97804060618083
 20
-1.860310180981954
 30
0.0
 41
1.0
 10
23.97804060618083
 20
-1.795469581286112
 30
0.0
 41
1.0
  0
SPLINE
  5
12D
330
70
100
AcDbEntity
  8
Untitled v1_Sketch1
100
AcDbSpline
210
0.0
220
0.0
230
1.0
 70
    12
 71
     3
 72
     8
 73
     4
 74
     0
 42
0.000000001
 43
0.0000000001
 40
0.0
 40
0.0
 40
0.0
 40
0.0
 40
1.0
 40
1.0
 40
1.0
 40
1.0
 10
11.96731964208794
 20
-6.362737583084335
 30
0.0
 41
1.0
 10
12.08888686476991
 20
-6.362737583084335
 30
0.0
 41
1.0
 10
12.18727658574355
 20
-6.2643125868907
 30
0.0
 41
1.0
 10
12.18727658574355
 20
-6.142745364208733
 30
0.0
 41
1.0
  0
LINE
  5
12E
330
70
100
AcDbEntity
  8
Untitled v1_Sketch1
100
AcDbLine
 10
23.38905024543356
 20
-5.608209435280874
 30
0.0
 11
21.98901636247753
 21
-5.608209435280874
 31
0.0
  0
SPLINE
  5
12F
330
70
100
AcDbEntity
  8
Untitled v1_Sketch1
100
AcDbSpline
210
0.0
220
0.0
230
1.0
 70
    12
 71
     3
 72
     8
 73
     4
 74
     0
 42
0.000000001
 43
0.0000000001
 40
0.0
 40
0.0
 40
0.0
 40
0.0
 40
1.0
 40
1.0
 40
1.0
 40
1.0
 10
23.97804060618083
 20
-1.795469581286112
 30
0.0
 41
1.0
 10
23.97804060618083
 20
-1.730664307276408
 30
0.0
 41
1.0
 10
23.92547598520915
 20
-1.678065268993377
 30
0.0
 41
1.0
 10
23.86063659667969
 20
-1.678065268993377
 30
0.0
 41
1.0
  0
LINE
  5
130
330
70
100
AcDbEntity
  8
Untitled v1_Sketch1
100
AcDbLine
 10
0.5408705206712088
 20
-19.53152584075928
 30
0.0
 11
0.5408705206712088
 21
-19.92840084075928
 31
0.0
  0
LINE
  5
131
330
70
100
AcDbEntity
  8
Untitled v1_Sketch1
100
AcDbLine
 10
15.80732809702555
 20
-15.9861075592041
 30
0.0
 11
15.80732809702555
 21
-15.56277422587077
 31
0.0
  0
SPLINE
  5
132
330
70
100
AcDbEntity
  8
Untitled v1_Sketch1
100
AcDbSpline
210
0.0
220
0.0
230
1.0
 70
    12
 71
     3
 72
     8
 73
     4
 74
     0
 42
0.000000001
 43
0.0000000001
 40
0.0
 40
0.0
 40
0.0
 40
0.0
 40
1.0
 40
1.0
 40
1.0
 40
1.0
 10
11.23172156651815
 20
-12.1686039797465
 30
0.0
 41
1.0
 10
11.23172156651815
 20
-12.23344498316447
 30
0.0
 41
1.0
 10
11.28428538004557
 20
-12.28604351679484
 30
0.0
 41
1.0
 10
11.34905532836914
 20
-12.28604351679484
 30
0.0
 41
1.0
  0
LINE
  5
133
330
70
100
AcDbEntity
  8
Untitled v1_Sketch1
100
AcDbLine
 10
23.39414050996831
 20
-8.028304493810612
 30
0.0
 11
23.39414050996831
 21
-9.428302983794374
 31
0.0
  0
LINE
  5
134
330
70
100
AcDbEntity
  8
Untitled v1_Sketch1
100
AcDbLine
 10
21.98920369104713
 20
-7.528453449042351
 30
0.0
 11
21.98920369104713
 21
-6.128454959058589
 31
0.0
  0
LINE
  5
135
330
70
100
AcDbEntity
  8
Untitled v1_Sketch1
100
AcDbLine
 10
2.268311359087626
 20
-25.11423417409262
 30
0.0
 11
2.392953904469808
 21
-25.32590084075928
 31
0.0
  0
LINE
  5
136
330
70
100
AcDbEntity
  8
Untitled v1_Sketch1
100
AcDbLine
 10
21.98901636247753
 20
-3.718315426972668
 30
0.0
 11
21.98901639154552
 21
-2.3182462856184
 31
0.0
  0
SPLINE
  5
137
330
70
100
AcDbEntity
  8
Untitled v1_Sketch1
100
AcDbSpline
210
0.0
220
0.0
230
1.0
 70
    12
 71
     3
 72
     8
 73
     4
 74
     0
 42
0.000000001
 43
0.0000000001
 40
0.0
 40
0.0
 40
0.0
 40
0.0
 40
1.0
 40
1.0
 40
1.0
 40
1.0
 10
23.86063659667969
 20
-1.678065268993377
 30
0.0
 41
1.0
 10
23.79586664835612
 20
-1.678065268993377
 30
0.0
 41
1.0
 10
23.74330202738445
 20
-1.730664509137471
 30
0.0
 41
1.0
 10
23.74330202738445
 20
-1.795469581286112
 30
0.0
 41
1.0
  0
LINE
  5
138
330
70
100
AcDbEntity
  8
Untitled v1_Sketch1
100
AcDbLine
 10
23.3892377085772
 20
-6.128454959058589
 30
0.0
 11
23.3892377085772
 21
-7.528453449042351
 31
0.0
  0
LINE
  5
139
330
70
100
AcDbEntity
  8
Untitled v1_Sketch1
100
AcDbLine
 10
23.38905027450155
 20
-2.318263934196178
 30
0.0
 11
23.38905024543356
 21
-3.718333075550447
 31
0.0
  0
LINE
  5
13A
330
70
100
AcDbEntity
  8
Untitled v1_Sketch1
100
AcDbLine
 10
18.62923853109552
 20
-10.70343519678911
 30
0.0
 11
17.22916938974126
 21
-10.70343519678911
 31
0.0
  0
LINE
  5
13B
330
70
100
AcDbEntity
  8
Untitled v1_Sketch1
100
AcDbLine
 10
24.17495365142823
 20
-2.435744816462199
 30
0.0
 11
24.17495365142823
 21
-2.012411483128865
 31
0.0
  0
SPLINE
  5
13C
330
70
100
AcDbEntity
  8
Untitled v1_Sketch1
100
AcDbSpline
210
0.0
220
0.0
230
1.0
 70
     8
 71
     2
 72
     6
 73
     3
 74
     0
 42
0.000000001
 43
0.0000000001
 40
0.0
 40
0.0
 40
0.0
 40
1.0
 40
1.0
 40
1.0
 10
11.07710648854574
 20
-12.31271178563436
 30
0.0
 10
11.14392815272013
 20
-12.42685291290283
 30
0.0
 10
11.28974531809489
 20
-12.43547883987427
 30
0.0
  0
SPLINE
  5
13D
330
70
100
AcDbEntity
  8
Untitled v1_Sketch1
100
AcDbSpline
210
0.0
220
0.0
230
1.0
 70
    12
 71
     3
 72
     8
 73
     4
 74
     0
 42
0.000000001
 43
0.0000000001
 40
0.0
 40
0.0
 40
0.0
 40
0.0
 40
1.0
 40
1.0
 40
1.0
 40
1.0
 10
23.97804060618083
 20
-10.10338685353597
 30
0.0
 41
1.0
 10
23.97804060618083
 20
-10.0385813776652
 30
0.0
 41
1.0
 10
23.92547598520915
 20
-9.985982844034833
 30
0.0
 41
1.0
 10
23.86063659667969
 20
-9.985982844034833
 30
0.0
 41
1.0
  0
SPLINE
  5
13E
330
70
100
AcDbEntity
  8
Untitled v1_Sketch1
100
AcDbSpline
210
0.0
220
0.0
230
1.0
 70
    12
 71
     3
 72
     8
 73
     4
 74
     0
 42
0.000000001
 43
0.0000000001
 40
0.0
 40
0.0
 40
0.0
 40
0.0
 40
1.0
 40
1.0
 40
1.0
 40
1.0
 10
15.80732809702555
 20
-15.56277422587077
 30
0.0
 41
1.0
 10
15.80732809702555
 20
-14.2398575592041
 30
0.0
 41
1.0
 10
11.25649799346924
 20
-14.37214922587077
 30
0.0
 41
1.0
 10
6.229413045247397
 20
-14.37214922587077
 30
0.0
 41
1.0
  0
LINE
  5
13F
330
70
100
AcDbEntity
  8
Untitled v1_Sketch1
100
AcDbLine
 10
15.80732809702555
 20
-22.83881589253744
 30
0.0
 11
15.80732809702555
 21
-23.63256589253744
 31
0.0
  0
LINE
  5
140
330
70
100
AcDbEntity
  8
Untitled v1_Sketch1
100
AcDbLine
 10
10.95246374130249
 20
-12.10104511896769
 30
0.0
 11
11.07710648854573
 21
-12.31271178563436
 31
0.0
  0
LINE
  5
141
330
70
100
AcDbEntity
  8
Untitled v1_Sketch1
100
AcDbLine
 10
11.95436910559394
 20
-6.678328789034616
 30
0.0
 11
11.95436910559394
 21
-8.078327279018377
 31
0.0
  0
LINE
  5
142
330
70
100
AcDbEntity
  8
Untitled v1_Sketch1
100
AcDbLine
 10
18.62923853109552
 20
-9.303383704012626
 30
0.0
 11
18.62923853109552
 21
-10.70341758696866
 31
0.0
  0
SPLINE
  5
143
330
70
100
AcDbEntity
  8
Untitled v1_Sketch1
100
AcDbSpline
210
0.0
220
0.0
230
1.0
 70
    12
 71
     3
 72
     8
 73
     4
 74
     0
 42
0.000000001
 43
0.0000000001
 40
0.0
 40
0.0
 40
0.0
 40
0.0
 40
1.0
 40
1.0
 40
1.0
 40
1.0
 10
11.28974531809489
 20
-12.43547883987427
 30
0.0
 41
1.0
 10
11.8189111773173
 20
-12.43547803243001
 30
0.0
 41
1.0
 10
24.17495203653972
 20
-12.06657774607341
 30
0.0
 41
1.0
 10
24.17495365142823
 20
-10.0822027460734
 30
0.0
 41
1.0
  0
LINE
  5
144
330
70
100
AcDbEntity
  8
Untitled v1_Sketch1
100
AcDbLine
 10
14.59703698476156
 20
-0.8217864831288657
 30
0.0
 11
12.32162031809489
 21
-0.8217864831288657
 31
0.0
  0
SPLINE
  5
145
330
70
100
AcDbEntity
  8
Untitled v1_Sketch1
100
AcDbSpline
210
0.0
220
0.0
230
1.0
 70
    12
 71
     3
 72
     8
 73
     4
 74
     0
 42
0.000000001
 43
0.0000000001
 40
0.0
 40
0.0
 40
0.0
 40
0.0
 40
1.0
 40
1.0
 40
1.0
 40
1.0
 10
0.5408705206712088
 20
-19.92840084075928
 30
0.0
 41
1.0
 10
0.5408705206712088
 20
-22.57423417409262
 30
0.0
 41
1.0
 10
1.183734674453735
 20
-23.23569250742595
 30
0.0
 41
1.0
 10
2.268311359087626
 20
-25.11423417409262
 30
0.0
 41
1.0
  0
LINE
  5
146
330
70
100
AcDbEntity
  8
Untitled v1_Sketch1
100
AcDbLine
 10
2.584839398066203
 20
-25.65140907287598
 30
0.0
 11
2.709481943448384
 21
-25.86307573954265
 31
0.0
  0
LINE
  5
147
330
70
100
AcDbEntity
  8
Untitled v1_Sketch1
100
AcDbLine
 10
10.72549923578898
 20
-11.71604520161946
 30
0.0
 11
10.85014198303222
 21
-11.92771186828613
 31
0.0
  0
SPLINE
  5
148
330
70
100
AcDbEntity
  8
Untitled v1_Sketch1
100
AcDbSpline
210
0.0
220
0.0
230
1.0
 70
    12
 71
     3
 72
     8
 73
     4
 74
     0
 42
0.000000001
 43
0.0000000001
 40
0.0
 40
0.0
 40
0.0
 40
0.0
 40
1.0
 40
1.0
 40
1.0
 40
1.0
 10
24.17495365142823
 20
-2.012411483128865
 30
0.0
 41
1.0
 10
24.17495203653972
 20
-0.6894942108790082
 30
0.0
 41
1.0
 10
19.62412031809489
 20
-0.8217858775456747
 30
0.0
 41
1.0
 10
14.59703698476156
 20
-0.8217864831288657
 30
0.0
 41
1.0
  0
LINE
  5
149
330
70
100
AcDbEntity
  8
Untitled v1_Sketch1
100
AcDbLine
 10
10.63593590418498
 20
-11.56387022018432
 30
0.0
 11
10.76057865142822
 21
-11.77553688685099
 31
0.0
  0
LINE
  5
14A
330
70
100
AcDbEntity
  8
Untitled v1_Sketch1
100
AcDbLine
 10
15.80732809702555
 20
-15.9861075592041
 30
0.0
 11
15.80732809702555
 21
-22.83881589253744
 31
0.0
  0
SPLINE
  5
14B
330
70
100
AcDbEntity
  8
Untitled v1_Sketch1
100
AcDbSpline
210
0.0
220
0.0
230
1.0
 70
    12
 71
     3
 72
     8
 73
     4
 74
     0
 42
0.000000001
 43
0.0000000001
 40
0.0
 40
0.0
 40
0.0
 40
0.0
 40
1.0
 40
1.0
 40
1.0
 40
1.0
 10
23.86063659667969
 20
-9.985982844034833
 30
0.0
 41
1.0
 10
23.79586664835612
 20
-9.985982844034833
 30
0.0
 41
1.0
 10
23.74330202738445
 20
-10.03858218510946
 30
0.0
 41
1.0
 10
23.74330202738445
 20
-10.10338685353597
 30
0.0
 41
1.0
  0
LINE
  5
14C
330
70
100
AcDbEntity
  8
Untitled v1_Sketch1
100
AcDbLine
 10
2.460196852684021
 20
-25.43974240620932
 30
0.0
 11
2.584839398066203
 21
-25.65140907287598
 31
0.0
  0
LINE
  5
14D
330
70
100
AcDbEntity
  8
Untitled v1_Sketch1
100
AcDbLine
 10
2.35787469069163
 20
-25.2664083480835
 30
0.0
 11
2.482517236073812
 21
-25.47807501475017
 31
0.0
  0
LINE
  5
14E
330
70
100
AcDbEntity
  8
Untitled v1_Sketch1
100
AcDbLine
 10
10.82782099405924
 20
-11.88937845230102
 30
0.0
 11
10.95246374130249
 21
-12.10104511896769
 31
0.0
  0
LINE
  5
14F
330
70
100
AcDbEntity
  8
Untitled v1_Sketch1
100
AcDbLine
 10
21.99410649243823
 20
-8.028304493810612
 30
0.0
 11
23.39414050996831
 21
-8.028304493810612
 31
0.0
  0
SPLINE
  5
150
330
70
100
AcDbEntity
  8
Untitled v1_Sketch1
100
AcDbSpline
210
0.0
220
0.0
230
1.0
 70
    12
 71
     3
 72
     8
 73
     4
 74
     0
 42
0.000000001
 43
0.0000000001
 40
0.0
 40
0.0
 40
0.0
 40
0.0
 40
1.0
 40
1.0
 40
1.0
 40
1.0
 10
2.922120369275411
 20
-25.98584279378256
 30
0.0
 41
1.0
 10
3.451287237803141
 20
-25.98584279378256
 30
0.0
 41
1.0
 10
15.80732648213705
 20
-25.61694250742595
 30
0.0
 41
1.0
 10
15.80732809702555
 20
-23.63256589253744
 30
0.0
 41
1.0
  0
LINE
  5
151
330
70
100
AcDbEntity
  8
Untitled v1_Sketch1
100
AcDbLine
 10
9.632802172673102
 20
-6.362719944195887
 30
0.0
 11
11.9673091664141
 21
-6.362719944195887
 31
0.0
  0
LINE
  5
152
330
70
100
AcDbEntity
  8
Untitled v1_Sketch1
100
AcDbLine
 10
24.17495365142823
 20
-2.435744816462199
 30
0.0
 11
24.17495365142823
 21
-9.288452746073406
 31
0.0
  0
SPLINE
  5
153
330
70
100
AcDbEntity
  8
Untitled v1_Sketch1
100
AcDbSpline
210
0.0
220
0.0
230
1.0
 70
    12
 71
     3
 72
     8
 73
     4
 74
     0
 42
0.000000001
 43
0.0000000001
 40
0.0
 40
0.0
 40
0.0
 40
0.0
 40
1.0
 40
1.0
 40
1.0
 40
1.0
 10
23.74330202738445
 20
-10.10338685353597
 30
0.0
 41
1.0
 10
23.74330202738445
 20
-10.16822785695394
 30
0.0
 41
1.0
 10
23.79586664835612
 20
-10.22082639058431
 30
0.0
 41
1.0
 10
23.86063659667969
 20
-10.22082639058431
 30
0.0
 41
1.0
  0
SPLINE
  5
154
330
70
100
AcDbEntity
  8
Untitled v1_Sketch1
100
AcDbSpline
210
0.0
220
0.0
230
1.0
 70
    12
 71
     3
 72
     8
 73
     4
 74
     0
 42
0.000000001
 43
0.0000000001
 40
0.0
 40
0.0
 40
0.0
 40
0.0
 40
1.0
 40
1.0
 40
1.0
 40
1.0
 10
15.89682624646522
 20
-26.41990562874761
 30
0.0
 41
1.0
 10
15.89682624646522
 20
-26.36187368642683
 30
0.0
 41
1.0
 10
15.94381624589605
 20
-26.314883686996
 30
0.0
 41
1.0
 10
16.00184818821682
 20
-26.314883686996
 30
0.0
 41
1.0
  0
LINE
  5
155
330
70
100
AcDbEntity
  8
Untitled v1_Sketch1
100
AcDbLine
 10
17.22918703831903
 20
-10.70343519678911
 30
0.0
 11
17.22918703831903
 21
-10.26066383161947
 31
0.0
  0
LINE
  5
156
330
70
100
AcDbEntity
  8
Untitled v1_Sketch1
100
AcDbLine
 10
23.39414050996831
 20
-9.428302983794374
 30
0.0
 11
21.99410649243823
 21
-9.428302983794374
 31
0.0
  0
SPLINE
  5
157
330
70
100
AcDbEntity
  8
Untitled v1_Sketch1
100
AcDbSpline
210
0.0
220
0.0
230
1.0
 70
     8
 71
     2
 72
     6
 73
     3
 74
     0
 42
0.000000001
 43
0.0000000001
 40
0.0
 40
0.0
 40
0.0
 40
1.0
 40
1.0
 40
1.0
 10
2.709481943448384
 20
-25.86307573954265
 30
0.0
 10
2.776303809483846
 20
-25.97721767425538
 30
0.0
 10
2.922120369275411
 20
-25.98584279378256
 30
0.0
  0
LINE
  5
158
330
70
100
AcDbEntity
  8
Untitled v1_Sketch1
100
AcDbLine
 10
24.17495365142823
 20
-9.288452746073406
 30
0.0
 11
24.17495365142823
 21
-10.0822027460734
 31
0.0
  0
LINE
  5
159
330
70
100
AcDbEntity
  8
Untitled v1_Sketch1
100
AcDbLine
 10
23.38905027450155
 20
-4.208415470275723
 30
0.0
 11
23.38905024543356
 21
-5.608202409870079
 31
0.0
  0
SPLINE
  5
15A
330
70
100
AcDbEntity
  8
Untitled v1_Sketch1
100
AcDbSpline
210
0.0
220
0.0
230
1.0
 70
    12
 71
     3
 72
     8
 73
     4
 74
     0
 42
0.000000001
 43
0.0000000001
 40
0.0
 40
0.0
 40
0.0
 40
0.0
 40
1.0
 40
1.0
 40
1.0
 40
1.0
 10
11.34905532836914
 20
-12.05119997024536
 30
0.0
 41
1.0
 10
11.28428538004557
 20
-12.05119997024536
 30
0.0
 41
1.0
 10
11.23172156651815
 20
-12.10379931131999
 30
0.0
 41
1.0
 10
11.23172156651815
 20
-12.1686039797465
 30
0.0
 41
1.0
  0
LINE
  5
15B
330
70
100
AcDbEntity
  8
Untitled v1_Sketch1
100
AcDbLine
 10
0.5408705206712088
 20
-19.53152584075928
 30
0.0
 11
0.5440494791666668
 21
-14.525625
 31
0.0
  0
LINE
  5
15C
330
70
100
AcDbEntity
  8
Untitled v1_Sketch1
100
AcDbLine
 10
23.38905024543356
 20
-3.718315426972668
 30
0.0
 11
21.98901636247753
 21
-3.718315426972668
 31
0.0
  0
SPLINE
  5
15D
330
70
100
AcDbEntity
  8
Untitled v1_Sketch1
100
AcDbSpline
210
0.0
220
0.0
230
1.0
 70
    12
 71
     3
 72
     8
 73
     4
 74
     0
 42
0.000000001
 43
0.0000000001
 40
0.0
 40
0.0
 40
0.0
 40
0.0
 40
1.0
 40
1.0
 40
1.0
 40
1.0
 10
23.74330202738445
 20
-1.795469581286112
 30
0.0
 41
1.0
 10
23.74330202738445
 20
-1.860310180981954
 30
0.0
 41
1.0
 10
23.79586664835612
 20
-1.912909118334452
 30
0.0
 41
1.0
 10
23.86063659667969
 20
-1.912909118334452
 30
0.0
 41
1.0
  0
LINE
  5
15E
330
70
100
AcDbEntity
  8
Untitled v1_Sketch1
100
AcDbLine
 10
21.98901639154552
 20
-4.208415470275723
 30
0.0
 11
23.38905027450155
 21
-4.208415470275723
 31
0.0
  0
LINE
  5
15F
330
70
100
AcDbEntity
  8
Untitled v1_Sketch1
100
AcDbLine
 10
12.18727305325577
 20
-6.142731255251161
 30
0.0
 11
12.18727305325577
 21
-1.558313738500381
 31
0.0
  0
SPLINE
  5
160
330
70
100
AcDbEntity
  8
Untitled v1_Sketch1
100
AcDbSpline
210
0.0
220
0.0
230
1.0
 70
    12
 71
     3
 72
     8
 73
     4
 74
     0
 42
0.000000001
 43
0.0000000001
 40
0.0
 40
0.0
 40
0.0
 40
0.0
 40
1.0
 40
1.0
 40
1.0
 40
1.0
 10
11.46645933787028
 20
-12.1686039797465
 30
0.0
 41
1.0
 10
11.46645933787028
 20
-12.10379850387573
 30
0.0
 41
1.0
 10
11.41389552434286
 20
-12.05119997024536
 30
0.0
 41
1.0
 10
11.34905532836914
 20
-12.05119997024536
 30
0.0
 41
1.0
  0
LINE
  5
161
330
70
100
AcDbEntity
  8
Untitled v1_Sketch1
100
AcDbLine
 10
21.98901639154552
 20
-2.318263934196178
 30
0.0
 11
23.38905027450155
 21
-2.318263934196178
 31
0.0
  0
LINE
  5
162
330
70
100
AcDbEntity
  8
Untitled v1_Sketch1
100
AcDbLine
 10
17.22918703831903
 20
-10.26065323563644
 30
0.0
 11
17.22918703831903
 21
-9.303390751493562
 31
0.0
  0
LINE
  5
163
330
70
100
AcDbEntity
  8
Untitled v1_Sketch1
100
AcDbLine
 10
21.98901636247753
 20
-5.608209435280874
 30
0.0
 11
21.98901639154552
 21
-4.208422495686518
 31
0.0
  0
LINE
  5
164
330
70
100
AcDbEntity
  8
Untitled v1_Sketch1
100
AcDbLine
 10
17.22918703831903
 20
-9.303383704012626
 30
0.0
 11
18.6292561796733
 21
-9.303383704012626
 31
0.0
  0
LINE
  5
165
330
70
100
AcDbEntity
  8
Untitled v1_Sketch1
100
AcDbLine
 10
21.99410649243823
 20
-9.428302983794374
 30
0.0
 11
21.99410649243823
 21
-8.028304493810612
 31
0.0
  0
LINE
  5
166
330
70
100
AcDbEntity
  8
Untitled v1_Sketch1
100
AcDbLine
 10
21.98920369104713
 20
-6.128454959058589
 30
0.0
 11
23.3892377085772
 21
-6.128454959058589
 31
0.0
  0
SPLINE
  5
167
330
70
100
AcDbEntity
  8
Untitled v1_Sketch1
100
AcDbSpline
210
0.0
220
0.0
230
1.0
 70
    12
 71
     3
 72
     8
 73
     4
 74
     0
 42
0.000000001
 43
0.0000000001
 40
0.0
 40
0.0
 40
0.0
 40
0.0
 40
1.0
 40
1.0
 40
1.0
 40
1.0
 10
9.745484765370688
 20
-6.235312636693319
 30
0.0
 41
1.0
 10
9.810325768788656
 20
-6.235312636693319
 30
0.0
 41
1.0
 10
9.862888774871827
 20
-6.182748823165894
 30
0.0
 41
1.0
 10
9.862888774871827
 20
-6.117907819747925
 30
0.0
 41
1.0
  0
SPLINE
  5
168
330
70
100
AcDbEntity
  8
Untitled v1_Sketch1
100
AcDbSpline
210
0.0
220
0.0
230
1.0
 70
    12
 71
     3
 72
     8
 73
     4
 74
     0
 42
0.000000001
 43
0.0000000001
 40
0.0
 40
0.0
 40
0.0
 40
0.0
 40
1.0
 40
1.0
 40
1.0
 40
1.0
 10
9.631174074808757
 20
-1.333567966620127
 30
0.0
 41
1.0
 10
9.50957135518392
 20
-1.333567966620127
 30
0.0
 41
1.0
 10
9.411217377980552
 20
-1.431957774162292
 30
0.0
 41
1.0
 10
9.411217377980552
 20
-1.553560291926066
 30
0.0
 41
1.0
  0
SPLINE
  5
169
330
70
100
AcDbEntity
  8
Untitled v1_Sketch1
100
AcDbSpline
210
0.0
220
0.0
230
1.0
 70
    12
 71
     3
 72
     8
 73
     4
 74
     0
 42
0.000000001
 43
0.0000000001
 40
0.0
 40
0.0
 40
0.0
 40
0.0
 40
1.0
 40
1.0
 40
1.0
 40
1.0
 10
5.712318477630615
 20
-21.06034725189209
 30
0.0
 41
1.0
 10
5.777159884770711
 20
-21.06034725189209
 30
0.0
 41
1.0
 10
5.829724505742391
 20
-21.00774871826172
 30
0.0
 41
1.0
 10
5.829724505742391
 20
-20.94290771484375
 30
0.0
 41
1.0
  0
SPLINE
  5
16A
330
70
100
AcDbEntity
  8
Untitled v1_Sketch1
100
AcDbSpline
210
0.0
220
0.0
230
1.0
 70
    12
 71
     3
 72
     8
 73
     4
 74
     0
 42
0.000000001
 43
0.0000000001
 40
0.0
 40
0.0
 40
0.0
 40
0.0
 40
1.0
 40
1.0
 40
1.0
 40
1.0
 10
13.33230313618978
 20
-21.30034875233969
 30
0.0
 41
1.0
 10
13.39714171727498
 20
-21.30034875233969
 30
0.0
 41
1.0
 10
13.44970633824666
 20
-21.24775021870931
 30
0.0
 41
1.0
 10
13.44970633824666
 20
-21.18290921529134
 30
0.0
 41
1.0
  0
LINE
  5
16B
330
70
100
AcDbEntity
  8
Untitled v1_Sketch1
100
AcDbLine
 10
6.229413045247397
 20
-14.37214922587077
 30
0.0
 11
0.661458333333334
 21
-14.37214922587077
 31
0.0
  0
SPLINE
  5
16C
330
70
100
AcDbEntity
  8
Untitled v1_Sketch1
100
AcDbSpline
210
0.0
220
0.0
230
1.0
 70
    12
 71
     3
 72
     8
 73
     4
 74
     0
 42
0.000000001
 43
0.0000000001
 40
0.0
 40
0.0
 40
0.0
 40
0.0
 40
1.0
 40
1.0
 40
1.0
 40
1.0
 10
13.44970633824666
 20
-17.36290175120036
 30
0.0
 41
1.0
 10
13.44970633824666
 20
-17.29809627532959
 30
0.0
 41
1.0
 10
13.39714171727498
 20
-17.24549774169922
 30
0.0
 41
1.0
 10
13.33230313618978
 20
-17.24549774169922
 30
0.0
 41
1.0
  0
SPLINE
  5
16D
330
70
100
AcDbEntity
  8
Untitled v1_Sketch1
100
AcDbSpline
210
0.0
220
0.0
230
1.0
 70
    12
 71
     3
 72
     8
 73
     4
 74
     0
 42
0.000000001
 43
0.0000000001
 40
0.0
 40
0.0
 40
0.0
 40
0.0
 40
1.0
 40
1.0
 40
1.0
 40
1.0
 10
5.829724505742391
 20
-20.94290771484375
 30
0.0
 41
1.0
 10
5.829724505742391
 20
-20.87810223897299
 30
0.0
 41
1.0
 10
5.777159884770711
 20
-20.82550370534261
 30
0.0
 41
1.0
 10
5.712318477630615
 20
-20.82550370534261
 30
0.0
 41
1.0
  0
SPLINE
  5
16E
330
70
100
AcDbEntity
  8
Untitled v1_Sketch1
100
AcDbSpline
210
0.0
220
0.0
230
1.0
 70
    12
 71
     3
 72
     8
 73
     4
 74
     0
 42
0.000000001
 43
0.0000000001
 40
0.0
 40
0.0
 40
0.0
 40
0.0
 40
1.0
 40
1.0
 40
1.0
 40
1.0
 10
13.33230313618978
 20
-17.24549774169922
 30
0.0
 41
1.0
 10
13.26753318786621
 20
-17.24549774169922
 30
0.0
 41
1.0
 10
13.21496856689453
 20
-17.29809627532959
 30
0.0
 41
1.0
 10
13.21496856689453
 20
-17.36290175120036
 30
0.0
 41
1.0
  0
SPLINE
  5
16F
330
70
100
AcDbEntity
  8
Untitled v1_Sketch1
100
AcDbSpline
210
0.0
220
0.0
230
1.0
 70
    12
 71
     3
 72
     8
 73
     4
 74
     0
 42
0.000000001
 43
0.0000000001
 40
0.0
 40
0.0
 40
0.0
 40
0.0
 40
1.0
 40
1.0
 40
1.0
 40
1.0
 10
5.829724505742391
 20
-17.14291679382324
 30
0.0
 41
1.0
 10
5.829724505742391
 20
-17.07811131795248
 30
0.0
 41
1.0
 10
5.777159884770711
 20
-17.02551278432211
 30
0.0
 41
1.0
 10
5.712318477630615
 20
-17.02551278432211
 30
0.0
 41
1.0
  0
LINE
  5
170
330
70
100
AcDbEntity
  8
Untitled v1_Sketch1
100
AcDbLine
 10
9.41120284398397
 20
-6.13938866297404
 30
0.0
 11
9.41120284398397
 21
-1.553524764378865
 31
0.0
  0
SPLINE
  5
171
330
70
100
AcDbEntity
  8
Untitled v1_Sketch1
100
AcDbSpline
210
0.0
220
0.0
230
1.0
 70
    12
 71
     3
 72
     8
 73
     4
 74
     0
 42
0.000000001
 43
0.0000000001
 40
0.0
 40
0.0
 40
0.0
 40
0.0
 40
1.0
 40
1.0
 40
1.0
 40
1.0
 10
13.21496856689453
 20
-17.36290175120036
 30
0.0
 41
1.0
 10
13.21496856689453
 20
-17.42774275461833
 30
0.0
 41
1.0
 10
13.26753318786621
 20
-17.4803412882487
 30
0.0
 41
1.0
 10
13.33230313618978
 20
-17.4803412882487
 30
0.0
 41
1.0
  0
SPLINE
  5
172
330
70
100
AcDbEntity
  8
Untitled v1_Sketch1
100
AcDbSpline
210
0.0
220
0.0
230
1.0
 70
    12
 71
     3
 72
     8
 73
     4
 74
     0
 42
0.000000001
 43
0.0000000001
 40
0.0
 40
0.0
 40
0.0
 40
0.0
 40
1.0
 40
1.0
 40
1.0
 40
1.0
 10
13.33230313618978
 20
-17.4803412882487
 30
0.0
 41
1.0
 10
13.39714171727498
 20
-17.4803412882487
 30
0.0
 41
1.0
 10
13.44970633824666
 20
-17.42774275461833
 30
0.0
 41
1.0
 10
13.44970633824666
 20
-17.36290175120036
 30
0.0
 41
1.0
  0
SPLINE
  5
173
330
70
100
AcDbEntity
  8
Untitled v1_Sketch1
100
AcDbSpline
210
0.0
220
0.0
230
1.0
 70
    12
 71
     3
 72
     8
 73
     4
 74
     0
 42
0.000000001
 43
0.0000000001
 40
0.0
 40
0.0
 40
0.0
 40
0.0
 40
1.0
 40
1.0
 40
1.0
 40
1.0
 10
3.134999009768168
 20
-22.66290447235108
 30
0.0
 41
1.0
 10
3.134999009768168
 20
-22.72774547576905
 30
0.0
 41
1.0
 10
3.187563832600912
 20
-22.78034400939942
 30
0.0
 41
1.0
 10
3.252333780924479
 20
-22.78034400939942
 30
0.0
 41
1.0
  0
SPLINE
  5
174
330
70
100
AcDbEntity
  8
Untitled v1_Sketch1
100
AcDbSpline
210
0.0
220
0.0
230
1.0
 70
    12
 71
     3
 72
     8
 73
     4
 74
     0
 42
0.000000001
 43
0.0000000001
 40
0.0
 40
0.0
 40
0.0
 40
0.0
 40
1.0
 40
1.0
 40
1.0
 40
1.0
 10
3.252333780924479
 20
-22.78034400939942
 30
0.0
 41
1.0
 10
3.317172563870748
 20
-22.78034400939942
 30
0.0
 41
1.0
 10
3.369737386703491
 20
-22.72774547576905
 30
0.0
 41
1.0
 10
3.369737386703491
 20
-22.66290447235108
 30
0.0
 41
1.0
  0
SPLINE
  5
175
330
70
100
AcDbEntity
  8
Untitled v1_Sketch1
100
AcDbSpline
210
0.0
220
0.0
230
1.0
 70
    12
 71
     3
 72
     8
 73
     4
 74
     0
 42
0.000000001
 43
0.0000000001
 40
0.0
 40
0.0
 40
0.0
 40
0.0
 40
1.0
 40
1.0
 40
1.0
 40
1.0
 10
5.712318477630615
 20
-17.02551278432211
 30
0.0
 41
1.0
 10
5.647548529307048
 20
-17.02551278432211
 30
0.0
 41
1.0
 10
5.594986330668132
 20
-17.07811131795248
 30
0.0
 41
1.0
 10
5.594986330668132
 20
-17.14291679382324
 30
0.0
 41
1.0
  0
SPLINE
  5
176
330
70
100
AcDbEntity
  8
Untitled v1_Sketch1
100
AcDbSpline
210
0.0
220
0.0
230
1.0
 70
    12
 71
     3
 72
     8
 73
     4
 74
     0
 42
0.000000001
 43
0.0000000001
 40
0.0
 40
0.0
 40
0.0
 40
0.0
 40
1.0
 40
1.0
 40
1.0
 40
1.0
 10
13.21496856689453
 20
-21.18290921529134
 30
0.0
 41
1.0
 10
13.21496856689453
 20
-21.24775021870931
 30
0.0
 41
1.0
 10
13.26753318786621
 20
-21.30034875233969
 30
0.0
 41
1.0
 10
13.33230313618978
 20
-21.30034875233969
 30
0.0
 41
1.0
  0
LINE
  5
177
330
70
100
AcDbEntity
  8
Untitled v1_Sketch1
100
AcDbLine
 10
8.908494510650635
 20
-6.510328149795532
 30
0.0
 11
8.908494510650635
 21
-0.9540781497955315
 31
0.0
  0
SPLINE
  5
178
330
70
100
AcDbEntity
  8
Untitled v1_Sketch1
100
AcDbSpline
210
0.0
220
0.0
230
1.0
 70
    12
 71
     3
 72
     8
 73
     4
 74
     0
 42
0.000000001
 43
0.0000000001
 40
0.0
 40
0.0
 40
0.0
 40
0.0
 40
1.0
 40
1.0
 40
1.0
 40
1.0
 10
5.712318477630615
 20
-20.82550370534261
 30
0.0
 41
1.0
 10
5.647548529307048
 20
-20.82550370534261
 30
0.0
 41
1.0
 10
5.594986330668132
 20
-20.87810223897299
 30
0.0
 41
1.0
 10
5.594986330668132
 20
-20.94290771484375
 30
0.0
 41
1.0
  0
SPLINE
  5
179
330
70
100
AcDbEntity
  8
Untitled v1_Sketch1
100
AcDbSpline
210
0.0
220
0.0
230
1.0
 70
    12
 71
     3
 72
     8
 73
     4
 74
     0
 42
0.000000001
 43
0.0000000001
 40
0.0
 40
0.0
 40
0.0
 40
0.0
 40
1.0
 40
1.0
 40
1.0
 40
1.0
 10
3.252333780924479
 20
-22.54550046284994
 30
0.0
 41
1.0
 10
3.187563832600912
 20
-22.54550046284994
 30
0.0
 41
1.0
 10
3.134999009768168
 20
-22.59809899648031
 30
0.0
 41
1.0
 10
3.134999009768168
 20
-22.66290447235108
 30
0.0
 41
1.0
  0
SPLINE
  5
17A
330
70
100
AcDbEntity
  8
Untitled v1_Sketch1
100
AcDbSpline
210
0.0
220
0.0
230
1.0
 70
     8
 71
     2
 72
     6
 73
     3
 74
     0
 42
0.000000001
 43
0.0000000001
 40
0.0
 40
0.0
 40
0.0
 40
1.0
 40
1.0
 40
1.0
 10
8.908494510650635
 20
-0.9540781497955324
 30
0.0
 10
8.908494510650635
 20
-0.8217864831288657
 30
0.0
 10
9.040786177317302
 20
-0.8217864831288657
 30
0.0
  0
SPLINE
  5
17B
330
70
100
AcDbEntity
  8
Untitled v1_Sketch1
100
AcDbSpline
210
0.0
220
0.0
230
1.0
 70
    12
 71
     3
 72
     8
 73
     4
 74
     0
 42
0.000000001
 43
0.0000000001
 40
0.0
 40
0.0
 40
0.0
 40
0.0
 40
1.0
 40
1.0
 40
1.0
 40
1.0
 10
11.96574087778727
 20
-6.359342130025228
 30
0.0
 41
1.0
 10
12.08730806986491
 20
-6.359342130025228
 30
0.0
 41
1.0
 10
12.18569757461548
 20
-6.260917097727458
 30
0.0
 41
1.0
 10
12.18569757461548
 20
-6.139349905649821
 30
0.0
 41
1.0
  0
SPLINE
  5
17C
330
70
100
AcDbEntity
  8
Untitled v1_Sketch1
100
AcDbSpline
210
0.0
220
0.0
230
1.0
 70
     8
 71
     2
 72
     6
 73
     3
 74
     0
 42
0.000000001
 43
0.0000000001
 40
0.0
 40
0.0
 40
0.0
 40
1.0
 40
1.0
 40
1.0
 10
12.18932784398397
 20
-1.562619816462199
 30
0.0
 10
12.18932784398397
 20
-1.336957617600759
 30
0.0
 10
11.96726936976115
 20
-1.336957617600759
 30
0.0
  0
LINE
  5
17D
330
70
100
AcDbEntity
  8
Untitled v1_Sketch1
100
AcDbLine
 10
9.41120284398397
 20
-6.139911886850994
 30
0.0
 11
9.41120284398397
 21
-6.11345355351766
 31
0.0
  0
LINE
  5
17E
330
70
100
AcDbEntity
  8
Untitled v1_Sketch1
100
AcDbLine
 10
9.41120284398397
 20
-6.11345355351766
 30
0.0
 11
9.41120284398397
 21
-5.79595355351766
 31
0.0
  0
SPLINE
  5
17F
330
70
100
AcDbEntity
  8
Untitled v1_Sketch1
100
AcDbSpline
210
0.0
220
0.0
230
1.0
 70
    12
 71
     3
 72
     8
 73
     4
 74
     0
 42
0.000000001
 43
0.0000000001
 40
0.0
 40
0.0
 40
0.0
 40
0.0
 40
1.0
 40
1.0
 40
1.0
 40
1.0
 10
0.6614583333333335
 20
-14.37214922587077
 30
0.0
 41
1.0
 10
0.5556250000000001
 20
-14.37214922587077
 30
0.0
 41
1.0
 10
0.5440494791666668
 20
-14.44625
 30
0.0
 41
1.0
 10
0.5440494791666668
 20
-14.525625
 30
0.0
 41
1.0
  0
SPLINE
  5
180
330
70
100
AcDbEntity
  8
Untitled v1_Sketch1
100
AcDbSpline
210
0.0
220
0.0
230
1.0
 70
    12
 71
     3
 72
     8
 73
     4
 74
     0
 42
0.000000001
 43
0.0000000001
 40
0.0
 40
0.0
 40
0.0
 40
0.0
 40
1.0
 40
1.0
 40
1.0
 40
1.0
 10
12.18569434483846
 20
-1.553535362084706
 30
0.0
 41
1.0
 10
12.18569434483846
 20
-1.431932844320933
 30
0.0
 41
1.0
 10
12.08730484008789
 20
-1.333578564325968
 30
0.0
 41
1.0
 10
11.96570212046305
 20
-1.333578564325968
 30
0.0
 41
1.0
  0
LINE
  5
181
330
70
100
AcDbEntity
  8
Untitled v1_Sketch1
100
AcDbLine
 10
11.81891198476155
 20
-1.336957617600759
 30
0.0
 11
9.834536177317302
 21
-1.336957617600759
 31
0.0
  0
SPLINE
  5
182
330
70
100
AcDbEntity
  8
Untitled v1_Sketch1
100
AcDbSpline
210
0.0
220
0.0
230
1.0
 70
    12
 71
     3
 72
     8
 73
     4
 74
     0
 42
0.000000001
 43
0.0000000001
 40
0.0
 40
0.0
 40
0.0
 40
0.0
 40
1.0
 40
1.0
 40
1.0
 40
1.0
 10
15.49301265716553
 20
-15.46327287038167
 30
0.0
 41
1.0
 10
15.55785204569499
 20
-15.46327287038167
 30
0.0
 41
1.0
 10
15.61041666666667
 20
-15.4106743367513
 30
0.0
 41
1.0
 10
15.61041666666667
 20
-15.34583333333333
 30
0.0
 41
1.0
  0
LINE
  5
183
330
70
100
AcDbEntity
  8
Untitled v1_Sketch1
100
AcDbLine
 10
11.96570615768433
 20
-1.333567966620127
 30
0.0
 11
9.631163578033449
 21
-1.333567966620127
 31
0.0
  0
SPLINE
  5
184
330
70
100
AcDbEntity
  8
Untitled v1_Sketch1
100
AcDbSpline
210
0.0
220
0.0
230
1.0
 70
    12
 71
     3
 72
     8
 73
     4
 74
     0
 42
0.000000001
 43
0.0000000001
 40
0.0
 40
0.0
 40
0.0
 40
0.0
 40
1.0
 40
1.0
 40
1.0
 40
1.0
 10
2.981430581410726
 20
-25.60156392415365
 30
0.0
 41
1.0
 10
2.916660633087158
 20
-25.60156392415365
 30
0.0
 41
1.0
 10
2.864096819559733
 20
-25.65416245778402
 30
0.0
 41
1.0
 10
2.864096819559733
 20
-25.71896793365479
 30
0.0
 41
1.0
  0
SPLINE
  5
185
330
70
100
AcDbEntity
  8
Untitled v1_Sketch1
100
AcDbSpline
210
0.0
220
0.0
230
1.0
 70
    12
 71
     3
 72
     8
 73
     4
 74
     0
 42
0.000000001
 43
0.0000000001
 40
0.0
 40
0.0
 40
0.0
 40
0.0
 40
1.0
 40
1.0
 40
1.0
 40
1.0
 10
2.864096819559733
 20
-25.71896793365479
 30
0.0
 41
1.0
 10
2.864096819559733
 20
-25.78380893707276
 30
0.0
 41
1.0
 10
2.916660633087158
 20
-25.83640585581462
 30
0.0
 41
1.0
 10
2.981430581410726
 20
-25.83640585581462
 30
0.0
 41
1.0
  0
LINE
  5
186
330
70
100
AcDbEntity
  8
Untitled v1_Sketch1
100
AcDbLine
 10
9.631223328908285
 20
-6.359324366251628
 30
0.0
 11
11.96573038101196
 21
-6.359324366251628
 31
0.0
  0
LINE
  5
187
330
70
100
AcDbEntity
  8
Untitled v1_Sketch1
100
AcDbLine
 10
9.41120284398397
 20
-5.79595355351766
 30
0.0
 11
9.41120284398397
 21
-1.747828553517659
 31
0.0
  0
SPLINE
  5
188
330
70
100
AcDbEntity
  8
Untitled v1_Sketch1
100
AcDbSpline
210
0.0
220
0.0
230
1.0
 70
    12
 71
     3
 72
     8
 73
     4
 74
     0
 42
0.000000001
 43
0.0000000001
 40
0.0
 40
0.0
 40
0.0
 40
0.0
 40
1.0
 40
1.0
 40
1.0
 40
1.0
 10
3.098834994633993
 20
-25.71896793365479
 30
0.0
 41
1.0
 10
3.098834994633993
 20
-25.65416407267253
 30
0.0
 41
1.0
 10
3.046271181106567
 20
-25.60156392415365
 30
0.0
 41
1.0
 10
2.981430581410726
 20
-25.60156392415365
 30
0.0
 41
1.0
  0
SPLINE
  5
189
330
70
100
AcDbEntity
  8
Untitled v1_Sketch1
100
AcDbSpline
210
0.0
220
0.0
230
1.0
 70
    12
 71
     3
 72
     8
 73
     4
 74
     0
 42
0.000000001
 43
0.0000000001
 40
0.0
 40
0.0
 40
0.0
 40
0.0
 40
1.0
 40
1.0
 40
1.0
 40
1.0
 10
9.41120284398397
 20
-6.13938866297404
 30
0.0
 41
1.0
 10
9.41120284398397
 20
-6.260955855051677
 30
0.0
 41
1.0
 10
9.509627876281738
 20
-6.359310235977173
 30
0.0
 41
1.0
 10
9.631229788462322
 20
-6.359310235977173
 30
0.0
 41
1.0
  0
SPLINE
  5
18A
330
70
100
AcDbEntity
  8
Untitled v1_Sketch1
100
AcDbSpline
210
0.0
220
0.0
230
1.0
 70
    12
 71
     3
 72
     8
 73
     4
 74
     0
 42
0.000000001
 43
0.0000000001
 40
0.0
 40
0.0
 40
0.0
 40
0.0
 40
1.0
 40
1.0
 40
1.0
 40
1.0
 10
2.981430581410726
 20
-25.83640585581462
 30
0.0
 41
1.0
 10
3.046271181106567
 20
-25.83640585581462
 30
0.0
 41
1.0
 10
3.098834994633993
 20
-25.78380893707276
 30
0.0
 41
1.0
 10
3.098834994633993
 20
-25.71896793365479
 30
0.0
 41
1.0
  0
LINE
  5
18B
330
70
100
AcDbEntity
  8
Untitled v1_Sketch1
100
AcDbLine
 10
9.834536177317302
 20
-1.336957617600759
 30
0.0
 11
9.632584679921468
 21
-1.336957617600759
 31
0.0
  0
LINE
  5
18C
330
70
100
AcDbEntity
  8
Untitled v1_Sketch1
100
AcDbLine
 10
9.41120284398397
 20
-1.747828553517659
 30
0.0
 11
9.41120284398397
 21
-1.553524764378865
 31
0.0
  0
SPLINE
  5
18D
330
70
100
AcDbEntity
  8
Untitled v1_Sketch1
100
AcDbSpline
210
0.0
220
0.0
230
1.0
 70
     8
 71
     2
 72
     6
 73
     3
 74
     0
 42
0.000000001
 43
0.0000000001
 40
0.0
 40
0.0
 40
0.0
 40
1.0
 40
1.0
 40
1.0
 10
9.632584679921469
 20
-1.336957617600759
 30
0.0
 10
9.41120284398397
 20
-1.335924997329712
 30
0.0
 10
9.41120284398397
 20
-1.553524764378865
 30
0.0
  0
SPLINE
  5
18E
330
70
100
AcDbEntity
  8
Untitled v1_Sketch1
100
AcDbSpline
210
0.0
220
0.0
230
1.0
 70
     8
 71
     2
 72
     6
 73
     3
 74
     0
 42
0.000000001
 43
0.0000000001
 40
0.0
 40
0.0
 40
0.0
 40
1.0
 40
1.0
 40
1.0
 10
9.622869510650636
 20
-6.36274066289266
 30
0.0
 10
9.41120284398397
 20
-6.36274066289266
 30
0.0
 10
9.41120284398397
 20
-6.139911886850994
 30
0.0
  0
LINE
  5
18F
330
70
100
AcDbEntity
  8
Untitled v1_Sketch1
100
AcDbLine
 10
9.410691731770834
 20
-1.5875
 30
0.0
 11
9.410691731770834
 21
-0.9525
 31
0.0
  0
LINE
  5
190
330
70
100
AcDbEntity
  8
Untitled v1_Sketch1
100
AcDbLine
 10
9.040786177317302
 20
-0.8217864831288657
 30
0.0
 11
9.272581621805828
 21
-0.8217864831288657
 31
0.0
  0
SPLINE
  5
191
330
70
100
AcDbEntity
  8
Untitled v1_Sketch1
100
AcDbSpline
210
0.0
220
0.0
230
1.0
 70
    12
 71
     3
 72
     8
 73
     4
 74
     0
 42
0.000000001
 43
0.0000000001
 40
0.0
 40
0.0
 40
0.0
 40
0.0
 40
1.0
 40
1.0
 40
1.0
 40
1.0
 10
15.37567808787028
 20
-23.65375
 30
0.0
 41
1.0
 10
15.37567808787028
 20
-23.71859100341797
 30
0.0
 41
1.0
 10
15.42824270884196
 20
-23.77118953704834
 30
0.0
 41
1.0
 10
15.49301265716553
 20
-23.77118953704834
 30
0.0
 41
1.0
  0
SPLINE
  5
192
330
70
100
AcDbEntity
  8
Untitled v1_Sketch1
100
AcDbSpline
210
0.0
220
0.0
230
1.0
 70
    12
 71
     3
 72
     8
 73
     4
 74
     0
 42
0.000000001
 43
0.0000000001
 40
0.0
 40
0.0
 40
0.0
 40
0.0
 40
1.0
 40
1.0
 40
1.0
 40
1.0
 10
15.61041666666667
 20
-23.65375
 30
0.0
 41
1.0
 10
15.61041666666667
 20
-23.58894452412924
 30
0.0
 41
1.0
 10
15.55785204569499
 20
-23.53634599049886
 30
0.0
 41
1.0
 10
15.49301265716553
 20
-23.53634599049886
 30
0.0
 41
1.0
  0
SPLINE
  5
193
330
70
100
AcDbEntity
  8
Untitled v1_Sketch1
100
AcDbSpline
210
0.0
220
0.0
230
1.0
 70
    12
 71
     3
 72
     8
 73
     4
 74
     0
 42
0.000000001
 43
0.0000000001
 40
0.0
 40
0.0
 40
0.0
 40
0.0
 40
1.0
 40
1.0
 40
1.0
 40
1.0
 10
9.628115475972494
 20
-6.117907819747925
 30
0.0
 41
1.0
 10
9.628115475972494
 20
-6.182748823165894
 30
0.0
 41
1.0
 10
9.68067928949992
 20
-6.235312636693319
 30
0.0
 41
1.0
 10
9.745484765370688
 20
-6.235312636693319
 30
0.0
 41
1.0
  0
LINE
  5
194
330
70
100
AcDbEntity
  8
Untitled v1_Sketch1
100
AcDbLine
 10
12.18569434483846
 20
-6.139335775375367
 30
0.0
 11
12.18569434483846
 21
-1.554918312231699
 31
0.0
  0
SPLINE
  5
195
330
70
100
AcDbEntity
  8
Untitled v1_Sketch1
100
AcDbSpline
210
0.0
220
0.0
230
1.0
 70
    12
 71
     3
 72
     8
 73
     4
 74
     0
 42
0.000000001
 43
0.0000000001
 40
0.0
 40
0.0
 40
0.0
 40
0.0
 40
1.0
 40
1.0
 40
1.0
 40
1.0
 10
15.49301265716553
 20
-23.53634599049886
 30
0.0
 41
1.0
 10
15.42824270884196
 20
-23.53634599049886
 30
0.0
 41
1.0
 10
15.37567808787028
 20
-23.58894452412924
 30
0.0
 41
1.0
 10
15.37567808787028
 20
-23.65375
 30
0.0
 41
1.0
  0
SPLINE
  5
196
330
70
100
AcDbEntity
  8
Untitled v1_Sketch1
100
AcDbSpline
210
0.0
220
0.0
230
1.0
 70
    12
 71
     3
 72
     8
 73
     4
 74
     0
 42
0.000000001
 43
0.0000000001
 40
0.0
 40
0.0
 40
0.0
 40
0.0
 40
1.0
 40
1.0
 40
1.0
 40
1.0
 10
5.712318477630615
 20
-17.26035633087158
 30
0.0
 41
1.0
 10
5.777159884770711
 20
-17.26035633087158
 30
0.0
 41
1.0
 10
5.829724505742391
 20
-17.20775779724121
 30
0.0
 41
1.0
 10
5.829724505742391
 20
-17.14291679382324
 30
0.0
 41
1.0
  0
SPLINE
  5
197
330
70
100
AcDbEntity
  8
Untitled v1_Sketch1
100
AcDbSpline
210
0.0
220
0.0
230
1.0
 70
    12
 71
     3
 72
     8
 73
     4
 74
     0
 42
0.000000001
 43
0.0000000001
 40
0.0
 40
0.0
 40
0.0
 40
0.0
 40
1.0
 40
1.0
 40
1.0
 40
1.0
 10
15.61041666666667
 20
-15.34583333333333
 30
0.0
 41
1.0
 10
15.61041666666667
 20
-15.28102785746257
 30
0.0
 41
1.0
 10
15.55785204569499
 20
-15.2284293238322
 30
0.0
 41
1.0
 10
15.49301265716553
 20
-15.2284293238322
 30
0.0
 41
1.0
  0
SPLINE
  5
198
330
70
100
AcDbEntity
  8
Untitled v1_Sketch1
100
AcDbSpline
210
0.0
220
0.0
230
1.0
 70
    12
 71
     3
 72
     8
 73
     4
 74
     0
 42
0.000000001
 43
0.0000000001
 40
0.0
 40
0.0
 40
0.0
 40
0.0
 40
1.0
 40
1.0
 40
1.0
 40
1.0
 10
15.49301265716553
 20
-23.77118953704834
 30
0.0
 41
1.0
 10
15.55785204569499
 20
-23.77118953704834
 30
0.0
 41
1.0
 10
15.61041666666667
 20
-23.71859100341797
 30
0.0
 41
1.0
 10
15.61041666666667
 20
-23.65375
 30
0.0
 41
1.0
  0
SPLINE
  5
199
330
70
100
AcDbEntity
  8
Untitled v1_Sketch1
100
AcDbSpline
210
0.0
220
0.0
230
1.0
 70
    12
 71
     3
 72
     8
 73
     4
 74
     0
 42
0.000000001
 43
0.0000000001
 40
0.0
 40
0.0
 40
0.0
 40
0.0
 40
1.0
 40
1.0
 40
1.0
 40
1.0
 10
5.594986330668132
 20
-17.14291679382324
 30
0.0
 41
1.0
 10
5.594986330668132
 20
-17.20775779724121
 30
0.0
 41
1.0
 10
5.647548529307048
 20
-17.26035633087158
 30
0.0
 41
1.0
 10
5.712318477630615
 20
-17.26035633087158
 30
0.0
 41
1.0
  0
SPLINE
  5
19A
330
70
100
AcDbEntity
  8
Untitled v1_Sketch1
100
AcDbSpline
210
0.0
220
0.0
230
1.0
 70
    12
 71
     3
 72
     8
 73
     4
 74
     0
 42
0.000000001
 43
0.0000000001
 40
0.0
 40
0.0
 40
0.0
 40
0.0
 40
1.0
 40
1.0
 40
1.0
 40
1.0
 10
13.44970633824666
 20
-21.18290921529134
 30
0.0
 41
1.0
 10
13.44970633824666
 20
-21.11810373942057
 30
0.0
 41
1.0
 10
13.39714171727498
 20
-21.06550520579021
 30
0.0
 41
1.0
 10
13.33230313618978
 20
-21.06550520579021
 30
0.0
 41
1.0
  0
SPLINE
  5
19B
330
70
100
AcDbEntity
  8
Untitled v1_Sketch1
100
AcDbSpline
210
0.0
220
0.0
230
1.0
 70
    12
 71
     3
 72
     8
 73
     4
 74
     0
 42
0.000000001
 43
0.0000000001
 40
0.0
 40
0.0
 40
0.0
 40
0.0
 40
1.0
 40
1.0
 40
1.0
 40
1.0
 10
11.94548775355021
 20
-6.235312636693319
 30
0.0
 41
1.0
 10
12.01032875696818
 20
-6.235312636693319
 30
0.0
 41
1.0
 10
12.06289257049561
 20
-6.182748823165894
 30
0.0
 41
1.0
 10
12.06289257049561
 20
-6.117907819747925
 30
0.0
 41
1.0
  0
SPLINE
  5
19C
330
70
100
AcDbEntity
  8
Untitled v1_Sketch1
100
AcDbSpline
210
0.0
220
0.0
230
1.0
 70
    12
 71
     3
 72
     8
 73
     4
 74
     0
 42
0.000000001
 43
0.0000000001
 40
0.0
 40
0.0
 40
0.0
 40
0.0
 40
1.0
 40
1.0
 40
1.0
 40
1.0
 10
15.37567808787028
 20
-15.34583333333333
 30
0.0
 41
1.0
 10
15.37567808787028
 20
-15.4106743367513
 30
0.0
 41
1.0
 10
15.42824270884196
 20
-15.46327287038167
 30
0.0
 41
1.0
 10
15.49301265716553
 20
-15.46327287038167
 30
0.0
 41
1.0
  0
SPLINE
  5
19D
330
70
100
AcDbEntity
  8
Untitled v1_Sketch1
100
AcDbSpline
210
0.0
220
0.0
230
1.0
 70
    12
 71
     3
 72
     8
 73
     4
 74
     0
 42
0.000000001
 43
0.0000000001
 40
0.0
 40
0.0
 40
0.0
 40
0.0
 40
1.0
 40
1.0
 40
1.0
 40
1.0
 10
13.33230313618978
 20
-21.06550520579021
 30
0.0
 41
1.0
 10
13.26753318786621
 20
-21.06550520579021
 30
0.0
 41
1.0
 10
13.21496856689453
 20
-21.11810373942057
 30
0.0
 41
1.0
 10
13.21496856689453
 20
-21.18290921529134
 30
0.0
 41
1.0
  0
SPLINE
  5
19E
330
70
100
AcDbEntity
  8
Untitled v1_Sketch1
100
AcDbSpline
210
0.0
220
0.0
230
1.0
 70
    12
 71
     3
 72
     8
 73
     4
 74
     0
 42
0.000000001
 43
0.0000000001
 40
0.0
 40
0.0
 40
0.0
 40
0.0
 40
1.0
 40
1.0
 40
1.0
 40
1.0
 10
11.94548775355021
 20
-6.000503810246786
 30
0.0
 41
1.0
 10
11.88068227767944
 20
-6.000503810246786
 30
0.0
 41
1.0
 10
11.82811846415202
 20
-6.053103151321412
 30
0.0
 41
1.0
 10
11.82811846415202
 20
-6.117907819747925
 30
0.0
 41
1.0
  0
SPLINE
  5
19F
330
70
100
AcDbEntity
  8
Untitled v1_Sketch1
100
AcDbSpline
210
0.0
220
0.0
230
1.0
 70
    12
 71
     3
 72
     8
 73
     4
 74
     0
 42
0.000000001
 43
0.0000000001
 40
0.0
 40
0.0
 40
0.0
 40
0.0
 40
1.0
 40
1.0
 40
1.0
 40
1.0
 10
3.369737386703491
 20
-22.66290447235108
 30
0.0
 41
1.0
 10
3.369737386703491
 20
-22.59809899648031
 30
0.0
 41
1.0
 10
3.317172563870748
 20
-22.54550046284994
 30
0.0
 41
1.0
 10
3.252333780924479
 20
-22.54550046284994
 30
0.0
 41
1.0
  0
LINE
  5
1A0
330
70
100
AcDbEntity
  8
Untitled v1_Sketch1
100
AcDbLine
 10
11.96726936976115
 20
-1.336957617600759
 30
0.0
 11
11.81891198476155
 21
-1.336957617600759
 31
0.0
  0
SPLINE
  5
1A1
330
70
100
AcDbEntity
  8
Untitled v1_Sketch1
100
AcDbSpline
210
0.0
220
0.0
230
1.0
 70
    12
 71
     3
 72
     8
 73
     4
 74
     0
 42
0.000000001
 43
0.0000000001
 40
0.0
 40
0.0
 40
0.0
 40
0.0
 40
1.0
 40
1.0
 40
1.0
 40
1.0
 10
11.82811846415202
 20
-6.117907819747925
 30
0.0
 41
1.0
 10
11.82811846415202
 20
-6.182748823165894
 30
0.0
 41
1.0
 10
11.88068227767944
 20
-6.235312636693319
 30
0.0
 41
1.0
 10
11.94548775355021
 20
-6.235312636693319
 30
0.0
 41
1.0
  0
SPLINE
  5
1A2
330
70
100
AcDbEntity
  8
Untitled v1_Sketch1
100
AcDbSpline
210
0.0
220
0.0
230
1.0
 70
    12
 71
     3
 72
     8
 73
     4
 74
     0
 42
0.000000001
 43
0.0000000001
 40
0.0
 40
0.0
 40
0.0
 40
0.0
 40
1.0
 40
1.0
 40
1.0
 40
1.0
 10
5.594986330668132
 20
-20.94290771484375
 30
0.0
 41
1.0
 10
5.594986330668132
 20
-21.00774871826172
 30
0.0
 41
1.0
 10
5.647548529307048
 20
-21.06034725189209
 30
0.0
 41
1.0
 10
5.712318477630615
 20
-21.06034725189209
 30
0.0
 41
1.0
  0
SPLINE
  5
1A3
330
70
100
AcDbEntity
  8
Untitled v1_Sketch1
100
AcDbSpline
210
0.0
220
0.0
230
1.0
 70
    12
 71
     3
 72
     8
 73
     4
 74
     0
 42
0.000000001
 43
0.0000000001
 40
0.0
 40
0.0
 40
0.0
 40
0.0
 40
1.0
 40
1.0
 40
1.0
 40
1.0
 10
9.862888774871827
 20
-6.117907819747925
 30
0.0
 41
1.0
 10
9.862888774871827
 20
-6.053102747599284
 30
0.0
 41
1.0
 10
9.810324961344402
 20
-6.000503810246786
 30
0.0
 41
1.0
 10
9.745484765370688
 20
-6.000503810246786
 30
0.0
 41
1.0
  0
SPLINE
  5
1A4
330
70
100
AcDbEntity
  8
Untitled v1_Sketch1
100
AcDbSpline
210
0.0
220
0.0
230
1.0
 70
    12
 71
     3
 72
     8
 73
     4
 74
     0
 42
0.000000001
 43
0.0000000001
 40
0.0
 40
0.0
 40
0.0
 40
0.0
 40
1.0
 40
1.0
 40
1.0
 40
1.0
 10
9.745484765370688
 20
-6.000503810246786
 30
0.0
 41
1.0
 10
9.68067928949992
 20
-6.000503810246786
 30
0.0
 41
1.0
 10
9.628115475972494
 20
-6.053103151321412
 30
0.0
 41
1.0
 10
9.628115475972494
 20
-6.117907819747925
 30
0.0
 41
1.0
  0
SPLINE
  5
1A5
330
70
100
AcDbEntity
  8
Untitled v1_Sketch1
100
AcDbSpline
210
0.0
220
0.0
230
1.0
 70
    12
 71
     3
 72
     8
 73
     4
 74
     0
 42
0.000000001
 43
0.0000000001
 40
0.0
 40
0.0
 40
0.0
 40
0.0
 40
1.0
 40
1.0
 40
1.0
 40
1.0
 10
12.06289257049561
 20
-6.117907819747925
 30
0.0
 41
1.0
 10
12.06289257049561
 20
-6.053102747599284
 30
0.0
 41
1.0
 10
12.01032875696818
 20
-6.000503810246786
 30
0.0
 41
1.0
 10
11.94548775355021
 20
-6.000503810246786
 30
0.0
 41
1.0
  0
SPLINE
  5
1A6
330
70
100
AcDbEntity
  8
Untitled v1_Sketch1
100
AcDbSpline
210
0.0
220
0.0
230
1.0
 70
    12
 71
     3
 72
     8
 73
     4
 74
     0
 42
0.000000001
 43
0.0000000001
 40
0.0
 40
0.0
 40
0.0
 40
0.0
 40
1.0
 40
1.0
 40
1.0
 40
1.0
 10
15.49301265716553
 20
-15.2284293238322
 30
0.0
 41
1.0
 10
15.42824270884196
 20
-15.2284293238322
 30
0.0
 41
1.0
 10
15.37567808787028
 20
-15.28102785746257
 30
0.0
 41
1.0
 10
15.37567808787028
 20
-15.34583333333333
 30
0.0
 41
1.0
  0
SPLINE
  5
1A7
330
70
100
AcDbEntity
  8
Untitled v1_Sketch1
100
AcDbSpline
210
0.0
220
0.0
230
1.0
 70
    12
 71
     3
 72
     8
 73
     4
 74
     0
 42
0.000000001
 43
0.0000000001
 40
0.0
 40
0.0
 40
0.0
 40
0.0
 40
1.0
 40
1.0
 40
1.0
 40
1.0
 10
0.9031782770156862
 20
-14.71306349436442
 30
0.0
 41
1.0
 10
0.9031782770156862
 20
-14.64825801849365
 30
0.0
 41
1.0
 10
0.8506134541829428
 20
-14.59565948486328
 30
0.0
 41
1.0
 10
0.7857739142576855
 20
-14.59565948486328
 30
0.0
 41
1.0
  0
SPLINE
  5
1A8
330
70
100
AcDbEntity
  8
Untitled v1_Sketch1
100
AcDbSpline
210
0.0
220
0.0
230
1.0
 70
    12
 71
     3
 72
     8
 73
     4
 74
     0
 42
0.000000001
 43
0.0000000001
 40
0.0
 40
0.0
 40
0.0
 40
0.0
 40
1.0
 40
1.0
 40
1.0
 40
1.0
 10
0.6684404551982882
 20
-14.71306349436442
 30
0.0
 41
1.0
 10
0.6684402028719586
 20
-14.77790449778239
 30
0.0
 41
1.0
 10
0.7210047229131064
 20
-14.83050303141276
 30
0.0
 41
1.0
 10
0.7857739142576855
 20
-14.83050303141276
 30
0.0
 41
1.0
  0
SPLINE
  5
1A9
330
70
100
AcDbEntity
  8
Untitled v1_Sketch1
100
AcDbSpline
210
0.0
220
0.0
230
1.0
 70
    12
 71
     3
 72
     8
 73
     4
 74
     0
 42
0.000000001
 43
0.0000000001
 40
0.0
 40
0.0
 40
0.0
 40
0.0
 40
1.0
 40
1.0
 40
1.0
 40
1.0
 10
11.23172156651815
 20
-12.1686039797465
 30
0.0
 41
1.0
 10
11.23172156651815
 20
-12.23344579060873
 30
0.0
 41
1.0
 10
11.28428538004557
 20
-12.28604190190633
 30
0.0
 41
1.0
 10
11.34905532836914
 20
-12.28604351679484
 30
0.0
 41
1.0
  0
SPLINE
  5
1AA
330
70
100
AcDbEntity
  8
Untitled v1_Sketch1
100
AcDbSpline
210
0.0
220
0.0
230
1.0
 70
    12
 71
     3
 72
     8
 73
     4
 74
     0
 42
0.000000001
 43
0.0000000001
 40
0.0
 40
0.0
 40
0.0
 40
0.0
 40
1.0
 40
1.0
 40
1.0
 40
1.0
 10
9.156608403523764
 20
-1.281606203715006
 30
0.0
 41
1.0
 10
9.221447792053224
 20
-1.281606203715006
 30
0.0
 41
1.0
 10
9.274012413024903
 20
-1.229007266362508
 30
0.0
 41
1.0
 10
9.274012413024903
 20
-1.164166666666666
 30
0.0
 41
1.0
  0
SPLINE
  5
1AB
330
70
100
AcDbEntity
  8
Untitled v1_Sketch1
100
AcDbSpline
210
0.0
220
0.0
230
1.0
 70
    12
 71
     3
 72
     8
 73
     4
 74
     0
 42
0.000000001
 43
0.0000000001
 40
0.0
 40
0.0
 40
0.0
 40
0.0
 40
1.0
 40
1.0
 40
1.0
 40
1.0
 10
12.64430895487467
 20
-1.068966364860534
 30
0.0
 41
1.0
 10
12.64430895487467
 20
-1.004161191781361
 30
0.0
 41
1.0
 10
12.59174433390299
 20
-0.9515625572204591
 30
0.0
 41
1.0
 10
12.52690575281779
 20
-0.9515625572204591
 30
0.0
 41
1.0
  0
SPLINE
  5
1AC
330
70
100
AcDbEntity
  8
Untitled v1_Sketch1
100
AcDbSpline
210
0.0
220
0.0
230
1.0
 70
    12
 71
     3
 72
     8
 73
     4
 74
     0
 42
0.000000001
 43
0.0000000001
 40
0.0
 40
0.0
 40
0.0
 40
0.0
 40
1.0
 40
1.0
 40
1.0
 40
1.0
 10
12.52690575281779
 20
-0.9515625572204591
 30
0.0
 41
1.0
 10
12.46213580449422
 20
-0.9515625572204591
 30
0.0
 41
1.0
 10
12.40957118352254
 20
-1.004161191781361
 30
0.0
 41
1.0
 10
12.40957118352254
 20
-1.068966364860534
 30
0.0
 41
1.0
  0
SPLINE
  5
1AD
330
70
100
AcDbEntity
  8
Untitled v1_Sketch1
100
AcDbSpline
210
0.0
220
0.0
230
1.0
 70
    12
 71
     3
 72
     8
 73
     4
 74
     0
 42
0.000000001
 43
0.0000000001
 40
0.0
 40
0.0
 40
0.0
 40
0.0
 40
1.0
 40
1.0
 40
1.0
 40
1.0
 10
18.55067970275879
 20
-25.74395833333334
 30
0.0
 41
1.0
 10
18.55067970275879
 20
-25.80879933675131
 30
0.0
 41
1.0
 10
18.60324270884196
 20
-25.86139625549317
 30
0.0
 41
1.0
 10
18.66801265716553
 20
-25.86139625549317
 30
0.0
 41
1.0
  0
SPLINE
  5
1AE
330
70
100
AcDbEntity
  8
Untitled v1_Sketch1
100
AcDbSpline
210
0.0
220
0.0
230
1.0
 70
    12
 71
     3
 72
     8
 73
     4
 74
     0
 42
0.000000001
 43
0.0000000001
 40
0.0
 40
0.0
 40
0.0
 40
0.0
 40
1.0
 40
1.0
 40
1.0
 40
1.0
 10
12.40957118352254
 20
-1.068966364860534
 30
0.0
 41
1.0
 10
12.40957118352254
 20
-1.133806964556376
 30
0.0
 41
1.0
 10
12.46213580449422
 20
-1.186405901908874
 30
0.0
 41
1.0
 10
12.52690575281779
 20
-1.186405901908874
 30
0.0
 41
1.0
  0
SPLINE
  5
1AF
330
70
100
AcDbEntity
  8
Untitled v1_Sketch1
100
AcDbSpline
210
0.0
220
0.0
230
1.0
 70
    12
 71
     3
 72
     8
 73
     4
 74
     0
 42
0.000000001
 43
0.0000000001
 40
0.0
 40
0.0
 40
0.0
 40
0.0
 40
1.0
 40
1.0
 40
1.0
 40
1.0
 10
12.52690575281779
 20
-1.186405901908874
 30
0.0
 41
1.0
 10
12.59174433390299
 20
-1.186405901908874
 30
0.0
 41
1.0
 10
12.64430895487467
 20
-1.133806964556376
 30
0.0
 41
1.0
 10
12.64430895487467
 20
-1.068966364860534
 30
0.0
 41
1.0
  0
SPLINE
  5
1B0
330
70
100
AcDbEntity
  8
Untitled v1_Sketch1
100
AcDbSpline
210
0.0
220
0.0
230
1.0
 70
    12
 71
     3
 72
     8
 73
     4
 74
     0
 42
0.000000001
 43
0.0000000001
 40
0.0
 40
0.0
 40
0.0
 40
0.0
 40
1.0
 40
1.0
 40
1.0
 40
1.0
 10
0.7857739142576855
 20
-14.83050303141276
 30
0.0
 41
1.0
 10
0.8506135551134747
 20
-14.83050303141276
 30
0.0
 41
1.0
 10
0.9031782770156862
 20
-14.77790449778239
 30
0.0
 41
1.0
 10
0.9031782770156862
 20
-14.71306349436442
 30
0.0
 41
1.0
  0
SPLINE
  5
1B1
330
70
100
AcDbEntity
  8
Untitled v1_Sketch1
100
AcDbSpline
210
0.0
220
0.0
230
1.0
 70
     8
 71
     2
 72
     6
 73
     3
 74
     0
 42
0.000000001
 43
0.0000000001
 40
0.0
 40
0.0
 40
0.0
 40
1.0
 40
1.0
 40
1.0
 10
12.32162031809489
 20
-0.8217864831288657
 30
0.0
 10
12.18343107859294
 20
-0.8217864831288657
 30
0.0
 10
12.18612955729167
 20
-0.9525000000000002
 30
0.0
  0
SPLINE
  5
1B2
330
70
100
AcDbEntity
  8
Untitled v1_Sketch1
100
AcDbSpline
210
0.0
220
0.0
230
1.0
 70
    12
 71
     3
 72
     8
 73
     4
 74
     0
 42
0.000000001
 43
0.0000000001
 40
0.0
 40
0.0
 40
0.0
 40
0.0
 40
1.0
 40
1.0
 40
1.0
 40
1.0
 10
11.34905532836914
 20
-12.28604351679484
 30
0.0
 41
1.0
 10
11.41389633178711
 20
-12.28604190190633
 30
0.0
 41
1.0
 10
11.46645933787028
 20
-12.23344498316447
 30
0.0
 41
1.0
 10
11.46645933787028
 20
-12.1686039797465
 30
0.0
 41
1.0
  0
LINE
  5
1B3
330
70
100
AcDbEntity
  8
Untitled v1_Sketch1
100
AcDbLine
 10
12.18612955729167
 20
-1.402291666666666
 30
0.0
 11
12.18612955729167
 21
-0.9525000000000002
 31
0.0
  0
SPLINE
  5
1B4
330
70
100
AcDbEntity
  8
Untitled v1_Sketch1
100
AcDbSpline
210
0.0
220
0.0
230
1.0
 70
    12
 71
     3
 72
     8
 73
     4
 74
     0
 42
0.000000001
 43
0.0000000001
 40
0.0
 40
0.0
 40
0.0
 40
0.0
 40
1.0
 40
1.0
 40
1.0
 40
1.0
 10
9.156608403523764
 20
-1.281606203715006
 30
0.0
 41
1.0
 10
9.221449406941733
 20
-1.281606203715006
 30
0.0
 41
1.0
 10
9.274012413024903
 20
-1.229007266362508
 30
0.0
 41
1.0
 10
9.274012413024903
 20
-1.164166666666666
 30
0.0
 41
1.0
  0
SPLINE
  5
1B5
330
70
100
AcDbEntity
  8
Untitled v1_Sketch1
100
AcDbSpline
210
0.0
220
0.0
230
1.0
 70
    12
 71
     3
 72
     8
 73
     4
 74
     0
 42
0.000000001
 43
0.0000000001
 40
0.0
 40
0.0
 40
0.0
 40
0.0
 40
1.0
 40
1.0
 40
1.0
 40
1.0
 10
9.156608403523764
 20
-1.046762354373931
 30
0.0
 41
1.0
 10
9.091838455200196
 20
-1.046762354373931
 30
0.0
 41
1.0
 10
9.03927464167277
 20
-1.099361493587494
 30
0.0
 41
1.0
 10
9.03927464167277
 20
-1.164166666666666
 30
0.0
 41
1.0
  0
SPLINE
  5
1B6
330
70
100
AcDbEntity
  8
Untitled v1_Sketch1
100
AcDbSpline
210
0.0
220
0.0
230
1.0
 70
    12
 71
     3
 72
     8
 73
     4
 74
     0
 42
0.000000001
 43
0.0000000001
 40
0.0
 40
0.0
 40
0.0
 40
0.0
 40
1.0
 40
1.0
 40
1.0
 40
1.0
 10
0.7857739142576855
 20
-14.59565948486328
 30
0.0
 41
1.0
 10
0.7210039154688518
 20
-14.59565948486328
 30
0.0
 41
1.0
 10
0.6684404551982882
 20
-14.64825801849365
 30
0.0
 41
1.0
 10
0.6684404551982882
 20
-14.71306349436442
 30
0.0
 41
1.0
  0
SPLINE
  5
1B7
330
70
100
AcDbEntity
  8
Untitled v1_Sketch1
100
AcDbSpline
210
0.0
220
0.0
230
1.0
 70
    12
 71
     3
 72
     8
 73
     4
 74
     0
 42
0.000000001
 43
0.0000000001
 40
0.0
 40
0.0
 40
0.0
 40
0.0
 40
1.0
 40
1.0
 40
1.0
 40
1.0
 10
0.6684404551982882
 20
-14.71306349436442
 30
0.0
 41
1.0
 10
0.6684404551982882
 20
-14.77790449778239
 30
0.0
 41
1.0
 10
0.7210039154688518
 20
-14.83050303141276
 30
0.0
 41
1.0
 10
0.7857739142576855
 20
-14.83050303141276
 30
0.0
 41
1.0
  0
SPLINE
  5
1B8
330
70
100
AcDbEntity
  8
Untitled v1_Sketch1
100
AcDbSpline
210
0.0
220
0.0
230
1.0
 70
    12
 71
     3
 72
     8
 73
     4
 74
     0
 42
0.000000001
 43
0.0000000001
 40
0.0
 40
0.0
 40
0.0
 40
0.0
 40
1.0
 40
1.0
 40
1.0
 40
1.0
 10
0.7857739142576855
 20
-14.83050303141276
 30
0.0
 41
1.0
 10
0.8506145644187927
 20
-14.83050303141276
 30
0.0
 41
1.0
 10
0.9031782770156862
 20
-14.77790449778239
 30
0.0
 41
1.0
 10
0.9031782770156862
 20
-14.71306349436442
 30
0.0
 41
1.0
  0
SPLINE
  5
1B9
330
70
100
AcDbEntity
  8
Untitled v1_Sketch1
100
AcDbSpline
210
0.0
220
0.0
230
1.0
 70
    12
 71
     3
 72
     8
 73
     4
 74
     0
 42
0.000000001
 43
0.0000000001
 40
0.0
 40
0.0
 40
0.0
 40
0.0
 40
1.0
 40
1.0
 40
1.0
 40
1.0
 10
2.978220586776733
 20
-25.60009599049887
 30
0.0
 41
1.0
 10
2.913450638453165
 20
-25.60009599049887
 30
0.0
 41
1.0
 10
2.86088682492574
 20
-25.65269452412924
 30
0.0
 41
1.0
 10
2.86088682492574
 20
-25.71750000000001
 30
0.0
 41
1.0
  0
SPLINE
  5
1BA
330
70
100
AcDbEntity
  8
Untitled v1_Sketch1
100
AcDbSpline
210
0.0
220
0.0
230
1.0
 70
    12
 71
     3
 72
     8
 73
     4
 74
     0
 42
0.000000001
 43
0.0000000001
 40
0.0
 40
0.0
 40
0.0
 40
0.0
 40
1.0
 40
1.0
 40
1.0
 40
1.0
 10
2.86088682492574
 20
-25.71750000000001
 30
0.0
 41
1.0
 10
2.86088682492574
 20
-25.78234100341797
 30
0.0
 41
1.0
 10
2.913450638453165
 20
-25.83493792215984
 30
0.0
 41
1.0
 10
2.978220586776733
 20
-25.83493792215984
 30
0.0
 41
1.0
  0
SPLINE
  5
1BB
330
70
100
AcDbEntity
  8
Untitled v1_Sketch1
100
AcDbSpline
210
0.0
220
0.0
230
1.0
 70
    12
 71
     3
 72
     8
 73
     4
 74
     0
 42
0.000000001
 43
0.0000000001
 40
0.0
 40
0.0
 40
0.0
 40
0.0
 40
1.0
 40
1.0
 40
1.0
 40
1.0
 10
18.66801265716553
 20
-25.86139625549317
 30
0.0
 41
1.0
 10
18.7328536605835
 20
-25.86139625549317
 30
0.0
 41
1.0
 10
18.78541666666667
 20
-25.80879933675131
 30
0.0
 41
1.0
 10
18.78541666666667
 20
-25.74395833333334
 30
0.0
 41
1.0
  0
SPLINE
  5
1BC
330
70
100
AcDbEntity
  8
Untitled v1_Sketch1
100
AcDbSpline
210
0.0
220
0.0
230
1.0
 70
     8
 71
     2
 72
     6
 73
     3
 74
     0
 42
0.000000001
 43
0.0000000001
 40
0.0
 40
0.0
 40
0.0
 40
1.0
 40
1.0
 40
1.0
 10
16.22745103200277
 20
-14.52943290710449
 30
0.0
 10
16.22745103200277
 20
-14.39714124043782
 30
0.0
 10
16.35974269866943
 20
-14.39714124043782
 30
0.0
  0
SPLINE
  5
1BD
330
70
100
AcDbEntity
  8
Untitled v1_Sketch1
100
AcDbSpline
210
0.0
220
0.0
230
1.0
 70
     8
 71
     2
 72
     6
 73
     3
 74
     0
 42
0.000000001
 43
0.0000000001
 40
0.0
 40
0.0
 40
0.0
 40
1.0
 40
1.0
 40
1.0
 10
16.59153895060222
 20
-14.39714124043782
 30
0.0
 10
16.72964906056722
 20
-14.39556187947591
 30
0.0
 10
16.72964906056722
 20
-14.52785516103109
 30
0.0
  0
SPLINE
  5
1BE
330
70
100
AcDbEntity
  8
Untitled v1_Sketch1
100
AcDbSpline
210
0.0
220
0.0
230
1.0
 70
    12
 71
     3
 72
     8
 73
     4
 74
     0
 42
0.000000001
 43
0.0000000001
 40
0.0
 40
0.0
 40
0.0
 40
0.0
 40
1.0
 40
1.0
 40
1.0
 40
1.0
 10
16.59296974182129
 20
-14.73952182769775
 30
0.0
 41
1.0
 10
16.59296974182129
 20
-14.67471635182699
 30
0.0
 41
1.0
 10
16.54040512084961
 20
-14.62211781819662
 30
0.0
 41
1.0
 10
16.47556573232015
 20
-14.62211781819662
 30
0.0
 41
1.0
  0
SPLINE
  5
1BF
330
70
100
AcDbEntity
  8
Untitled v1_Sketch1
100
AcDbSpline
210
0.0
220
0.0
230
1.0
 70
    12
 71
     3
 72
     8
 73
     4
 74
     0
 42
0.000000001
 43
0.0000000001
 40
0.0
 40
0.0
 40
0.0
 40
0.0
 40
1.0
 40
1.0
 40
1.0
 40
1.0
 10
2.978220586776733
 20
-25.83493792215984
 30
0.0
 41
1.0
 10
3.043061186472575
 20
-25.83493792215984
 30
0.0
 41
1.0
 10
3.095625
 20
-25.78234100341797
 30
0.0
 41
1.0
 10
3.095625
 20
-25.71750000000001
 30
0.0
 41
1.0
  0
SPLINE
  5
1C0
330
70
100
AcDbEntity
  8
Untitled v1_Sketch1
100
AcDbSpline
210
0.0
220
0.0
230
1.0
 70
     8
 71
     2
 72
     6
 73
     3
 74
     0
 42
0.000000001
 43
0.0000000001
 40
0.0
 40
0.0
 40
0.0
 40
1.0
 40
1.0
 40
1.0
 10
19.64057603200277
 20
-14.39714124043782
 30
0.0
 10
19.50239002227784
 20
-14.39714124043782
 30
0.0
 10
19.50508850097656
 20
-14.52785516103109
 30
0.0
  0
SPLINE
  5
1C1
330
70
100
AcDbEntity
  8
Untitled v1_Sketch1
100
AcDbSpline
210
0.0
220
0.0
230
1.0
 70
    12
 71
     3
 72
     8
 73
     4
 74
     0
 42
0.000000001
 43
0.0000000001
 40
0.0
 40
0.0
 40
0.0
 40
0.0
 40
1.0
 40
1.0
 40
1.0
 40
1.0
 10
16.47556573232015
 20
-14.8569613647461
 30
0.0
 41
1.0
 10
16.54040512084961
 20
-14.8569613647461
 30
0.0
 41
1.0
 10
16.59296974182129
 20
-14.80436283111572
 30
0.0
 41
1.0
 10
16.59296974182129
 20
-14.73952182769775
 30
0.0
 41
1.0
  0
SPLINE
  5
1C2
330
70
100
AcDbEntity
  8
Untitled v1_Sketch1
100
AcDbSpline
210
0.0
220
0.0
230
1.0
 70
    12
 71
     3
 72
     8
 73
     4
 74
     0
 42
0.000000001
 43
0.0000000001
 40
0.0
 40
0.0
 40
0.0
 40
0.0
 40
1.0
 40
1.0
 40
1.0
 40
1.0
 10
16.47556573232015
 20
-14.8569613647461
 30
0.0
 41
1.0
 10
16.54040673573812
 20
-14.8569613647461
 30
0.0
 41
1.0
 10
16.59296974182129
 20
-14.80436283111572
 30
0.0
 41
1.0
 10
16.59296974182129
 20
-14.73952182769775
 30
0.0
 41
1.0
  0
SPLINE
  5
1C3
330
70
100
AcDbEntity
  8
Untitled v1_Sketch1
100
AcDbSpline
210
0.0
220
0.0
230
1.0
 70
    12
 71
     3
 72
     8
 73
     4
 74
     0
 42
0.000000001
 43
0.0000000001
 40
0.0
 40
0.0
 40
0.0
 40
0.0
 40
1.0
 40
1.0
 40
1.0
 40
1.0
 10
16.35823277791341
 20
-14.73952182769775
 30
0.0
 41
1.0
 10
16.3582311630249
 20
-14.80436283111572
 30
0.0
 41
1.0
 10
16.41079578399658
 20
-14.8569613647461
 30
0.0
 41
1.0
 10
16.47556573232015
 20
-14.8569613647461
 30
0.0
 41
1.0
  0
SPLINE
  5
1C4
330
70
100
AcDbEntity
  8
Untitled v1_Sketch1
100
AcDbSpline
210
0.0
220
0.0
230
1.0
 70
     8
 71
     2
 72
     6
 73
     3
 74
     0
 42
0.000000001
 43
0.0000000001
 40
0.0
 40
0.0
 40
0.0
 40
1.0
 40
1.0
 40
1.0
 10
9.272581621805828
 20
-0.8217864831288657
 30
0.0
 10
9.410691731770834
 20
-0.8202082324028015
 30
0.0
 10
9.410691731770834
 20
-0.9525000000000002
 30
0.0
  0
SPLINE
  5
1C5
330
70
100
AcDbEntity
  8
Untitled v1_Sketch1
100
AcDbSpline
210
0.0
220
0.0
230
1.0
 70
    12
 71
     3
 72
     8
 73
     4
 74
     0
 42
0.000000001
 43
0.0000000001
 40
0.0
 40
0.0
 40
0.0
 40
0.0
 40
1.0
 40
1.0
 40
1.0
 40
1.0
 10
18.66801265716553
 20
-25.6265543238322
 30
0.0
 41
1.0
 10
18.60324270884196
 20
-25.6265543238322
 30
0.0
 41
1.0
 10
18.55067970275879
 20
-25.67915285746257
 30
0.0
 41
1.0
 10
18.55067970275879
 20
-25.74395833333334
 30
0.0
 41
1.0
  0
LINE
  5
1C6
330
70
100
AcDbEntity
  8
Untitled v1_Sketch1
100
AcDbLine
 10
19.50508850097656
 20
-14.52785516103109
 30
0.0
 11
19.50508850097656
 21
-14.77945963541667
 31
0.0
  0
LINE
  5
1C7
330
70
100
AcDbEntity
  8
Untitled v1_Sketch1
100
AcDbLine
 10
19.72336847582986
 20
-14.91304181289581
 30
0.0
 11
19.6403515625
 21
-14.91304159800211
 31
0.0
  0
SPLINE
  5
1C8
330
70
100
AcDbEntity
  8
Untitled v1_Sketch1
100
AcDbSpline
210
0.0
220
0.0
230
1.0
 70
    12
 71
     3
 72
     8
 73
     4
 74
     0
 42
0.000000001
 43
0.0000000001
 40
0.0
 40
0.0
 40
0.0
 40
0.0
 40
1.0
 40
1.0
 40
1.0
 40
1.0
 10
18.78541666666667
 20
-25.74395833333334
 30
0.0
 41
1.0
 10
18.78541666666667
 20
-25.67915447235108
 30
0.0
 41
1.0
 10
18.7328536605835
 20
-25.6265543238322
 30
0.0
 41
1.0
 10
18.66801265716553
 20
-25.6265543238322
 30
0.0
 41
1.0
  0
LINE
  5
1C9
330
70
100
AcDbEntity
  8
Untitled v1_Sketch1
100
AcDbLine
 10
16.72964906056722
 20
-15.16285516103109
 30
0.0
 11
16.72964906056722
 21
-14.52785516103109
 31
0.0
  0
SPLINE
  5
1CA
330
70
100
AcDbEntity
  8
Untitled v1_Sketch1
100
AcDbSpline
210
0.0
220
0.0
230
1.0
 70
    12
 71
     3
 72
     8
 73
     4
 74
     0
 42
0.000000001
 43
0.0000000001
 40
0.0
 40
0.0
 40
0.0
 40
0.0
 40
1.0
 40
1.0
 40
1.0
 40
1.0
 10
11.46645933787028
 20
-12.1686039797465
 30
0.0
 41
1.0
 10
11.46645933787028
 20
-12.10379931131999
 30
0.0
 41
1.0
 10
11.41389552434286
 20
-12.05120077768962
 30
0.0
 41
1.0
 10
11.34905532836914
 20
-12.05119997024536
 30
0.0
 41
1.0
  0
SPLINE
  5
1CB
330
70
100
AcDbEntity
  8
Untitled v1_Sketch1
100
AcDbSpline
210
0.0
220
0.0
230
1.0
 70
    12
 71
     3
 72
     8
 73
     4
 74
     0
 42
0.000000001
 43
0.0000000001
 40
0.0
 40
0.0
 40
0.0
 40
0.0
 40
1.0
 40
1.0
 40
1.0
 40
1.0
 10
11.34905532836914
 20
-12.05119997024536
 30
0.0
 41
1.0
 10
11.28428538004557
 20
-12.05120077768962
 30
0.0
 41
1.0
 10
11.23172156651815
 20
-12.10380011876424
 30
0.0
 41
1.0
 10
11.23172156651815
 20
-12.1686039797465
 30
0.0
 41
1.0
  0
SPLINE
  5
1CC
330
70
100
AcDbEntity
  8
Untitled v1_Sketch1
100
AcDbSpline
210
0.0
220
0.0
230
1.0
 70
     8
 71
     2
 72
     6
 73
     3
 74
     0
 42
0.000000001
 43
0.0000000001
 40
0.0
 40
0.0
 40
0.0
 40
1.0
 40
1.0
 40
1.0
 10
19.6403515625
 20
-14.91304159800212
 30
0.0
 10
19.49979166666667
 20
-14.90956151326497
 30
0.0
 10
19.50508850097656
 20
-14.77945963541667
 30
0.0
  0
SPLINE
  5
1CD
330
70
100
AcDbEntity
  8
Untitled v1_Sketch1
100
AcDbSpline
210
0.0
220
0.0
230
1.0
 70
    12
 71
     3
 72
     8
 73
     4
 74
     0
 42
0.000000001
 43
0.0000000001
 40
0.0
 40
0.0
 40
0.0
 40
0.0
 40
1.0
 40
1.0
 40
1.0
 40
1.0
 10
0.7857739142576855
 20
-14.59565948486328
 30
0.0
 41
1.0
 10
0.7210047229131064
 20
-14.59565948486328
 30
0.0
 41
1.0
 10
0.6684402028719586
 20
-14.64825801849365
 30
0.0
 41
1.0
 10
0.6684404551982882
 20
-14.71306349436442
 30
0.0
 41
1.0
  0
LINE
  5
1CE
330
70
100
AcDbEntity
  8
Untitled v1_Sketch1
100
AcDbLine
 10
12.18612955729167
 20
-1.5875
 30
0.0
 11
12.18612955729167
 21
-1.402291666666666
 31
0.0
  0
SPLINE
  5
1CF
330
70
100
AcDbEntity
  8
Untitled v1_Sketch1
100
AcDbSpline
210
0.0
220
0.0
230
1.0
 70
    12
 71
     3
 72
     8
 73
     4
 74
     0
 42
0.000000001
 43
0.0000000001
 40
0.0
 40
0.0
 40
0.0
 40
0.0
 40
1.0
 40
1.0
 40
1.0
 40
1.0
 10
4.273475020726522
 20
-14.6178625869751
 30
0.0
 41
1.0
 10
4.273475020726522
 20
-14.55305711110433
 30
0.0
 41
1.0
 10
4.220910399754842
 20
-14.50045857747396
 30
0.0
 41
1.0
 10
4.156071414947509
 20
-14.50045857747396
 30
0.0
 41
1.0
  0
SPLINE
  5
1D0
330
70
100
AcDbEntity
  8
Untitled v1_Sketch1
100
AcDbSpline
210
0.0
220
0.0
230
1.0
 70
    12
 71
     3
 72
     8
 73
     4
 74
     0
 42
0.000000001
 43
0.0000000001
 40
0.0
 40
0.0
 40
0.0
 40
0.0
 40
1.0
 40
1.0
 40
1.0
 40
1.0
 10
9.274012413024903
 20
-1.164166666666666
 30
0.0
 41
1.0
 10
9.274012413024903
 20
-1.099361493587494
 30
0.0
 41
1.0
 10
9.221448599497477
 20
-1.046762354373931
 30
0.0
 41
1.0
 10
9.156608403523764
 20
-1.046762354373931
 30
0.0
 41
1.0
  0
SPLINE
  5
1D1
330
70
100
AcDbEntity
  8
Untitled v1_Sketch1
100
AcDbSpline
210
0.0
220
0.0
230
1.0
 70
    12
 71
     3
 72
     8
 73
     4
 74
     0
 42
0.000000001
 43
0.0000000001
 40
0.0
 40
0.0
 40
0.0
 40
0.0
 40
1.0
 40
1.0
 40
1.0
 40
1.0
 10
0.9031782770156862
 20
-14.71306349436442
 30
0.0
 41
1.0
 10
0.9031782770156862
 20
-14.64825801849365
 30
0.0
 41
1.0
 10
0.8506145644187927
 20
-14.59565948486328
 30
0.0
 41
1.0
 10
0.7857739142576855
 20
-14.59565948486328
 30
0.0
 41
1.0
  0
SPLINE
  5
1D2
330
70
100
AcDbEntity
  8
Untitled v1_Sketch1
100
AcDbSpline
210
0.0
220
0.0
230
1.0
 70
    12
 71
     3
 72
     8
 73
     4
 74
     0
 42
0.000000001
 43
0.0000000001
 40
0.0
 40
0.0
 40
0.0
 40
0.0
 40
1.0
 40
1.0
 40
1.0
 40
1.0
 10
19.84586227416992
 20
-14.76176045735677
 30
0.0
 41
1.0
 10
19.91070166269938
 20
-14.76176045735677
 30
0.0
 41
1.0
 10
19.96326628367106
 20
-14.7091619237264
 30
0.0
 41
1.0
 10
19.96326628367106
 20
-14.64432092030843
 30
0.0
 41
1.0
  0
SPLINE
  5
1D3
330
70
100
AcDbEntity
  8
Untitled v1_Sketch1
100
AcDbSpline
210
0.0
220
0.0
230
1.0
 70
    12
 71
     3
 72
     8
 73
     4
 74
     0
 42
0.000000001
 43
0.0000000001
 40
0.0
 40
0.0
 40
0.0
 40
0.0
 40
1.0
 40
1.0
 40
1.0
 40
1.0
 10
4.156071414947509
 20
-14.50045857747396
 30
0.0
 41
1.0
 10
4.091301466623942
 20
-14.50045857747396
 30
0.0
 41
1.0
 10
4.038736845652262
 20
-14.55305711110433
 30
0.0
 41
1.0
 10
4.038736845652262
 20
-14.6178625869751
 30
0.0
 41
1.0
  0
SPLINE
  5
1D4
330
70
100
AcDbEntity
  8
Untitled v1_Sketch1
100
AcDbSpline
210
0.0
220
0.0
230
1.0
 70
    12
 71
     3
 72
     8
 73
     4
 74
     0
 42
0.000000001
 43
0.0000000001
 40
0.0
 40
0.0
 40
0.0
 40
0.0
 40
1.0
 40
1.0
 40
1.0
 40
1.0
 10
4.038736845652262
 20
-14.6178625869751
 30
0.0
 41
1.0
 10
4.038736845652262
 20
-14.68270359039307
 30
0.0
 41
1.0
 10
4.091301466623942
 20
-14.73530212402344
 30
0.0
 41
1.0
 10
4.156071414947509
 20
-14.73530212402344
 30
0.0
 41
1.0
  0
SPLINE
  5
1D5
330
70
100
AcDbEntity
  8
Untitled v1_Sketch1
100
AcDbSpline
210
0.0
220
0.0
230
1.0
 70
    12
 71
     3
 72
     8
 73
     4
 74
     0
 42
0.000000001
 43
0.0000000001
 40
0.0
 40
0.0
 40
0.0
 40
0.0
 40
1.0
 40
1.0
 40
1.0
 40
1.0
 10
4.156071414947509
 20
-14.73530212402344
 30
0.0
 41
1.0
 10
4.220910399754842
 20
-14.73530212402344
 30
0.0
 41
1.0
 10
4.273475020726522
 20
-14.68270359039307
 30
0.0
 41
1.0
 10
4.273475020726522
 20
-14.6178625869751
 30
0.0
 41
1.0
  0
SPLINE
  5
1D6
330
70
100
AcDbEntity
  8
Untitled v1_Sketch1
100
AcDbSpline
210
0.0
220
0.0
230
1.0
 70
    12
 71
     3
 72
     8
 73
     4
 74
     0
 42
0.000000001
 43
0.0000000001
 40
0.0
 40
0.0
 40
0.0
 40
0.0
 40
1.0
 40
1.0
 40
1.0
 40
1.0
 10
16.47556573232015
 20
-14.62211781819662
 30
0.0
 41
1.0
 10
16.41079578399658
 20
-14.62211781819662
 30
0.0
 41
1.0
 10
16.3582311630249
 20
-14.67471635182699
 30
0.0
 41
1.0
 10
16.35823277791341
 20
-14.73952182769775
 30
0.0
 41
1.0
  0
SPLINE
  5
1D7
330
70
100
AcDbEntity
  8
Untitled v1_Sketch1
100
AcDbSpline
210
0.0
220
0.0
230
1.0
 70
    12
 71
     3
 72
     8
 73
     4
 74
     0
 42
0.000000001
 43
0.0000000001
 40
0.0
 40
0.0
 40
0.0
 40
0.0
 40
1.0
 40
1.0
 40
1.0
 40
1.0
 10
16.59296974182129
 20
-14.73952182769775
 30
0.0
 41
1.0
 10
16.59296974182129
 20
-14.67471635182699
 30
0.0
 41
1.0
 10
16.54040673573812
 20
-14.62211781819662
 30
0.0
 41
1.0
 10
16.47556573232015
 20
-14.62211781819662
 30
0.0
 41
1.0
  0
SPLINE
  5
1D8
330
70
100
AcDbEntity
  8
Untitled v1_Sketch1
100
AcDbSpline
210
0.0
220
0.0
230
1.0
 70
    12
 71
     3
 72
     8
 73
     4
 74
     0
 42
0.000000001
 43
0.0000000001
 40
0.0
 40
0.0
 40
0.0
 40
0.0
 40
1.0
 40
1.0
 40
1.0
 40
1.0
 10
9.274012413024903
 20
-1.164166666666666
 30
0.0
 41
1.0
 10
9.274012413024903
 20
-1.099361493587494
 30
0.0
 41
1.0
 10
9.221447792053224
 20
-1.046762354373931
 30
0.0
 41
1.0
 10
9.156608403523764
 20
-1.046762354373931
 30
0.0
 41
1.0
  0
SPLINE
  5
1D9
330
70
100
AcDbEntity
  8
Untitled v1_Sketch1
100
AcDbSpline
210
0.0
220
0.0
230
1.0
 70
    12
 71
     3
 72
     8
 73
     4
 74
     0
 42
0.000000001
 43
0.0000000001
 40
0.0
 40
0.0
 40
0.0
 40
0.0
 40
1.0
 40
1.0
 40
1.0
 40
1.0
 10
9.156608403523764
 20
-1.046762354373931
 30
0.0
 41
1.0
 10
9.09183926264445
 20
-1.046762354373931
 30
0.0
 41
1.0
 10
9.03927464167277
 20
-1.099361493587494
 30
0.0
 41
1.0
 10
9.03927464167277
 20
-1.164166666666666
 30
0.0
 41
1.0
  0
LINE
  5
1DA
330
70
100
AcDbEntity
  8
Untitled v1_Sketch1
100
AcDbLine
 10
21.91599269866944
 20
-14.39714124043782
 30
0.0
 11
19.64057603200277
 21
-14.39714124043782
 31
0.0
  0
LINE
  5
1DB
330
70
100
AcDbEntity
  8
Untitled v1_Sketch1
100
AcDbLine
 10
16.35974269866943
 20
-14.39714124043782
 30
0.0
 11
16.59153895060222
 21
-14.39714124043782
 31
0.0
  0
SPLINE
  5
1DC
330
70
100
AcDbEntity
  8
Untitled v1_Sketch1
100
AcDbSpline
210
0.0
220
0.0
230
1.0
 70
    12
 71
     3
 72
     8
 73
     4
 74
     0
 42
0.000000001
 43
0.0000000001
 40
0.0
 40
0.0
 40
0.0
 40
0.0
 40
1.0
 40
1.0
 40
1.0
 40
1.0
 10
16.35823277791341
 20
-14.73952182769775
 30
0.0
 41
1.0
 10
16.35823277791341
 20
-14.80436283111572
 30
0.0
 41
1.0
 10
16.41079578399658
 20
-14.8569613647461
 30
0.0
 41
1.0
 10
16.47556573232015
 20
-14.8569613647461
 30
0.0
 41
1.0
  0
LINE
  5
1DD
330
70
100
AcDbEntity
  8
Untitled v1_Sketch1
100
AcDbLine
 10
16.7301593653361
 20
-15.32318290710449
 30
0.0
 11
16.7301593653361
 21
-20.16125
 31
0.0
  0
SPLINE
  5
1DE
330
70
100
AcDbEntity
  8
Untitled v1_Sketch1
100
AcDbSpline
210
0.0
220
0.0
230
1.0
 70
    12
 71
     3
 72
     8
 73
     4
 74
     0
 42
0.000000001
 43
0.0000000001
 40
0.0
 40
0.0
 40
0.0
 40
0.0
 40
1.0
 40
1.0
 40
1.0
 40
1.0
 10
19.96326628367106
 20
-14.64432092030843
 30
0.0
 41
1.0
 10
19.96326628367106
 20
-14.57951544443766
 30
0.0
 41
1.0
 10
19.91070166269938
 20
-14.52691691080729
 30
0.0
 41
1.0
 10
19.84586227416992
 20
-14.52691691080729
 30
0.0
 41
1.0
  0
SPLINE
  5
1DF
330
70
100
AcDbEntity
  8
Untitled v1_Sketch1
100
AcDbSpline
210
0.0
220
0.0
230
1.0
 70
    12
 71
     3
 72
     8
 73
     4
 74
     0
 42
0.000000001
 43
0.0000000001
 40
0.0
 40
0.0
 40
0.0
 40
0.0
 40
1.0
 40
1.0
 40
1.0
 40
1.0
 10
9.03927464167277
 20
-1.164166666666666
 30
0.0
 41
1.0
 10
9.03927464167277
 20
-1.229007266362508
 30
0.0
 41
1.0
 10
9.09183926264445
 20
-1.281606203715006
 30
0.0
 41
1.0
 10
9.156608403523764
 20
-1.281606203715006
 30
0.0
 41
1.0
  0
SPLINE
  5
1E0
330
70
100
AcDbEntity
  8
Untitled v1_Sketch1
100
AcDbSpline
210
0.0
220
0.0
230
1.0
 70
    12
 71
     3
 72
     8
 73
     4
 74
     0
 42
0.000000001
 43
0.0000000001
 40
0.0
 40
0.0
 40
0.0
 40
0.0
 40
1.0
 40
1.0
 40
1.0
 40
1.0
 10
9.03927464167277
 20
-1.164166666666666
 30
0.0
 41
1.0
 10
9.03927464167277
 20
-1.229007266362508
 30
0.0
 41
1.0
 10
9.091838455200196
 20
-1.281606203715006
 30
0.0
 41
1.0
 10
9.156608403523764
 20
-1.281606203715006
 30
0.0
 41
1.0
  0
SPLINE
  5
1E1
330
70
100
AcDbEntity
  8
Untitled v1_Sketch1
100
AcDbSpline
210
0.0
220
0.0
230
1.0
 70
    12
 71
     3
 72
     8
 73
     4
 74
     0
 42
0.000000001
 43
0.0000000001
 40
0.0
 40
0.0
 40
0.0
 40
0.0
 40
1.0
 40
1.0
 40
1.0
 40
1.0
 10
3.095625
 20
-25.71750000000001
 30
0.0
 41
1.0
 10
3.095625
 20
-25.65269613901774
 30
0.0
 41
1.0
 10
3.043061186472575
 20
-25.60009599049887
 30
0.0
 41
1.0
 10
2.978220586776733
 20
-25.60009599049887
 30
0.0
 41
1.0
  0
LINE
  5
1E2
330
70
100
AcDbEntity
  8
Untitled v1_Sketch1
100
AcDbLine
 10
16.22745103200277
 20
-20.08568290710449
 30
0.0
 11
16.22745103200277
 21
-14.52943290710449
 31
0.0
  0
LINE
  5
1E3
330
70
100
AcDbEntity
  8
Untitled v1_Sketch1
100
AcDbLine
 10
16.7301593653361
 20
-15.32318290710449
 30
0.0
 11
16.7301593653361
 21
-15.12887952168783
 31
0.0
  0
SPLINE
  5
1E4
330
70
100
AcDbEntity
  8
Untitled v1_Sketch1
100
AcDbSpline
210
0.0
220
0.0
230
1.0
 70
    12
 71
     3
 72
     8
 73
     4
 74
     0
 42
0.000000001
 43
0.0000000001
 40
0.0
 40
0.0
 40
0.0
 40
0.0
 40
1.0
 40
1.0
 40
1.0
 40
1.0
 10
19.84586227416992
 20
-14.52691691080729
 30
0.0
 41
1.0
 10
19.78109232584635
 20
-14.52691691080729
 30
0.0
 41
1.0
 10
19.72852770487467
 20
-14.57951544443766
 30
0.0
 41
1.0
 10
19.72852770487467
 20
-14.64432092030843
 30
0.0
 41
1.0
  0
SPLINE
  5
1E5
330
70
100
AcDbEntity
  8
Untitled v1_Sketch1
100
AcDbSpline
210
0.0
220
0.0
230
1.0
 70
    12
 71
     3
 72
     8
 73
     4
 74
     0
 42
0.000000001
 43
0.0000000001
 40
0.0
 40
0.0
 40
0.0
 40
0.0
 40
1.0
 40
1.0
 40
1.0
 40
1.0
 10
19.72852770487467
 20
-14.64432092030843
 30
0.0
 41
1.0
 10
19.72852770487467
 20
-14.7091619237264
 30
0.0
 41
1.0
 10
19.78109232584635
 20
-14.76176045735677
 30
0.0
 41
1.0
 10
19.84586227416992
 20
-14.76176045735677
 30
0.0
 41
1.0
  0
SPLINE
  5
1E6
330
70
100
AcDbEntity
  8
Untitled v1_Sketch1
100
AcDbSpline
210
0.0
220
0.0
230
1.0
 70
    12
 71
     3
 72
     8
 73
     4
 74
     0
 42
0.000000001
 43
0.0000000001
 40
0.0
 40
0.0
 40
0.0
 40
0.0
 40
1.0
 40
1.0
 40
1.0
 40
1.0
 10
16.47556573232015
 20
-14.62211781819662
 30
0.0
 41
1.0
 10
16.41079578399658
 20
-14.62211781819662
 30
0.0
 41
1.0
 10
16.35823277791341
 20
-14.67471635182699
 30
0.0
 41
1.0
 10
16.35823277791341
 20
-14.73952182769775
 30
0.0
 41
1.0
  0
ENDSEC
  0
SECTION
  2
OBJECTS
  0
DICTIONARY
  5
C
330
0
100
AcDbDictionary
281
     1
  3
ACAD_COLOR
350
63
  3
ACAD_DETAILVIEWSTYLE
350
6A
  3
ACAD_GROUP
350
D
  3
ACAD_LAYOUT
350
62
  3
ACAD_MATERIAL
350
10
  3
ACAD_MLEADERSTYLE
350
66
  3
ACAD_MLINESTYLE
350
5F
  3
ACAD_PLOTSETTINGS
350
61
  3
ACAD_PLOTSTYLENAME
350
E
  3
ACAD_SCALELIST
350
42
  3
ACAD_SECTIONVIEWSTYLE
350
68
  3
ACAD_TABLESTYLE
350
64
  3
ACAD_VISUALSTYLE
350
29
  3
ACDB_RECOMPOSE_DATA
350
1EF
  3
AcDbVariableDictionary
350
1E7
  0
DICTIONARY
  5
63
102
{ACAD_REACTORS
330
C
102
}
330
C
100
AcDbDictionary
281
     1
  0
DICTIONARY
  5
6A
102
{ACAD_REACTORS
330
C
102
}
330
C
100
AcDbDictionary
281
     1
  3
Imperial24
350
6B
  0
DICTIONARY
  5
D
102
{ACAD_REACTORS
330
C
102
}
330
C
100
AcDbDictionary
281
     1
  0
DICTIONARY
  5
62
102
{ACAD_REACTORS
330
C
102
}
330
C
100
AcDbDictionary
281
     1
  3
Layout1
350
6F
  3
Layout2
350
77
  3
Model
350
73
  0
DICTIONARY
  5
10
102
{ACAD_REACTORS
330
C
102
}
330
C
100
AcDbDictionary
281
     1
  3
ByBlock
350
19
  3
ByLayer
350
11
  3
Global
350
21
  0
DICTIONARY
  5
66
102
{ACAD_REACTORS
330
C
102
}
330
C
100
AcDbDictionary
281
     1
  3
Standard
350
67
  0
DICTIONARY
  5
5F
102
{ACAD_REACTORS
330
C
102
}
330
C
100
AcDbDictionary
281
     1
  3
Standard
350
60
  0
DICTIONARY
  5
61
102
{ACAD_REACTORS
330
C
102
}
330
C
100
AcDbDictionary
281
     1
  0
ACDBDICTIONARYWDFLT
  5
E
102
{ACAD_REACTORS
330
C
102
}
330
C
100
AcDbDictionary
281
     1
  3
Normal
350
F
100
AcDbDictionaryWithDefault
340
F
  0
DICTIONARY
  5
42
102
{ACAD_REACTORS
330
C
102
}
330
C
100
AcDbDictionary
281
     1
  3
A0
350
43
  3
A1
350
44
  3
A2
350
45
  3
A3
350
46
  3
A4
350
47
  3
A5
350
48
  3
A6
350
49
  3
A7
350
4A
  3
A8
350
4B
  3
A9
350
4C
  3
B0
350
4D
  3
B1
350
4E
  3
B2
350
4F
  3
B3
350
50
  3
B4
350
51
  3
B5
350
52
  3
B6
350
53
  0
DICTIONARY
  5
68
102
{ACAD_REACTORS
330
C
102
}
330
C
100
AcDbDictionary
281
     1
  3
Imperial24
350
69
  0
DICTIONARY
  5
64
102
{ACAD_REACTORS
330
C
102
}
330
C
100
AcDbDictionary
281
     1
  3
Standard
350
65
  0
DICTIONARY
  5
29
102
{ACAD_REACTORS
330
C
102
}
330
C
100
AcDbDictionary
281
     1
  3
2dWireframe
350
2F
  3
Basic
350
2E
  3
Brighten
350
35
  3
ColorChange
350
39
  3
Conceptual
350
32
  3
Dim
350
34
  3
EdgeColorOff
350
41
  3
Facepattern
350
38
  3
Flat
350
2A
  3
FlatWithEdges
350
2B
  3
Gouraud
350
2C
  3
GouraudWithEdges
350
2D
  3
Hidden
350
31
  3
JitterOff
350
3F
  3
Linepattern
350
37
  3
OverhangOff
350
40
  3
Realistic
350
33
  3
Shaded
350
3E
  3
Shaded with edges
350
3D
  3
Shades of Gray
350
3A
  3
Sketchy
350
3B
  3
Thicken
350
36
  3
Wireframe
350
30
  3
X-Ray
350
3C
  0
XRECORD
  5
1EF
102
{ACAD_REACTORS
330
C
102
}
330
C
100
AcDbXrecord
280
     1
 90
        1
330
65
  0
DICTIONARY
  5
1E7
102
{ACAD_REACTORS
330
C
102
}
330
C
100
AcDbDictionary
281
     1
  3
CANNOSCALE
350
1EC
  3
CMLEADERSTYLE
350
1E9
  3
CTABLESTYLE
350
1E8
  3
CVIEWDETAILSTYLE
350
1EA
  3
CVIEWSECTIONSTYLE
350
1EB
  0
ACDBDETAILVIEWSTYLE
  5
6B
102
{ACAD_XDICTIONARY
360
1F2
102
}
102
{ACAD_REACTORS
330
6A
102
}
330
6A
100
AcDbModelDocViewStyle
 70
     0
  3
Imperial24
290
     0
100
AcDbDetailViewStyle
 70
     0
 71
     0
 90
        3
 71
     1
340
55
 62
   256
 40
0.24
340
0
 62
   256
 40
0.24
300

 40
0.36
280
     3
 71
     2
340
5D
 90
       25
 62
   256
 71
     3
340
55
 62
   256
 40
0.24
 90
        1
 40
0.75
 90
        1
300
%<\AcVar ViewType \f "%tc1">% %<\AcVar ViewDetailId>%\PSCALE %<\AcVar ViewScale \f "%sn">%
 71
     4
340
5D
 90
       25
 62
   256
340
5D
 90
       25
 62
   256
280
     0
  0
LAYOUT
  5
6F
102
{ACAD_REACTORS
330
62
102
}
330
62
100
AcDbPlotSettings
  1

  2

  4

  6

 40
0.0
 41
0.0
 42
0.0
 43
0.0
 44
0.0
 45
0.0
 46
0.0
 47
0.0
 48
0.0
 49
0.0
140
0.0
141
0.0
142
1.0
143
1.0
 70
   688
 72
     0
 73
     0
 74
     5
  7

 75
    16
147
1.0
 76
     0
 77
     2
 78
   300
148
0.0
149
0.0
100
AcDbLayout
  1
Layout1
 70
     1
 71
     1
 10
0.0
 20
0.0
 11
12.0
 21
9.0
 12
0.0
 22
0.0
 32
0.0
 14
0.0
 24
0.0
 34
0.0
 15
0.0
 25
0.0
 35
0.0
146
0.0
 13
0.0
 23
0.0
 33
0.0
 16
1.0
 26
0.0
 36
0.0
 17
0.0
 27
1.0
 37
0.0
 76
     0
330
6C
  0
LAYOUT
  5
77
102
{ACAD_REACTORS
330
62
102
}
330
62
100
AcDbPlotSettings
  1

  2

  4

  6

 40
0.0
 41
0.0
 42
0.0
 43
0.0
 44
0.0
 45
0.0
 46
0.0
 47
0.0
 48
0.0
 49
0.0
140
0.0
141
0.0
142
1.0
143
1.0
 70
   688
 72
     0
 73
     0
 74
     5
  7

 75
    16
147
1.0
 76
     0
 77
     2
 78
   300
148
0.0
149
0.0
100
AcDbLayout
  1
Layout2
 70
     1
 71
     2
 10
0.0
 20
0.0
 11
12.0
 21
9.0
 12
0.0
 22
0.0
 32
0.0
 14
0.0
 24
0.0
 34
0.0
 15
0.0
 25
0.0
 35
0.0
146
0.0
 13
0.0
 23
0.0
 33
0.0
 16
1.0
 26
0.0
 36
0.0
 17
0.0
 27
1.0
 37
0.0
 76
     0
330
74
  0
LAYOUT
  5
73
102
{ACAD_REACTORS
330
62
102
}
330
62
100
AcDbPlotSettings
  1

  2

  4

  6

 40
0.0
 41
0.0
 42
0.0
 43
0.0
 44
0.0
 45
0.0
 46
0.0
 47
0.0
 48
0.0
 49
0.0
140
0.0
141
0.0
142
1.0
143
1.0
 70
  1712
 72
     0
 73
     0
 74
     0
  7

 75
     0
147
1.0
 76
     0
 77
     2
 78
   300
148
0.0
149
0.0
100
AcDbLayout
  1
Model
 70
     1
 71
     0
 10
0.0
 20
0.0
 11
12.0
 21
9.0
 12
0.0
 22
0.0
 32
0.0
 14
0.0
 24
0.0
 34
0.0
 15
0.0
 25
0.0
 35
0.0
146
0.0
 13
0.0
 23
0.0
 33
0.0
 16
1.0
 26
0.0
 36
0.0
 17
0.0
 27
1.0
 37
0.0
 76
     0
330
70
  0
MATERIAL
  5
19
102
{ACAD_XDICTIONARY
360
1A
102
}
102
{ACAD_REACTORS
330
10
102
}
330
10
100
AcDbMaterial
  1
ByBlock
 72
     0
 43
0.0208333333333333
 43
0.0
 43
0.0
 43
0.0
 43
0.0
 43
0.0208333333333333
 43
0.0
 43
0.0
 43
0.0
 43
0.0
 43
1.0
 43
0.0
 43
0.0
 43
0.0
 43
0.0
 43
1.0
 77
     0
 47
0.0208333333333333
 47
0.0
 47
0.0
 47
0.0
 47
0.0
 47
0.0208333333333333
 47
0.0
 47
0.0
 47
0.0
 47
0.0
 47
1.0
 47
0.0
 47
0.0
 47
0.0
 47
0.0
 47
1.0
171
     0
 49
0.0208333333333333
 49
0.0
 49
0.0
 49
0.0
 49
0.0
 49
0.0208333333333333
 49
0.0
 49
0.0
 49
0.0
 49
0.0
 49
1.0
 49
0.0
 49
0.0
 49
0.0
 49
0.0
 49
1.0
175
     0
142
0.0208333333333333
142
0.0
142
0.0
142
0.0
142
0.0
142
0.0208333333333333
142
0.0
142
0.0
142
0.0
142
0.0
142
1.0
142
0.0
142
0.0
142
0.0
142
0.0
142
1.0
179
     0
144
0.0208333333333333
144
0.0
144
0.0
144
0.0
144
0.0
144
0.0208333333333333
144
0.0
144
0.0
144
0.0
144
0.0
144
1.0
144
0.0
144
0.0
144
0.0
144
0.0
144
1.0
147
0.0208333333333333
147
0.0
147
0.0
147
0.0
147
0.0
147
0.0208333333333333
147
0.0
147
0.0
147
0.0
147
0.0
147
1.0
147
0.0
147
0.0
147
0.0
147
0.0
147
1.0
  0
MATERIAL
  5
11
102
{ACAD_XDICTIONARY
360
12
102
}
102
{ACAD_REACTORS
330
10
102
}
330
10
100
AcDbMaterial
  1
ByLayer
 72
     0
 43
0.0208333333333333
 43
0.0
 43
0.0
 43
0.0
 43
0.0
 43
0.0208333333333333
 43
0.0
 43
0.0
 43
0.0
 43
0.0
 43
1.0
 43
0.0
 43
0.0
 43
0.0
 43
0.0
 43
1.0
 77
     0
 47
0.0208333333333333
 47
0.0
 47
0.0
 47
0.0
 47
0.0
 47
0.0208333333333333
 47
0.0
 47
0.0
 47
0.0
 47
0.0
 47
1.0
 47
0.0
 47
0.0
 47
0.0
 47
0.0
 47
1.0
171
     0
 49
0.0208333333333333
 49
0.0
 49
0.0
 49
0.0
 49
0.0
 49
0.0208333333333333
 49
0.0
 49
0.0
 49
0.0
 49
0.0
 49
1.0
 49
0.0
 49
0.0
 49
0.0
 49
0.0
 49
1.0
175
     0
142
0.0208333333333333
142
0.0
142
0.0
142
0.0
142
0.0
142
0.0208333333333333
142
0.0
142
0.0
142
0.0
142
0.0
142
1.0
142
0.0
142
0.0
142
0.0
142
0.0
142
1.0
179
     0
144
0.0208333333333333
144
0.0
144
0.0
144
0.0
144
0.0
144
0.0208333333333333
144
0.0
144
0.0
144
0.0
144
0.0
144
1.0
144
0.0
144
0.0
144
0.0
144
0.0
144
1.0
147
0.0208333333333333
147
0.0
147
0.0
147
0.0
147
0.0
147
0.0208333333333333
147
0.0
147
0.0
147
0.0
147
0.0
147
1.0
147
0.0
147
0.0
147
0.0
147
0.0
147
1.0
  0
MATERIAL
  5
21
102
{ACAD_XDICTIONARY
360
22
102
}
102
{ACAD_REACTORS
330
10
102
}
330
10
100
AcDbMaterial
  1
Global
 72
     0
 43
0.0208333333333333
 43
0.0
 43
0.0
 43
0.0
 43
0.0
 43
0.0208333333333333
 43
0.0
 43
0.0
 43
0.0
 43
0.0
 43
1.0
 43
0.0
 43
0.0
 43
0.0
 43
0.0
 43
1.0
 77
     0
 47
0.0208333333333333
 47
0.0
 47
0.0
 47
0.0
 47
0.0
 47
0.0208333333333333
 47
0.0
 47
0.0
 47
0.0
 47
0.0
 47
1.0
 47
0.0
 47
0.0
 47
0.0
 47
0.0
 47
1.0
171
     0
 49
0.0208333333333333
 49
0.0
 49
0.0
 49
0.0
 49
0.0
 49
0.0208333333333333
 49
0.0
 49
0.0
 49
0.0
 49
0.0
 49
1.0
 49
0.0
 49
0.0
 49
0.0
 49
0.0
 49
1.0
175
     0
142
0.0208333333333333
142
0.0
142
0.0
142
0.0
142
0.0
142
0.0208333333333333
142
0.0
142
0.0
142
0.0
142
0.0
142
1.0
142
0.0
142
0.0
142
0.0
142
0.0
142
1.0
179
     0
144
0.0208333333333333
144
0.0
144
0.0
144
0.0
144
0.0
144
0.0208333333333333
144
0.0
144
0.0
144
0.0
144
0.0
144
1.0
144
0.0
144
0.0
144
0.0
144
0.0
144
1.0
147
0.0208333333333333
147
0.0
147
0.0
147
0.0
147
0.0
147
0.0208333333333333
147
0.0
147
0.0
147
0.0
147
0.0
147
1.0
147
0.0
147
0.0
147
0.0
147
0.0
147
1.0
  0
MLEADERSTYLE
  5
67
102
{ACAD_REACTORS
330
66
102
}
330
66
100
AcDbMLeaderStyle
179
     2
170
     2
171
     1
172
     0
 90
        2
 40
0.0
 41
0.0
173
     1
 91
-1056964608
340
5B
 92
       -2
290
     1
 42
0.09
291
     1
 43
0.36
  3
Standard
 44
0.18
300

342
55
174
     1
178
     6
175
     1
176
     0
 93
-1056964608
 45
0.18
292
     0
297
     0
 46
0.18
 94
-1056964608
 47
1.0
 49
1.0
140
1.0
293
     1
141
0.0
294
     1
177
     0
142
1.0
295
     0
296
     0
143
0.125
271
     0
272
     9
273
     9
298
     1
  0
MLINESTYLE
  5
60
102
{ACAD_REACTORS
330
5F
102
}
330
5F
100
AcDbMlineStyle
  2
STANDARD
 70
     0
  3

 62
   256
 51
90.0
 52
90.0
 71
     2
 49
0.5
 62
   256
  6
BYLAYER
 49
-0.5
 62
   256
  6
BYLAYER
  0
ACDBPLACEHOLDER
  5
F
102
{ACAD_REACTORS
330
E
102
}
330
E
  0
SCALE
  5
43
102
{ACAD_REACTORS
330
42
102
}
330
42
100
AcDbScale
 70
     0
300
1:1
140
1.0
141
1.0
290
     1
  0
SCALE
  5
44
102
{ACAD_REACTORS
330
42
102
}
330
42
100
AcDbScale
 70
     0
300
1/128" = 1'-0"
140
0.0078125
141
12.0
290
     0
  0
SCALE
  5
45
102
{ACAD_REACTORS
330
42
102
}
330
42
100
AcDbScale
 70
     0
300
1/64" = 1'-0"
140
0.015625
141
12.0
290
     0
  0
SCALE
  5
46
102
{ACAD_REACTORS
330
42
102
}
330
42
100
AcDbScale
 70
     0
300
1/32" = 1'-0"
140
0.03125
141
12.0
290
     0
  0
SCALE
  5
47
102
{ACAD_REACTORS
330
42
102
}
330
42
100
AcDbScale
 70
     0
300
1/16" = 1'-0"
140
0.0625
141
12.0
290
     0
  0
SCALE
  5
48
102
{ACAD_REACTORS
330
42
102
}
330
42
100
AcDbScale
 70
     0
300
3/32" = 1'-0"
140
0.09375
141
12.0
290
     0
  0
SCALE
  5
49
102
{ACAD_REACTORS
330
42
102
}
330
42
100
AcDbScale
 70
     0
300
1/8" = 1'-0"
140
0.125
141
12.0
290
     0
  0
SCALE
  5
4A
102
{ACAD_REACTORS
330
42
102
}
330
42
100
AcDbScale
 70
     0
300
3/16" = 1'-0"
140
0.1875
141
12.0
290
     0
  0
SCALE
  5
4B
102
{ACAD_REACTORS
330
42
102
}
330
42
100
AcDbScale
 70
     0
300
1/4" = 1'-0"
140
0.25
141
12.0
290
     0
  0
SCALE
  5
4C
102
{ACAD_REACTORS
330
42
102
}
330
42
100
AcDbScale
 70
     0
300
3/8" = 1'-0"
140
0.375
141
12.0
290
     0
  0
SCALE
  5
4D
102
{ACAD_REACTORS
330
42
102
}
330
42
100
AcDbScale
 70
     0
300
1/2" = 1'-0"
140
0.5
141
12.0
290
     0
  0
SCALE
  5
4E
102
{ACAD_REACTORS
330
42
102
}
330
42
100
AcDbScale
 70
     0
300
3/4" = 1'-0"
140
0.75
141
12.0
290
     0
  0
SCALE
  5
4F
102
{ACAD_REACTORS
330
42
102
}
330
42
100
AcDbScale
 70
     0
300
1" = 1'-0"
140
1.0
141
12.0
290
     0
  0
SCALE
  5
50
102
{ACAD_REACTORS
330
42
102
}
330
42
100
AcDbScale
 70
     0
300
1-1/2" = 1'-0"
140
1.5
141
12.0
290
     0
  0
SCALE
  5
51
102
{ACAD_REACTORS
330
42
102
}
330
42
100
AcDbScale
 70
     0
300
3" = 1'-0"
140
3.0
141
12.0
290
     0
  0
SCALE
  5
52
102
{ACAD_REACTORS
330
42
102
}
330
42
100
AcDbScale
 70
     0
300
6" = 1'-0"
140
6.0
141
12.0
290
     0
  0
SCALE
  5
53
102
{ACAD_REACTORS
330
42
102
}
330
42
100
AcDbScale
 70
     0
300
1'-0" = 1'-0"
140
12.0
141
12.0
290
     0
  0
ACDBSECTIONVIEWSTYLE
  5
69
102
{ACAD_XDICTIONARY
360
1F0
102
}
102
{ACAD_REACTORS
330
68
102
}
330
68
100
AcDbModelDocViewStyle
 70
     0
  3
Imperial24
290
     0
100
AcDbSectionViewStyle
 70
     0
 71
     0
 90
       78
 71
     1
340
55
 62
   256
 40
0.24
340
0
340
0
 62
   256
 40
0.24
300
I, O, Q, S, X, Z
 40
0.48
 90
        3
 40
0.18
 90
        1
 71
     2
340
5D
 90
       25
 62
   256
340
5D
 90
       50
 62
   256
 40
0.24
 40
0.0
 40
0.24
 71
     3
340
55
 62
   256
 40
0.24
 90
        1
 40
0.75
 90
        1
300
%<\AcVar ViewType \f "%tc1">% %<\AcVar ViewSectionStartId>%-%<\AcVar ViewSectionEndId>%\PSCALE %<\AcVar ViewScale \f "%sn">%
 71
     4
 62
   256
 62
   257
300
ANSI31
 40
1.0
 90
        0
290
     0
290
     0
 90
        6
 40
0.0
 40
1.570796326794896
 40
0.2617993877991494
 40
1.308996938995747
 40
-0.2617993877991494
 40
1.832595714594046
  0
TABLESTYLE
  5
65
102
{ACAD_XDICTIONARY
360
1ED
102
}
102
{ACAD_REACTORS
330
64
102
}
330
64
100
AcDbTableStyle
280
     0
  3
Standard
 70
     0
 71
     0
 40
0.06
 41
0.06
280
     0
281
     0
  7
Standard
140
0.18
170
     2
 62
     0
 63
     7
283
     0
 90
      512
 91
        0
  1

274
    -2
284
     1
 64
     0
275
    -2
285
     1
 65
     0
276
    -2
286
     1
 66
     0
277
    -2
287
     1
 67
     0
278
    -2
288
     1
 68
     0
279
    -2
289
     1
 69
     0
  7
Standard
140
0.25
170
     5
 62
     0
 63
     7
283
     0
 90
      512
 91
        0
  1

274
    -2
284
     1
 64
     0
275
    -2
285
     1
 65
     0
276
    -2
286
     1
 66
     0
277
    -2
287
     1
 67
     0
278
    -2
288
     1
 68
     0
279
    -2
289
     1
 69
     0
  7
Standard
140
0.18
170
     5
 62
     0
 63
     7
283
     0
 90
      512
 91
        0
  1

274
    -2
284
     1
 64
     0
275
    -2
285
     1
 65
     0
276
    -2
286
     1
 66
     0
277
    -2
287
     1
 67
     0
278
    -2
288
     1
 68
     0
279
    -2
289
     1
 69
     0
  0
VISUALSTYLE
  5
2F
102
{ACAD_REACTORS
330
29
102
}
330
29
100
AcDbVisualStyle
  2
2dWireframe
 70
     4
177
     3
291
     0
 70
    58
 90
        0
176
     1
 90
        2
176
     1
 90
        0
176
     1
 90
        0
176
     1
 40
0.6
176
     1
 40
30.0
176
     1
 62
     7
420
 16777215
176
     1
 90
        1
176
     1
 90
        4
176
     1
 62
     7
176
     1
 62
   257
176
     1
 90
        1
176
     1
 90
        1
176
     1
 40
1.0
176
     1
 90
        0
176
     1
 62
   257
176
     1
 40
1.0
176
     1
 90
        1
176
     1
 90
        6
176
     1
 90
        2
176
     1
 62
     7
176
     1
 90
        5
176
     1
 90
        0
176
     1
 90
        0
176
     1
290
     0
176
     1
 90
        1
176
     1
 40
0.0
176
     1
 90
        0
176
     1
290
     1
176
     1
290
     1
176
     1
290
     0
176
     1
290
     0
176
     1
290
     0
176
     1
290
     0
176
     1
290
     0
176
     1
290
     0
176
     1
290
     0
176
     1
 90
       50
176
     1
 40
0.0
176
     1
 40
1.0
176
     1
 90
        0
176
     1
 62
    18
420
        0
176
     1
 90
       50
176
     1
 90
        3
176
     1
 62
     5
420
      255
176
     1
290
     0
176
     1
 90
       50
176
     1
 90
       50
176
     1
 90
       50
176
     1
290
     0
176
     1
 90
       50
176
     1
 62
   256
176
     0
 40
1.0
176
     0
 90
        2
176
     1
  1
strokes_ogs.tif
176
     1
290
     0
176
     1
 40
1.0
176
     1
 40
1.0
176
     1
1001
ACAD
1000
AcDbSavedByObjectVersion
1070
     0
  0
VISUALSTYLE
  5
2E
102
{ACAD_REACTORS
330
29
102
}
330
29
100
AcDbVisualStyle
  2
Basic
 70
     7
177
     3
291
     1
 70
    58
 90
        1
176
     1
 90
        0
176
     1
 90
        1
176
     1
 90
        0
176
     1
 40
0.6
176
     1
 40
30.0
176
     1
 62
     7
420
 16777215
176
     1
 90
        0
176
     1
 90
        4
176
     1
 62
     7
176
     1
 62
   257
176
     1
 90
        1
176
     1
 90
        1
176
     1
 40
1.0
176
     1
 90
        8
176
     1
 62
     7
176
     1
 40
1.0
176
     1
 90
        1
176
     1
 90
        6
176
     1
 90
        2
176
     1
 62
     7
176
     1
 90
        5
176
     1
 90
        0
176
     1
 90
        0
176
     1
290
     0
176
     1
 90
        1
176
     1
 40
0.0
176
     1
 90
        0
176
     1
290
     0
176
     1
290
     1
176
     1
290
     1
176
     1
290
     0
176
     1
290
     0
176
     1
290
     0
176
     1
290
     0
176
     1
290
     0
176
     1
290
     0
176
     1
 90
       50
176
     1
 40
0.0
176
     1
 40
1.0
176
     1
 90
        0
176
     1
 62
    18
420
        0
176
     1
 90
       50
176
     1
 90
        3
176
     1
 62
     5
420
      255
176
     1
290
     0
176
     1
 90
       50
176
     1
 90
       50
176
     1
 90
       50
176
     1
290
     0
176
     1
 90
       50
176
     1
 62
   256
176
     0
 40
1.0
176
     0
 90
        2
176
     1
  1
strokes_ogs.tif
176
     1
290
     0
176
     1
 40
1.0
176
     1
 40
1.0
176
     1
1001
ACAD
1000
AcDbSavedByObjectVersion
1070
     0
  0
VISUALSTYLE
  5
35
102
{ACAD_REACTORS
330
29
102
}
330
29
100
AcDbVisualStyle
  2
Brighten
 70
    12
177
     3
291
     1
 70
    58
 90
        2
176
     1
 90
        2
176
     1
 90
        0
176
     1
 90
        0
176
     1
 40
0.6
176
     1
 40
30.0
176
     1
 62
     7
420
 16777215
176
     1
 90
        1
176
     1
 90
        4
176
     1
 62
     7
176
     1
 62
   257
176
     1
 90
        1
176
     1
 90
        1
176
     1
 40
1.0
176
     1
 90
        8
176
     1
 62
     7
176
     1
 40
1.0
176
     1
 90
        1
176
     1
 90
        6
176
     1
 90
        2
176
     1
 62
     7
176
     1
 90
        5
176
     1
 90
        0
176
     1
 90
        0
176
     1
290
     0
176
     1
 90
        1
176
     1
 40
50.0
176
     1
 90
        0
176
     1
290
     0
176
     1
290
     1
176
     1
290
     1
176
     1
290
     0
176
     1
290
     0
176
     1
290
     0
176
     1
290
     0
176
     1
290
     0
176
     1
290
     0
176
     1
 90
       50
176
     1
 40
0.0
176
     1
 40
1.0
176
     1
 90
        0
176
     1
 62
    18
420
        0
176
     1
 90
       50
176
     1
 90
        3
176
     1
 62
     5
420
      255
176
     1
290
     0
176
     1
 90
       50
176
     1
 90
       50
176
     1
 90
       50
176
     1
290
     0
176
     1
 90
       50
176
     1
 62
   256
176
     0
 40
1.0
176
     0
 90
        2
176
     1
  1
strokes_ogs.tif
176
     1
290
     0
176
     1
 40
1.0
176
     1
 40
1.0
176
     1
1001
ACAD
1000
AcDbSavedByObjectVersion
1070
     0
  0
VISUALSTYLE
  5
39
102
{ACAD_REACTORS
330
29
102
}
330
29
100
AcDbVisualStyle
  2
ColorChange
 70
    16
177
     3
291
     1
 70
    58
 90
        2
176
     1
 90
        2
176
     1
 90
        3
176
     1
 90
        0
176
     1
 40
0.6
176
     1
 40
30.0
176
     1
 62
     8
420
  8421504
176
     1
 90
        1
176
     1
 90
        4
176
     1
 62
     7
176
     1
 62
   257
176
     1
 90
        1
176
     1
 90
        1
176
     1
 40
1.0
176
     1
 90
        8
176
     1
 62
     8
420
  8421504
176
     1
 40
1.0
176
     1
 90
        1
176
     1
 90
        6
176
     1
 90
        2
176
     1
 62
     7
176
     1
 90
        5
176
     1
 90
        0
176
     1
 90
        0
176
     1
290
     0
176
     1
 90
        1
176
     1
 40
0.0
176
     1
 90
        0
176
     1
290
     0
176
     1
290
     1
176
     1
290
     1
176
     1
290
     0
176
     1
290
     0
176
     1
290
     0
176
     1
290
     0
176
     1
290
     0
176
     1
290
     0
176
     1
 90
       50
176
     1
 40
0.0
176
     1
 40
1.0
176
     1
 90
        0
176
     1
 62
    18
420
        0
176
     1
 90
       50
176
     1
 90
        3
176
     1
 62
     5
420
      255
176
     1
290
     0
176
     1
 90
       50
176
     1
 90
       50
176
     1
 90
       50
176
     1
290
     0
176
     1
 90
       50
176
     1
 62
   256
176
     0
 40
1.0
176
     0
 90
        2
176
     1
  1
strokes_ogs.tif
176
     1
290
     0
176
     1
 40
1.0
176
     1
 40
1.0
176
     1
1001
ACAD
1000
AcDbSavedByObjectVersion
1070
     0
  0
VISUALSTYLE
  5
32
102
{ACAD_REACTORS
330
29
102
}
330
29
100
AcDbVisualStyle
  2
Conceptual
 70
     9
177
     3
291
     0
 70
    58
 90
        3
176
     1
 90
        2
176
     1
 90
        0
176
     1
 90
        0
176
     1
 40
0.6
176
     1
 40
30.0
176
     1
 62
     7
420
 16777215
176
     1
 90
        2
176
     1
 90
        2
176
     1
 62
     7
176
     1
 62
   257
176
     1
 90
        1
176
     1
 90
        1
176
     1
 40
179.0
176
     1
 90
        8
176
     1
 62
     7
176
     1
 40
1.0
176
     1
 90
        1
176
     1
 90
        6
176
     1
 90
        2
176
     1
 62
     7
176
     1
 90
        3
176
     1
 90
        0
176
     1
 90
        0
176
     1
290
     0
176
     1
 90
        1
176
     1
 40
0.0
176
     1
 90
        0
176
     1
290
     0
176
     1
290
     1
176
     1
290
     1
176
     1
290
     0
176
     1
290
     0
176
     1
290
     0
176
     1
290
     0
176
     1
290
     0
176
     1
290
     0
176
     1
 90
       50
176
     1
 40
0.0
176
     1
 40
1.0
176
     1
 90
        0
176
     1
 62
    18
420
        0
176
     1
 90
       50
176
     1
 90
        3
176
     1
 62
     5
420
      255
176
     1
290
     0
176
     1
 90
       50
176
     1
 90
       50
176
     1
 90
       50
176
     1
290
     0
176
     1
 90
       50
176
     1
 62
   256
176
     0
 40
1.0
176
     0
 90
        2
176
     1
  1
strokes_ogs.tif
176
     1
290
     0
176
     1
 40
1.0
176
     1
 40
1.0
176
     1
1001
ACAD
1000
AcDbSavedByObjectVersion
1070
     0
  0
VISUALSTYLE
  5
34
102
{ACAD_REACTORS
330
29
102
}
330
29
100
AcDbVisualStyle
  2
Dim
 70
    11
177
     3
291
     1
 70
    58
 90
        2
176
     1
 90
        2
176
     1
 90
        0
176
     1
 90
        0
176
     1
 40
0.6
176
     1
 40
30.0
176
     1
 62
     7
420
 16777215
176
     1
 90
        1
176
     1
 90
        4
176
     1
 62
     7
176
     1
 62
   257
176
     1
 90
        1
176
     1
 90
        1
176
     1
 40
1.0
176
     1
 90
        8
176
     1
 62
     7
176
     1
 40
1.0
176
     1
 90
        1
176
     1
 90
        6
176
     1
 90
        2
176
     1
 62
     7
176
     1
 90
        5
176
     1
 90
        0
176
     1
 90
        0
176
     1
290
     0
176
     1
 90
        1
176
     1
 40
-50.0
176
     1
 90
        0
176
     1
290
     0
176
     1
290
     1
176
     1
290
     1
176
     1
290
     0
176
     1
290
     0
176
     1
290
     0
176
     1
290
     0
176
     1
290
     0
176
     1
290
     0
176
     1
 90
       50
176
     1
 40
0.0
176
     1
 40
1.0
176
     1
 90
        0
176
     1
 62
    18
420
        0
176
     1
 90
       50
176
     1
 90
        3
176
     1
 62
     5
420
      255
176
     1
290
     0
176
     1
 90
       50
176
     1
 90
       50
176
     1
 90
       50
176
     1
290
     0
176
     1
 90
       50
176
     1
 62
   256
176
     0
 40
1.0
176
     0
 90
        2
176
     1
  1
strokes_ogs.tif
176
     1
290
     0
176
     1
 40
1.0
176
     1
 40
1.0
176
     1
1001
ACAD
1000
AcDbSavedByObjectVersion
1070
     0
  0
VISUALSTYLE
  5
41
102
{ACAD_REACTORS
330
29
102
}
330
29
100
AcDbVisualStyle
  2
EdgeColorOff
 70
    22
177
     3
291
     1
 70
    58
 90
        2
176
     0
 90
        2
176
     0
 90
        0
176
     0
 90
        0
176
     0
 40
0.6
176
     0
 40
30.0
176
     0
 62
     7
420
 16777215
176
     0
 90
        1
176
     0
 90
        4
176
     0
 62
     7
176
     0
 62
   257
176
     0
 90
        1
176
     0
 90
        1
176
     0
 40
1.0
176
     0
 90
        8
176
     2
 62
     7
176
     0
 40
1.0
176
     0
 90
        1
176
     0
 90
        6
176
     0
 90
        2
176
     0
 62
     7
176
     0
 90
        5
176
     0
 90
        0
176
     0
 90
        0
176
     0
290
     0
176
     0
 90
        1
176
     0
 40
0.0
176
     0
 90
        0
176
     0
290
     0
176
     0
290
     1
176
     0
290
     1
176
     0
290
     0
176
     0
290
     0
176
     0
290
     0
176
     0
290
     0
176
     0
290
     0
176
     0
290
     0
176
     0
 90
       50
176
     0
 40
0.0
176
     0
 40
1.0
176
     0
 90
        0
176
     0
 62
    18
420
        0
176
     0
 90
       50
176
     0
 90
        3
176
     0
 62
     5
420
      255
176
     0
290
     0
176
     0
 90
       50
176
     0
 90
       50
176
     0
 90
       50
176
     0
290
     0
176
     0
 90
       50
176
     0
 62
   256
176
     0
 40
1.0
176
     0
 90
        2
176
     0
  1
strokes_ogs.tif
176
     0
290
     0
176
     0
 40
1.0
176
     0
 40
1.0
176
     0
1001
ACAD
1000
AcDbSavedByObjectVersion
1070
     0
  0
VISUALSTYLE
  5
38
102
{ACAD_REACTORS
330
29
102
}
330
29
100
AcDbVisualStyle
  2
Facepattern
 70
    15
177
     3
291
     1
 70
    58
 90
        2
176
     1
 90
        2
176
     1
 90
        0
176
     1
 90
        0
176
     1
 40
0.6
176
     1
 40
30.0
176
     1
 62
     7
420
 16777215
176
     1
 90
        1
176
     1
 90
        4
176
     1
 62
     7
176
     1
 62
   257
176
     1
 90
        1
176
     1
 90
        1
176
     1
 40
1.0
176
     1
 90
        8
176
     1
 62
     7
176
     1
 40
1.0
176
     1
 90
        1
176
     1
 90
        6
176
     1
 90
        2
176
     1
 62
     7
176
     1
 90
        5
176
     1
 90
        0
176
     1
 90
        0
176
     1
290
     0
176
     1
 90
        1
176
     1
 40
0.0
176
     1
 90
        0
176
     1
290
     0
176
     1
290
     1
176
     1
290
     1
176
     1
290
     0
176
     1
290
     0
176
     1
290
     0
176
     1
290
     0
176
     1
290
     0
176
     1
290
     0
176
     1
 90
       50
176
     1
 40
0.0
176
     1
 40
1.0
176
     1
 90
        0
176
     1
 62
    18
420
        0
176
     1
 90
       50
176
     1
 90
        3
176
     1
 62
     5
420
      255
176
     1
290
     0
176
     1
 90
       50
176
     1
 90
       50
176
     1
 90
       50
176
     1
290
     0
176
     1
 90
       50
176
     1
 62
   256
176
     0
 40
1.0
176
     0
 90
        2
176
     1
  1
strokes_ogs.tif
176
     1
290
     0
176
     1
 40
1.0
176
     1
 40
1.0
176
     1
1001
ACAD
1000
AcDbSavedByObjectVersion
1070
     0
  0
VISUALSTYLE
  5
2A
102
{ACAD_REACTORS
330
29
102
}
330
29
100
AcDbVisualStyle
  2
Flat
 70
     0
177
     3
291
     1
 70
    58
 90
        2
176
     1
 90
        1
176
     1
 90
        1
176
     1
 90
        2
176
     1
 40
0.6
176
     1
 40
30.0
176
     1
 62
     7
420
 16777215
176
     1
 90
        0
176
     1
 90
        0
176
     1
 62
     7
176
     1
 62
   257
176
     1
 90
        1
176
     1
 90
        1
176
     1
 40
1.0
176
     1
 90
        8
176
     1
 62
     7
176
     1
 40
1.0
176
     1
 90
        1
176
     1
 90
        6
176
     1
 90
        2
176
     1
 62
     7
176
     1
 90
        5
176
     1
 90
        0
176
     1
 90
        0
176
     1
290
     0
176
     1
 90
       13
176
     1
 40
0.0
176
     1
 90
        0
176
     1
290
     0
176
     1
290
     1
176
     1
290
     1
176
     1
290
     0
176
     1
290
     0
176
     1
290
     0
176
     1
290
     0
176
     1
290
     0
176
     1
290
     0
176
     1
 90
       50
176
     1
 40
0.0
176
     1
 40
1.0
176
     1
 90
        0
176
     1
 62
    18
420
        0
176
     1
 90
       50
176
     1
 90
        3
176
     1
 62
     5
420
      255
176
     1
290
     0
176
     1
 90
       50
176
     1
 90
       50
176
     1
 90
       50
176
     1
290
     0
176
     1
 90
       50
176
     1
 62
   256
176
     0
 40
1.0
176
     0
 90
        2
176
     1
  1
strokes_ogs.tif
176
     1
290
     0
176
     1
 40
1.0
176
     1
 40
1.0
176
     1
1001
ACAD
1000
AcDbSavedByObjectVersion
1070
     0
  0
VISUALSTYLE
  5
2B
102
{ACAD_REACTORS
330
29
102
}
330
29
100
AcDbVisualStyle
  2
FlatWithEdges
 70
     1
177
     3
291
     1
 70
    58
 90
        2
176
     1
 90
        1
176
     1
 90
        1
176
     1
 90
        2
176
     1
 40
0.6
176
     1
 40
30.0
176
     1
 62
     7
420
 16777215
176
     1
 90
        1
176
     1
 90
        0
176
     1
 62
     7
176
     1
 62
   257
176
     1
 90
        1
176
     1
 90
        1
176
     1
 40
1.0
176
     1
 90
        0
176
     1
 62
   257
176
     1
 40
1.0
176
     1
 90
        1
176
     1
 90
        6
176
     1
 90
        2
176
     1
 62
     7
176
     1
 90
        5
176
     1
 90
        0
176
     1
 90
        0
176
     1
290
     0
176
     1
 90
       13
176
     1
 40
0.0
176
     1
 90
        0
176
     1
290
     0
176
     1
290
     1
176
     1
290
     1
176
     1
290
     0
176
     1
290
     0
176
     1
290
     0
176
     1
290
     0
176
     1
290
     0
176
     1
290
     0
176
     1
 90
       50
176
     1
 40
0.0
176
     1
 40
1.0
176
     1
 90
        0
176
     1
 62
    18
420
        0
176
     1
 90
       50
176
     1
 90
        3
176
     1
 62
     5
420
      255
176
     1
290
     0
176
     1
 90
       50
176
     1
 90
       50
176
     1
 90
       50
176
     1
290
     0
176
     1
 90
       50
176
     1
 62
   256
176
     0
 40
1.0
176
     0
 90
        2
176
     1
  1
strokes_ogs.tif
176
     1
290
     0
176
     1
 40
1.0
176
     1
 40
1.0
176
     1
1001
ACAD
1000
AcDbSavedByObjectVersion
1070
     0
  0
VISUALSTYLE
  5
2C
102
{ACAD_REACTORS
330
29
102
}
330
29
100
AcDbVisualStyle
  2
Gouraud
 70
     2
177
     3
291
     1
 70
    58
 90
        2
176
     1
 90
        2
176
     1
 90
        1
176
     1
 90
        2
176
     1
 40
0.6
176
     1
 40
30.0
176
     1
 62
     7
420
 16777215
176
     1
 90
        0
176
     1
 90
        0
176
     1
 62
     7
176
     1
 62
   257
176
     1
 90
        1
176
     1
 90
        1
176
     1
 40
1.0
176
     1
 90
        0
176
     1
 62
     7
176
     1
 40
1.0
176
     1
 90
        1
176
     1
 90
        6
176
     1
 90
        2
176
     1
 62
     7
176
     1
 90
        5
176
     1
 90
        0
176
     1
 90
        0
176
     1
290
     0
176
     1
 90
       13
176
     1
 40
0.0
176
     1
 90
        0
176
     1
290
     0
176
     1
290
     1
176
     1
290
     1
176
     1
290
     0
176
     1
290
     0
176
     1
290
     0
176
     1
290
     0
176
     1
290
     0
176
     1
290
     0
176
     1
 90
       50
176
     1
 40
0.0
176
     1
 40
1.0
176
     1
 90
        0
176
     1
 62
    18
420
        0
176
     1
 90
       50
176
     1
 90
        3
176
     1
 62
     5
420
      255
176
     1
290
     0
176
     1
 90
       50
176
     1
 90
       50
176
     1
 90
       50
176
     1
290
     0
176
     1
 90
       50
176
     1
 62
   256
176
     0
 40
1.0
176
     0
 90
        2
176
     1
  1
strokes_ogs.tif
176
     1
290
     0
176
     1
 40
1.0
176
     1
 40
1.0
176
     1
1001
ACAD
1000
AcDbSavedByObjectVersion
1070
     0
  0
VISUALSTYLE
  5
2D
102
{ACAD_REACTORS
330
29
102
}
330
29
100
AcDbVisualStyle
  2
GouraudWithEdges
 70
     3
177
     3
291
     1
 70
    58
 90
        2
176
     1
 90
        2
176
     1
 90
        1
176
     1
 90
        2
176
     1
 40
0.6
176
     1
 40
30.0
176
     1
 62
     7
420
 16777215
176
     1
 90
        1
176
     1
 90
        0
176
     1
 62
     7
176
     1
 62
   257
176
     1
 90
        1
176
     1
 90
        1
176
     1
 40
1.0
176
     1
 90
        0
176
     1
 62
   257
176
     1
 40
1.0
176
     1
 90
        1
176
     1
 90
        6
176
     1
 90
        2
176
     1
 62
     7
176
     1
 90
        5
176
     1
 90
        0
176
     1
 90
        0
176
     1
290
     0
176
     1
 90
       13
176
     1
 40
0.0
176
     1
 90
        0
176
     1
290
     0
176
     1
290
     1
176
     1
290
     1
176
     1
290
     0
176
     1
290
     0
176
     1
290
     0
176
     1
290
     0
176
     1
290
     0
176
     1
290
     0
176
     1
 90
       50
176
     1
 40
0.0
176
     1
 40
1.0
176
     1
 90
        0
176
     1
 62
    18
420
        0
176
     1
 90
       50
176
     1
 90
        3
176
     1
 62
     5
420
      255
176
     1
290
     0
176
     1
 90
       50
176
     1
 90
       50
176
     1
 90
       50
176
     1
290
     0
176
     1
 90
       50
176
     1
 62
   256
176
     0
 40
1.0
176
     0
 90
        2
176
     1
  1
strokes_ogs.tif
176
     1
290
     0
176
     1
 40
1.0
176
     1
 40
1.0
176
     1
1001
ACAD
1000
AcDbSavedByObjectVersion
1070
     0
  0
VISUALSTYLE
  5
31
102
{ACAD_REACTORS
330
29
102
}
330
29
100
AcDbVisualStyle
  2
Hidden
 70
     6
177
     3
291
     0
 70
    58
 90
        1
176
     1
 90
        2
176
     1
 90
        2
176
     1
 90
        0
176
     1
 40
0.6
176
     1
 40
30.0
176
     1
 62
     7
420
 16777215
176
     1
 90
        2
176
     1
 90
        2
176
     1
 62
     7
176
     1
 62
   257
176
     1
 90
        2
176
     1
 90
        1
176
     1
 40
40.0
176
     1
 90
        0
176
     1
 62
   257
176
     1
 40
1.0
176
     1
 90
        1
176
     1
 90
        6
176
     1
 90
        2
176
     1
 62
     7
176
     1
 90
        3
176
     1
 90
        0
176
     1
 90
        0
176
     1
290
     0
176
     1
 90
        1
176
     1
 40
0.0
176
     1
 90
        0
176
     1
290
     0
176
     1
290
     1
176
     1
290
     1
176
     1
290
     0
176
     1
290
     0
176
     1
290
     0
176
     1
290
     0
176
     1
290
     0
176
     1
290
     0
176
     1
 90
       50
176
     1
 40
0.0
176
     1
 40
1.0
176
     1
 90
        0
176
     1
 62
    18
420
        0
176
     1
 90
       50
176
     1
 90
        3
176
     1
 62
     5
420
      255
176
     1
290
     0
176
     1
 90
       50
176
     1
 90
       50
176
     1
 90
       50
176
     1
290
     0
176
     1
 90
       50
176
     1
 62
   256
176
     0
 40
1.0
176
     0
 90
        2
176
     1
  1
strokes_ogs.tif
176
     1
290
     0
176
     1
 40
1.0
176
     1
 40
1.0
176
     1
1001
ACAD
1000
AcDbSavedByObjectVersion
1070
     0
  0
VISUALSTYLE
  5
3F
102
{ACAD_REACTORS
330
29
102
}
330
29
100
AcDbVisualStyle
  2
JitterOff
 70
    20
177
     3
291
     1
 70
    58
 90
        2
176
     0
 90
        2
176
     0
 90
        0
176
     0
 90
        0
176
     0
 40
0.6
176
     0
 40
30.0
176
     0
 62
     7
420
 16777215
176
     0
 90
        1
176
     0
 90
        4
176
     0
 62
     7
176
     0
 62
   257
176
     0
 90
        1
176
     0
 90
        1
176
     0
 40
1.0
176
     0
 90
       10
176
     2
 62
     7
176
     0
 40
1.0
176
     0
 90
        1
176
     0
 90
        6
176
     0
 90
        2
176
     0
 62
     7
176
     0
 90
        5
176
     0
 90
        0
176
     0
 90
        0
176
     0
290
     0
176
     0
 90
        1
176
     0
 40
0.0
176
     0
 90
        0
176
     0
290
     0
176
     0
290
     1
176
     0
290
     1
176
     0
290
     0
176
     0
290
     0
176
     0
290
     0
176
     0
290
     0
176
     0
290
     0
176
     0
290
     0
176
     0
 90
       50
176
     0
 40
0.0
176
     0
 40
1.0
176
     0
 90
        0
176
     0
 62
    18
420
        0
176
     0
 90
       50
176
     0
 90
        3
176
     0
 62
     5
420
      255
176
     0
290
     0
176
     0
 90
       50
176
     0
 90
       50
176
     0
 90
       50
176
     0
290
     0
176
     0
 90
       50
176
     0
 62
   256
176
     0
 40
1.0
176
     0
 90
        2
176
     0
  1
strokes_ogs.tif
176
     0
290
     0
176
     0
 40
1.0
176
     0
 40
1.0
176
     0
1001
ACAD
1000
AcDbSavedByObjectVersion
1070
     0
  0
VISUALSTYLE
  5
37
102
{ACAD_REACTORS
330
29
102
}
330
29
100
AcDbVisualStyle
  2
Linepattern
 70
    14
177
     3
291
     1
 70
    58
 90
        2
176
     1
 90
        2
176
     1
 90
        0
176
     1
 90
        0
176
     1
 40
0.6
176
     1
 40
30.0
176
     1
 62
     7
420
 16777215
176
     1
 90
        1
176
     1
 90
        4
176
     1
 62
     7
176
     1
 62
   257
176
     1
 90
        7
176
     1
 90
        7
176
     1
 40
1.0
176
     1
 90
        8
176
     1
 62
     7
176
     1
 40
1.0
176
     1
 90
        1
176
     1
 90
        6
176
     1
 90
        2
176
     1
 62
     7
176
     1
 90
        5
176
     1
 90
        0
176
     1
 90
        0
176
     1
290
     0
176
     1
 90
        1
176
     1
 40
0.0
176
     1
 90
        0
176
     1
290
     0
176
     1
290
     1
176
     1
290
     1
176
     1
290
     0
176
     1
290
     0
176
     1
290
     0
176
     1
290
     0
176
     1
290
     0
176
     1
290
     0
176
     1
 90
       50
176
     1
 40
0.0
176
     1
 40
1.0
176
     1
 90
        0
176
     1
 62
    18
420
        0
176
     1
 90
       50
176
     1
 90
        3
176
     1
 62
     5
420
      255
176
     1
290
     0
176
     1
 90
       50
176
     1
 90
       50
176
     1
 90
       50
176
     1
290
     0
176
     1
 90
       50
176
     1
 62
   256
176
     0
 40
1.0
176
     0
 90
        2
176
     1
  1
strokes_ogs.tif
176
     1
290
     0
176
     1
 40
1.0
176
     1
 40
1.0
176
     1
1001
ACAD
1000
AcDbSavedByObjectVersion
1070
     0
  0
VISUALSTYLE
  5
40
102
{ACAD_REACTORS
330
29
102
}
330
29
100
AcDbVisualStyle
  2
OverhangOff
 70
    21
177
     3
291
     1
 70
    58
 90
        2
176
     0
 90
        2
176
     0
 90
        0
176
     0
 90
        0
176
     0
 40
0.6
176
     0
 40
30.0
176
     0
 62
     7
420
 16777215
176
     0
 90
        1
176
     0
 90
        4
176
     0
 62
     7
176
     0
 62
   257
176
     0
 90
        1
176
     0
 90
        1
176
     0
 40
1.0
176
     0
 90
        9
176
     2
 62
     7
176
     0
 40
1.0
176
     0
 90
        1
176
     0
 90
        6
176
     0
 90
        2
176
     0
 62
     7
176
     0
 90
        5
176
     0
 90
        0
176
     0
 90
        0
176
     0
290
     0
176
     0
 90
        1
176
     0
 40
0.0
176
     0
 90
        0
176
     0
290
     0
176
     0
290
     1
176
     0
290
     1
176
     0
290
     0
176
     0
290
     0
176
     0
290
     0
176
     0
290
     0
176
     0
290
     0
176
     0
290
     0
176
     0
 90
       50
176
     0
 40
0.0
176
     0
 40
1.0
176
     0
 90
        0
176
     0
 62
    18
420
        0
176
     0
 90
       50
176
     0
 90
        3
176
     0
 62
     5
420
      255
176
     0
290
     0
176
     0
 90
       50
176
     0
 90
       50
176
     0
 90
       50
176
     0
290
     0
176
     0
 90
       50
176
     0
 62
   256
176
     0
 40
1.0
176
     0
 90
        2
176
     0
  1
strokes_ogs.tif
176
     0
290
     0
176
     0
 40
1.0
176
     0
 40
1.0
176
     0
1001
ACAD
1000
AcDbSavedByObjectVersion
1070
     0
  0
VISUALSTYLE
  5
33
102
{ACAD_REACTORS
330
29
102
}
330
29
100
AcDbVisualStyle
  2
Realistic
 70
     8
177
     3
291
     0
 70
    58
 90
        2
176
     1
 90
        3
176
     1
 90
        0
176
     1
 90
        2
176
     1
 40
0.6
176
     1
 40
30.0
176
     1
 62
     7
420
 16777215
176
     1
 90
        0
176
     1
 90
        0
176
     1
 62
     7
176
     1
 62
   257
176
     1
 90
        1
176
     1
 90
        1
176
     1
 40
1.0
176
     1
 90
        8
176
     1
 62
   257
176
     1
 40
1.0
176
     1
 90
        1
176
     1
 90
        6
176
     1
 90
        2
176
     1
 62
     7
176
     1
 90
        3
176
     1
 90
        0
176
     1
 90
        0
176
     1
290
     0
176
     1
 90
       13
176
     1
 40
0.0
176
     1
 90
        0
176
     1
290
     0
176
     1
290
     1
176
     1
290
     1
176
     1
290
     0
176
     1
290
     0
176
     1
290
     0
176
     1
290
     0
176
     1
290
     0
176
     1
290
     0
176
     1
 90
       50
176
     1
 40
0.0
176
     1
 40
1.0
176
     1
 90
        0
176
     1
 62
    18
420
        0
176
     1
 90
       50
176
     1
 90
        3
176
     1
 62
     5
420
      255
176
     1
290
     0
176
     1
 90
       50
176
     1
 90
       50
176
     1
 90
       50
176
     1
290
     0
176
     1
 90
       50
176
     1
 62
   256
176
     0
 40
1.0
176
     0
 90
        2
176
     1
  1
strokes_ogs.tif
176
     1
290
     0
176
     1
 40
1.0
176
     1
 40
1.0
176
     1
1001
ACAD
1000
AcDbSavedByObjectVersion
1070
     0
  0
VISUALSTYLE
  5
3E
102
{ACAD_REACTORS
330
29
102
}
330
29
100
AcDbVisualStyle
  2
Shaded
 70
    27
177
     3
291
     0
 70
    58
 90
        2
176
     1
 90
        2
176
     1
 90
        1
176
     1
 90
        2
176
     1
 40
0.6
176
     1
 40
30.0
176
     1
 62
     7
420
 16777215
176
     1
 90
        0
176
     1
 90
        4
176
     1
 62
     7
176
     1
 62
   257
176
     1
 90
        1
176
     1
 90
        1
176
     1
 40
1.0
176
     1
 90
        8
176
     1
 62
   257
176
     1
 40
1.0
176
     1
 90
        1
176
     1
 90
        6
176
     1
 90
        2
176
     1
 62
     8
420
  7895160
176
     1
 90
        3
176
     1
 90
        0
176
     1
 90
        0
176
     1
290
     0
176
     1
 90
        5
176
     1
 40
0.0
176
     1
 90
        0
176
     1
290
     0
176
     1
290
     1
176
     1
290
     1
176
     1
290
     0
176
     1
290
     0
176
     1
290
     0
176
     1
290
     0
176
     1
290
     0
176
     1
290
     0
176
     1
 90
       50
176
     1
 40
0.0
176
     1
 40
1.0
176
     1
 90
        0
176
     1
 62
    18
420
        0
176
     1
 90
       50
176
     1
 90
        3
176
     1
 62
     5
420
      255
176
     1
290
     0
176
     1
 90
       50
176
     1
 90
       50
176
     1
 90
       50
176
     1
290
     0
176
     1
 90
       50
176
     1
 62
   256
176
     0
 40
1.0
176
     0
 90
        2
176
     1
  1
strokes_ogs.tif
176
     1
290
     0
176
     1
 40
1.0
176
     1
 40
1.0
176
     1
1001
ACAD
1000
AcDbSavedByObjectVersion
1070
     0
  0
VISUALSTYLE
  5
3D
102
{ACAD_REACTORS
330
29
102
}
330
29
100
AcDbVisualStyle
  2
Shaded with edges
 70
    26
177
     3
291
     0
 70
    58
 90
        2
176
     1
 90
        2
176
     1
 90
        1
176
     1
 90
        2
176
     1
 40
0.6
176
     1
 40
30.0
176
     1
 62
     7
420
 16777215
176
     1
 90
        1
176
     1
 90
        2
176
     1
 62
     7
176
     1
 62
   257
176
     1
 90
        2
176
     1
 90
        1
176
     1
 40
1.0
176
     1
 90
        8
176
     1
 62
   257
176
     1
 40
1.0
176
     1
 90
        1
176
     1
 90
        6
176
     1
 90
        2
176
     1
 62
     7
176
     1
 90
        3
176
     1
 90
        0
176
     1
 90
        0
176
     1
290
     0
176
     1
 90
        5
176
     1
 40
0.0
176
     1
 90
        0
176
     1
290
     0
176
     1
290
     1
176
     1
290
     1
176
     1
290
     0
176
     1
290
     0
176
     1
290
     0
176
     1
290
     0
176
     1
290
     0
176
     1
290
     0
176
     1
 90
       50
176
     1
 40
0.0
176
     1
 40
1.0
176
     1
 90
        0
176
     1
 62
    18
420
        0
176
     1
 90
       50
176
     1
 90
        3
176
     1
 62
     5
420
      255
176
     1
290
     0
176
     1
 90
       50
176
     1
 90
       50
176
     1
 90
       50
176
     1
290
     0
176
     1
 90
       50
176
     1
 62
   256
176
     0
 40
1.0
176
     0
 90
        2
176
     1
  1
strokes_ogs.tif
176
     1
290
     0
176
     1
 40
1.0
176
     1
 40
1.0
176
     1
1001
ACAD
1000
AcDbSavedByObjectVersion
1070
     0
  0
VISUALSTYLE
  5
3A
102
{ACAD_REACTORS
330
29
102
}
330
29
100
AcDbVisualStyle
  2
Shades of Gray
 70
    23
177
     3
291
     0
 70
    58
 90
        2
176
     1
 90
        2
176
     1
 90
        3
176
     1
 90
        0
176
     1
 40
0.6
176
     1
 40
30.0
176
     1
 62
     7
420
 16777215
176
     1
 90
        2
176
     1
 90
        2
176
     1
 62
     7
176
     1
 62
     7
176
     1
 90
        1
176
     1
 90
        1
176
     1
 40
40.0
176
     1
 90
        8
176
     1
 62
     7
176
     1
 40
1.0
176
     1
 90
        1
176
     1
 90
        6
176
     1
 90
        2
176
     1
 62
     7
176
     1
 90
        3
176
     1
 90
        0
176
     1
 90
        0
176
     1
290
     0
176
     1
 90
        1
176
     1
 40
0.0
176
     1
 90
        0
176
     1
290
     0
176
     1
290
     1
176
     1
290
     1
176
     1
290
     0
176
     1
290
     0
176
     1
290
     0
176
     1
290
     0
176
     1
290
     0
176
     1
290
     0
176
     1
 90
       50
176
     1
 40
0.0
176
     1
 40
1.0
176
     1
 90
        0
176
     1
 62
    18
420
        0
176
     1
 90
       50
176
     1
 90
        3
176
     1
 62
     5
420
      255
176
     1
290
     0
176
     1
 90
       50
176
     1
 90
       50
176
     1
 90
       50
176
     1
290
     0
176
     1
 90
       50
176
     1
 62
   256
176
     0
 40
1.0
176
     0
 90
        2
176
     1
  1
strokes_ogs.tif
176
     1
290
     0
176
     1
 40
1.0
176
     1
 40
1.0
176
     1
1001
ACAD
1000
AcDbSavedByObjectVersion
1070
     0
  0
VISUALSTYLE
  5
3B
102
{ACAD_REACTORS
330
29
102
}
330
29
100
AcDbVisualStyle
  2
Sketchy
 70
    24
177
     3
291
     0
 70
    58
 90
        1
176
     1
 90
        2
176
     1
 90
        2
176
     1
 90
        0
176
     1
 40
0.6
176
     1
 40
30.0
176
     1
 62
     7
420
 16777215
176
     1
 90
        2
176
     1
 90
        2
176
     1
 62
     7
176
     1
 62
     7
176
     1
 90
        1
176
     1
 90
        1
176
     1
 40
40.0
176
     1
 90
       11
176
     1
 62
     7
176
     1
 40
1.0
176
     1
 90
        1
176
     1
 90
        6
176
     1
 90
        2
176
     1
 62
     7
176
     1
 90
        6
176
     1
 90
        0
176
     1
 90
        0
176
     1
290
     0
176
     1
 90
        1
176
     1
 40
0.0
176
     1
 90
        0
176
     1
290
     0
176
     1
290
     1
176
     1
290
     1
176
     1
290
     0
176
     1
290
     0
176
     1
290
     0
176
     1
290
     0
176
     1
290
     0
176
     1
290
     0
176
     1
 90
       50
176
     1
 40
0.0
176
     1
 40
1.0
176
     1
 90
        0
176
     1
 62
    18
420
        0
176
     1
 90
       50
176
     1
 90
        3
176
     1
 62
     5
420
      255
176
     1
290
     0
176
     1
 90
       50
176
     1
 90
       50
176
     1
 90
       50
176
     1
290
     0
176
     1
 90
       50
176
     1
 62
   256
176
     0
 40
1.0
176
     0
 90
        2
176
     1
  1
strokes_ogs.tif
176
     1
290
     0
176
     1
 40
1.0
176
     1
 40
1.0
176
     1
1001
ACAD
1000
AcDbSavedByObjectVersion
1070
     0
  0
VISUALSTYLE
  5
36
102
{ACAD_REACTORS
330
29
102
}
330
29
100
AcDbVisualStyle
  2
Thicken
 70
    13
177
     3
291
     1
 70
    58
 90
        2
176
     1
 90
        2
176
     1
 90
        0
176
     1
 90
        0
176
     1
 40
0.6
176
     1
 40
30.0
176
     1
 62
     7
420
 16777215
176
     1
 90
        1
176
     1
 90
        4
176
     1
 62
     7
176
     1
 62
   257
176
     1
 90
        1
176
     1
 90
        1
176
     1
 40
1.0
176
     1
 90
       12
176
     1
 62
     7
176
     1
 40
1.0
176
     1
 90
        1
176
     1
 90
        6
176
     1
 90
        2
176
     1
 62
     7
176
     1
 90
        5
176
     1
 90
        0
176
     1
 90
        0
176
     1
290
     0
176
     1
 90
        1
176
     1
 40
0.0
176
     1
 90
        0
176
     1
290
     0
176
     1
290
     1
176
     1
290
     1
176
     1
290
     0
176
     1
290
     0
176
     1
290
     0
176
     1
290
     0
176
     1
290
     0
176
     1
290
     0
176
     1
 90
       50
176
     1
 40
0.0
176
     1
 40
1.0
176
     1
 90
        0
176
     1
 62
    18
420
        0
176
     1
 90
       50
176
     1
 90
        3
176
     1
 62
     5
420
      255
176
     1
290
     0
176
     1
 90
       50
176
     1
 90
       50
176
     1
 90
       50
176
     1
290
     0
176
     1
 90
       50
176
     1
 62
   256
176
     0
 40
1.0
176
     0
 90
        2
176
     1
  1
strokes_ogs.tif
176
     1
290
     0
176
     1
 40
1.0
176
     1
 40
1.0
176
     1
1001
ACAD
1000
AcDbSavedByObjectVersion
1070
     0
  0
VISUALSTYLE
  5
30
102
{ACAD_REACTORS
330
29
102
}
330
29
100
AcDbVisualStyle
  2
Wireframe
 70
     5
177
     3
291
     0
 70
    58
 90
        0
176
     1
 90
        2
176
     1
 90
        0
176
     1
 90
        0
176
     1
 40
0.6
176
     1
 40
30.0
176
     1
 62
     7
420
 16777215
176
     1
 90
        1
176
     1
 90
        4
176
     1
 62
     7
176
     1
 62
   257
176
     1
 90
        1
176
     1
 90
        1
176
     1
 40
1.0
176
     1
 90
        0
176
     1
 62
   257
176
     1
 40
1.0
176
     1
 90
        1
176
     1
 90
        6
176
     1
 90
        2
176
     1
 62
     7
176
     1
 90
        3
176
     1
 90
        0
176
     1
 90
        0
176
     1
290
     0
176
     1
 90
        1
176
     1
 40
0.0
176
     1
 90
        0
176
     1
290
     0
176
     1
290
     1
176
     1
290
     1
176
     1
290
     0
176
     1
290
     0
176
     1
290
     0
176
     1
290
     0
176
     1
290
     0
176
     1
290
     0
176
     1
 90
       50
176
     1
 40
0.0
176
     1
 40
1.0
176
     1
 90
        0
176
     1
 62
    18
420
        0
176
     1
 90
       50
176
     1
 90
        3
176
     1
 62
     5
420
      255
176
     1
290
     0
176
     1
 90
       50
176
     1
 90
       50
176
     1
 90
       50
176
     1
290
     0
176
     1
 90
       50
176
     1
 62
   256
176
     0
 40
1.0
176
     0
 90
        2
176
     1
  1
strokes_ogs.tif
176
     1
290
     0
176
     1
 40
1.0
176
     1
 40
1.0
176
     1
1001
ACAD
1000
AcDbSavedByObjectVersion
1070
     0
  0
VISUALSTYLE
  5
3C
102
{ACAD_REACTORS
330
29
102
}
330
29
100
AcDbVisualStyle
  2
X-Ray
 70
    25
177
     3
291
     0
 70
    58
 90
        2
176
     1
 90
        2
176
     1
 90
        1
176
     1
 90
        1
176
     1
 40
0.5
176
     1
 40
30.0
176
     1
 62
     7
420
 16777215
176
     1
 90
        1
176
     1
 90
        0
176
     1
 62
     7
176
     1
 62
   257
176
     1
 90
        1
176
     1
 90
        1
176
     1
 40
1.0
176
     1
 90
        8
176
     1
 62
     7
176
     1
 40
1.0
176
     1
 90
        1
176
     1
 90
        6
176
     1
 90
        2
176
     1
 62
     7
176
     1
 90
        3
176
     1
 90
        0
176
     1
 90
        0
176
     1
290
     0
176
     1
 90
       13
176
     1
 40
0.0
176
     1
 90
        0
176
     1
290
     0
176
     1
290
     1
176
     1
290
     1
176
     1
290
     0
176
     1
290
     0
176
     1
290
     0
176
     1
290
     0
176
     1
290
     0
176
     1
290
     0
176
     1
 90
       50
176
     1
 40
0.0
176
     1
 40
1.0
176
     1
 90
        0
176
     1
 62
    18
420
        0
176
     1
 90
       50
176
     1
 90
        3
176
     1
 62
     5
420
      255
176
     1
290
     0
176
     1
 90
       50
176
     1
 90
       50
176
     1
 90
       50
176
     1
290
     0
176
     1
 90
       50
176
     1
 62
   256
176
     0
 40
1.0
176
     0
 90
        2
176
     1
  1
strokes_ogs.tif
176
     1
290
     0
176
     1
 40
1.0
176
     1
 40
1.0
176
     1
1001
ACAD
1000
AcDbSavedByObjectVersion
1070
     0
  0
DICTIONARYVAR
  5
1EC
102
{ACAD_REACTORS
330
1E7
102
}
330
1E7
100
DictionaryVariables
280
     0
  1
1:1
  0
DICTIONARYVAR
  5
1E9
102
{ACAD_REACTORS
330
1E7
102
}
330
1E7
100
DictionaryVariables
280
     0
  1
STANDARD
  0
DICTIONARYVAR
  5
1E8
102
{ACAD_REACTORS
330
1E7
102
}
330
1E7
100
DictionaryVariables
280
     0
  1
STANDARD
  0
DICTIONARYVAR
  5
1EA
102
{ACAD_REACTORS
330
1E7
102
}
330
1E7
100
DictionaryVariables
280
     0
  1
Imperial24
  0
DICTIONARYVAR
  5
1EB
102
{ACAD_REACTORS
330
1E7
102
}
330
1E7
100
DictionaryVariables
280
     0
  1
Imperial24
  0
DICTIONARY
  5
1F2
330
6B
100
AcDbDictionary
280
     1
281
     1
  3
ACAD_XREC_ROUNDTRIP
360
1F3
  0
DICTIONARY
  5
1A
330
19
100
AcDbDictionary
280
     1
281
     1
  3
BUMPTILE
360
1C
  3
DIFFUSETILE
360
1B
  3
OPACITYTILE
360
1F
  3
REFLECTIONTILE
360
1E
  3
REFRACTIONTILE
360
20
  3
SPECULARTILE
360
1D
  0
DICTIONARY
  5
12
330
11
100
AcDbDictionary
280
     1
281
     1
  3
BUMPTILE
360
14
  3
DIFFUSETILE
360
13
  3
OPACITYTILE
360
17
  3
REFLECTIONTILE
360
16
  3
REFRACTIONTILE
360
18
  3
SPECULARTILE
360
15
  0
DICTIONARY
  5
22
330
21
100
AcDbDictionary
280
     1
281
     1
  3
BUMPTILE
360
24
  3
DIFFUSETILE
360
23
  3
OPACITYTILE
360
27
  3
REFLECTIONTILE
360
26
  3
REFRACTIONTILE
360
28
  3
SPECULARTILE
360
25
  0
DICTIONARY
  5
1F0
330
69
100
AcDbDictionary
280
     1
281
     1
  3
ACAD_XREC_ROUNDTRIP
360
1F1
  0
DICTIONARY
  5
1ED
330
65
100
AcDbDictionary
280
     1
281
     1
  3
ACAD_ROUNDTRIP_2008_TABLESTYLE_CELLSTYLEMAP
360
1EE
  0
XRECORD
  5
1F3
102
{ACAD_REACTORS
330
1F2
102
}
330
1F2
100
AcDbXrecord
280
     1
102
DISPLAYNAME
  1
Imperial24
102
FLAGS
 90
        0
  0
XRECORD
  5
1C
102
{ACAD_REACTORS
330
1A
102
}
330
1A
100
AcDbXrecord
280
     1
270
     1
271
     1
  0
XRECORD
  5
1B
102
{ACAD_REACTORS
330
1A
102
}
330
1A
100
AcDbXrecord
280
     1
270
     1
271
     1
  0
XRECORD
  5
1F
102
{ACAD_REACTORS
330
1A
102
}
330
1A
100
AcDbXrecord
280
     1
270
     1
271
     1
  0
XRECORD
  5
1E
102
{ACAD_REACTORS
330
1A
102
}
330
1A
100
AcDbXrecord
280
     1
270
     1
271
     1
  0
XRECORD
  5
20
102
{ACAD_REACTORS
330
1A
102
}
330
1A
100
AcDbXrecord
280
     1
270
     1
271
     1
  0
XRECORD
  5
1D
102
{ACAD_REACTORS
330
1A
102
}
330
1A
100
AcDbXrecord
280
     1
270
     1
271
     1
  0
XRECORD
  5
14
102
{ACAD_REACTORS
330
12
102
}
330
12
100
AcDbXrecord
280
     1
270
     1
271
     1
  0
XRECORD
  5
13
102
{ACAD_REACTORS
330
12
102
}
330
12
100
AcDbXrecord
280
     1
270
     1
271
     1
  0
XRECORD
  5
17
102
{ACAD_REACTORS
330
12
102
}
330
12
100
AcDbXrecord
280
     1
270
     1
271
     1
  0
XRECORD
  5
16
102
{ACAD_REACTORS
330
12
102
}
330
12
100
AcDbXrecord
280
     1
270
     1
271
     1
  0
XRECORD
  5
18
102
{ACAD_REACTORS
330
12
102
}
330
12
100
AcDbXrecord
280
     1
270
     1
271
     1
  0
XRECORD
  5
15
102
{ACAD_REACTORS
330
12
102
}
330
12
100
AcDbXrecord
280
     1
270
     1
271
     1
  0
XRECORD
  5
24
102
{ACAD_REACTORS
330
22
102
}
330
22
100
AcDbXrecord
280
     1
270
     1
271
     1
  0
XRECORD
  5
23
102
{ACAD_REACTORS
330
22
102
}
330
22
100
AcDbXrecord
280
     1
270
     1
271
     1
  0
XRECORD
  5
27
102
{ACAD_REACTORS
330
22
102
}
330
22
100
AcDbXrecord
280
     1
270
     1
271
     1
  0
XRECORD
  5
26
102
{ACAD_REACTORS
330
22
102
}
330
22
100
AcDbXrecord
280
     1
270
     1
271
     1
  0
XRECORD
  5
28
102
{ACAD_REACTORS
330
22
102
}
330
22
100
AcDbXrecord
280
     1
270
     1
271
     1
  0
XRECORD
  5
25
102
{ACAD_REACTORS
330
22
102
}
330
22
100
AcDbXrecord
280
     1
270
     1
271
     1
  0
XRECORD
  5
1F1
102
{ACAD_REACTORS
330
1F0
102
}
330
1F0
100
AcDbXrecord
280
     1
102
DISPLAYNAME
  1
Imperial24
102
FLAGS
 90
        0
  0
CELLSTYLEMAP
  5
1EE
102
{ACAD_REACTORS
330
1ED
102
}
330
1ED
100
AcDbCellStyleMap
 90
        3
300
CELLSTYLE
  1
TABLEFORMAT_BEGIN
 90
        5
170
     1
 91
        0
 92
    32768
 62
   257
 93
        1
300
CONTENTFORMAT
  1
CONTENTFORMAT_BEGIN
 90
        0
 91
        0
 92
      512
 93
        0
300

 40
0.0
140
1.0
 94
        5
 62
     0
340
55
144
0.25
309
CONTENTFORMAT_END
171
     0
 94
        0
309
TABLEFORMAT_END
  1
CELLSTYLE_BEGIN
 90
        1
 91
        1
300
_TITLE
309
CELLSTYLE_END
300
CELLSTYLE
  1
TABLEFORMAT_BEGIN
 90
        5
170
     1
 91
        0
 92
        0
 62
   257
 93
        1
300
CONTENTFORMAT
  1
CONTENTFORMAT_BEGIN
 90
        0
 91
        0
 92
      512
 93
        0
300

 40
0.0
140
1.0
 94
        5
 62
     0
340
55
144
0.18
309
CONTENTFORMAT_END
171
     0
 94
        0
309
TABLEFORMAT_END
  1
CELLSTYLE_BEGIN
 90
        2
 91
        1
300
_HEADER
309
CELLSTYLE_END
300
CELLSTYLE
  1
TABLEFORMAT_BEGIN
 90
        5
170
     1
 91
        0
 92
        0
 62
   257
 93
        1
300
CONTENTFORMAT
  1
CONTENTFORMAT_BEGIN
 90
        0
 91
        0
 92
      512
 93
        0
300

 40
0.0
140
1.0
 94
        2
 62
     0
340
55
144
0.18
309
CONTENTFORMAT_END
171
     0
 94
        0
309
TABLEFORMAT_END
  1
CELLSTYLE_BEGIN
 90
        3
 91
        2
300
_DATA
309
CELLSTYLE_END
  0
ENDSEC
  0
EOF
